<svg width="400" height="324" viewBox="0 0 400 324" fill="none" xmlns="http://www.w3.org/2000/svg">
<g clip-path="url(#clip0)">
<path d="M314.945 252.19C314.865 252.03 314.732 251.951 314.546 251.897C314.386 251.844 314.2 251.871 314.067 251.977L311.941 253.226L310.692 251.1C310.612 250.94 310.479 250.861 310.293 250.808C310.134 250.754 309.948 250.781 309.815 250.887C309.655 250.967 309.575 251.1 309.522 251.286C309.469 251.446 309.496 251.632 309.602 251.764L310.851 253.891L308.725 255.14C308.565 255.22 308.486 255.353 308.432 255.539C308.379 255.725 308.406 255.884 308.512 256.017C308.592 256.177 308.725 256.256 308.911 256.31C309.07 256.363 309.256 256.336 309.389 256.23L311.516 254.981L312.765 257.107C312.898 257.346 313.19 257.453 313.429 257.399C313.509 257.373 313.562 257.373 313.642 257.32C313.934 257.134 314.041 256.761 313.855 256.442L312.605 254.316L314.732 253.067C315.024 252.881 315.131 252.482 314.945 252.19Z" fill="#DEDEDE"/>
<path d="M320.314 266.197C318.772 266.197 317.523 264.948 317.523 263.406C317.523 261.865 318.772 260.615 320.314 260.615C321.855 260.615 323.104 261.865 323.104 263.406C323.078 264.948 321.829 266.197 320.314 266.197ZM320.314 262.131C319.596 262.131 319.011 262.715 319.011 263.433C319.011 264.151 319.596 264.735 320.314 264.735C321.031 264.735 321.616 264.151 321.616 263.433C321.616 262.715 321.031 262.131 320.314 262.131Z" fill="#DEDEDE"/>
<path d="M39.5509 306.997C38.0093 306.997 36.76 305.748 36.76 304.206C36.76 302.665 38.0093 301.416 39.5509 301.416C41.0925 301.416 42.3418 302.665 42.3418 304.206C42.3418 305.748 41.0925 306.997 39.5509 306.997ZM39.5509 302.931C38.8332 302.931 38.2485 303.515 38.2485 304.233C38.2485 304.951 38.8332 305.535 39.5509 305.535C40.2685 305.535 40.8533 304.951 40.8533 304.233C40.8533 303.515 40.2685 302.931 39.5509 302.931Z" fill="#DEDEDE"/>
<path d="M347.372 8.10691C345.83 8.10691 344.581 6.85766 344.581 5.31603C344.581 3.7744 345.83 2.52515 347.372 2.52515C348.914 2.52515 350.163 3.7744 350.163 5.31603C350.136 6.85766 348.887 8.10691 347.372 8.10691ZM347.372 4.01362C346.654 4.01362 346.07 4.59837 346.07 5.31603C346.07 6.03369 346.654 6.61844 347.372 6.61844C348.09 6.61844 348.674 6.03369 348.674 5.31603C348.674 4.59837 348.09 4.01362 347.372 4.01362Z" fill="#DEDEDE"/>
<path d="M394.95 78.4902C394.79 78.5699 394.684 78.7028 394.631 78.8623C394.578 79.0218 394.578 79.2078 394.657 79.3407L395.747 81.5469L393.541 82.6366C393.382 82.7164 393.275 82.8493 393.222 83.0088C393.169 83.1682 393.169 83.3543 393.249 83.4872C393.328 83.6467 393.461 83.753 393.621 83.8062C393.78 83.8593 393.966 83.8593 394.099 83.7796L396.305 82.6898L397.395 84.8959C397.475 85.0554 397.608 85.1617 397.767 85.2149C397.927 85.2681 398.113 85.2681 398.246 85.1883C398.405 85.1086 398.511 84.9757 398.565 84.8162C398.618 84.6567 398.618 84.4707 398.538 84.3378L397.448 82.1316L399.654 81.0419C399.894 80.909 400.026 80.6432 400 80.4039C400 80.3242 399.973 80.271 399.947 80.1913C399.787 79.8723 399.415 79.7394 399.096 79.8989L396.89 80.9887L395.8 78.7826C395.641 78.4636 395.269 78.3307 394.95 78.4902Z" fill="#DEDEDE"/>
<path d="M354.788 131.384C353.246 131.384 351.997 130.135 351.997 128.593C351.997 127.052 353.246 125.802 354.788 125.802C356.329 125.802 357.579 127.052 357.579 128.593C357.579 130.135 356.329 131.384 354.788 131.384ZM354.788 127.318C354.07 127.318 353.485 127.902 353.485 128.62C353.485 129.338 354.07 129.922 354.788 129.922C355.505 129.922 356.09 129.338 356.09 128.62C356.09 127.902 355.505 127.318 354.788 127.318Z" fill="#DEDEDE"/>
<path d="M0.345506 170.137C0.212607 170.244 0.159448 170.403 0.132868 170.589C0.132868 170.749 0.186027 170.935 0.292347 171.041L1.96688 172.822L0.186027 174.496C0.0531282 174.603 -3.1488e-05 174.762 -0.0266113 174.948C-0.0266113 175.108 0.0265484 175.294 0.132868 175.4C0.239187 175.533 0.398666 175.586 0.584725 175.613C0.744204 175.613 0.930263 175.56 1.03658 175.453L2.81743 173.779L4.49196 175.56C4.59828 175.693 4.75776 175.746 4.94382 175.772C5.12988 175.799 5.28936 175.719 5.39568 175.613C5.52857 175.507 5.58174 175.347 5.60831 175.161C5.60831 175.001 5.55515 174.815 5.44884 174.709L3.77431 172.928L5.55515 171.254C5.76779 171.068 5.82095 170.775 5.71463 170.536C5.68805 170.483 5.63489 170.403 5.60831 170.35C5.3691 170.084 4.9704 170.084 4.7046 170.323L2.92375 171.971L1.24922 170.191C1.01 169.925 0.584725 169.898 0.345506 170.137Z" fill="#DEDEDE"/>
<path d="M27.7228 200.704C26.1811 200.704 24.9319 199.455 24.9319 197.913C24.9319 196.372 26.1811 195.123 27.7228 195.123C29.2644 195.123 30.5137 196.372 30.5137 197.913C30.5137 199.455 29.2644 200.704 27.7228 200.704ZM27.7228 196.638C27.0051 196.638 26.4204 197.222 26.4204 197.94C26.4204 198.658 27.0051 199.242 27.7228 199.242C28.4404 199.242 29.0252 198.658 29.0252 197.94C29.0252 197.222 28.4404 196.638 27.7228 196.638Z" fill="#DEDEDE"/>
<path d="M75.5929 288.072C75.3005 288.072 75.0347 287.833 75.0347 287.541C75.0081 287.222 75.2474 286.956 75.5663 286.956C77.4269 286.85 79.3141 286.664 81.1747 286.398C81.4936 286.345 81.7594 286.557 81.8126 286.876C81.8658 287.195 81.6531 287.461 81.3342 287.514C79.447 287.78 77.5332 287.966 75.6195 288.072H75.5929ZM67.619 288.046H67.5924C65.7052 287.939 63.7649 287.727 61.9043 287.434C61.5853 287.381 61.3727 287.089 61.4259 286.796C61.479 286.478 61.7714 286.265 62.0638 286.318C63.9244 286.584 65.8115 286.796 67.6721 286.903C67.9911 286.929 68.2303 287.195 68.2037 287.514C68.1771 287.833 67.9379 288.046 67.619 288.046ZM89.0423 285.946C88.8031 285.946 88.5639 285.786 88.4841 285.521C88.4044 285.228 88.5905 284.909 88.8828 284.83C90.6903 284.351 92.4977 283.793 94.2785 283.182C94.5709 283.075 94.8899 283.235 94.9962 283.527C95.1025 283.82 94.943 284.138 94.6507 284.245C92.8698 284.883 91.0092 285.441 89.1752 285.919C89.1486 285.946 89.0955 285.946 89.0423 285.946ZM54.1961 285.813C54.143 285.813 54.0898 285.813 54.0367 285.786C52.2027 285.281 50.3686 284.697 48.5878 284.032C48.2954 283.926 48.1359 283.607 48.2423 283.315C48.3486 283.022 48.6675 282.863 48.9599 282.969C50.7142 283.607 52.5216 284.192 54.329 284.67C54.6214 284.75 54.8075 285.069 54.7277 285.361C54.6746 285.654 54.4354 285.813 54.1961 285.813ZM101.801 281.188C101.588 281.188 101.402 281.082 101.296 280.869C101.163 280.577 101.269 280.258 101.561 280.098C103.236 279.274 104.91 278.344 106.505 277.387C106.771 277.228 107.117 277.307 107.276 277.573C107.436 277.839 107.356 278.185 107.09 278.344C105.469 279.328 103.768 280.258 102.066 281.108C101.987 281.162 101.88 281.188 101.801 281.188ZM41.4644 280.922C41.3847 280.922 41.2783 280.896 41.1986 280.869C39.4975 280.019 37.823 279.062 36.2016 278.052C35.9358 277.892 35.856 277.547 36.0155 277.281C36.175 277.015 36.5205 276.935 36.7863 277.095C38.3811 278.078 40.0291 279.009 41.7036 279.859C41.9694 279.992 42.1023 280.338 41.9428 280.63C41.8631 280.789 41.677 280.922 41.4644 280.922ZM113.336 273.932C113.177 273.932 112.991 273.852 112.884 273.719C112.698 273.48 112.725 273.108 112.991 272.922C114.453 271.779 115.915 270.53 117.27 269.254C117.509 269.041 117.855 269.068 118.068 269.28C118.28 269.52 118.254 269.865 118.041 270.078C116.632 271.38 115.17 272.629 113.682 273.799C113.576 273.879 113.443 273.932 113.336 273.932ZM30.0085 273.56C29.8756 273.56 29.7693 273.507 29.6629 273.427C28.1745 272.231 26.7126 270.981 25.3304 269.679C25.0912 269.466 25.0912 269.094 25.3038 268.882C25.5165 268.642 25.8886 268.642 26.1012 268.855C27.4568 270.131 28.8921 271.38 30.354 272.55C30.5932 272.736 30.6464 273.108 30.4338 273.347C30.3274 273.48 30.168 273.56 30.0085 273.56ZM123.171 264.496C123.038 264.496 122.905 264.443 122.799 264.363C122.559 264.15 122.533 263.805 122.746 263.566C123.968 262.13 125.138 260.642 126.228 259.127C126.414 258.861 126.759 258.808 127.025 258.994C127.291 259.18 127.344 259.526 127.158 259.791C126.041 261.333 124.872 262.848 123.623 264.31C123.49 264.416 123.33 264.496 123.171 264.496ZM20.2271 264.071C20.0676 264.071 19.9081 263.991 19.8018 263.858C18.5791 262.396 17.4096 260.881 16.3199 259.313C16.1338 259.047 16.2135 258.702 16.4528 258.516C16.7186 258.329 17.0641 258.409 17.2502 258.648C18.3134 260.19 19.4829 261.679 20.679 263.114C20.8916 263.353 20.8384 263.699 20.5992 263.911C20.4929 264.018 20.36 264.071 20.2271 264.071ZM130.906 253.279C130.826 253.279 130.72 253.253 130.64 253.2C130.374 253.04 130.268 252.695 130.427 252.429C131.331 250.781 132.181 249.08 132.926 247.379C133.059 247.086 133.377 246.953 133.67 247.086C133.962 247.219 134.095 247.538 133.962 247.83C133.191 249.558 132.341 251.286 131.411 252.96C131.278 253.173 131.092 253.279 130.906 253.279ZM12.5987 252.774C12.386 252.774 12.2 252.668 12.0937 252.482C11.19 250.807 10.3394 249.08 9.59516 247.325C9.46226 247.033 9.59516 246.714 9.88754 246.581C10.1799 246.448 10.4989 246.581 10.6318 246.874C11.376 248.601 12.2 250.302 13.1037 251.95C13.2632 252.216 13.1569 252.562 12.8645 252.721C12.7582 252.774 12.6784 252.774 12.5987 252.774ZM136.222 240.734C136.168 240.734 136.115 240.734 136.062 240.707C135.77 240.627 135.584 240.308 135.69 239.989C136.248 238.209 136.727 236.375 137.125 234.541C137.205 234.248 137.497 234.036 137.79 234.115C138.082 234.195 138.295 234.487 138.215 234.78C137.816 236.64 137.311 238.501 136.753 240.335C136.7 240.574 136.461 240.734 136.222 240.734ZM7.38904 240.202C7.14982 240.202 6.9106 240.043 6.85744 239.803C6.32584 237.996 5.84741 236.109 5.44871 234.248C5.39555 233.929 5.58161 233.637 5.87399 233.584C6.19294 233.53 6.48532 233.717 6.53848 234.009C6.93718 235.843 7.38904 237.677 7.92063 239.484C8.00037 239.777 7.84089 240.096 7.54852 240.175C7.49536 240.202 7.4422 240.202 7.38904 240.202ZM138.933 227.364C138.906 227.364 138.906 227.364 138.88 227.364C138.561 227.337 138.348 227.045 138.374 226.753C138.561 224.892 138.667 223.005 138.693 221.118C138.693 220.799 138.959 220.56 139.278 220.56C139.597 220.56 139.836 220.825 139.836 221.144C139.81 223.058 139.703 224.972 139.517 226.859C139.464 227.151 139.225 227.364 138.933 227.364ZM4.81079 226.806C4.51841 226.806 4.27919 226.593 4.25261 226.301C4.09314 224.414 3.98682 222.473 3.98682 220.586C3.98682 220.267 4.22604 220.028 4.54499 220.028C4.86395 220.028 5.10317 220.267 5.10317 220.586C5.10317 222.447 5.20949 224.36 5.36897 226.221C5.39555 226.54 5.15633 226.806 4.86395 226.832C4.83737 226.806 4.81079 226.806 4.81079 226.806ZM138.853 213.755C138.561 213.755 138.321 213.542 138.295 213.25C138.109 211.389 137.816 209.529 137.471 207.668L137.444 207.589C137.391 207.27 137.577 206.977 137.896 206.924C138.215 206.871 138.507 207.057 138.561 207.376L138.587 207.456C138.959 209.343 139.225 211.23 139.438 213.117C139.464 213.436 139.252 213.702 138.933 213.729C138.906 213.755 138.88 213.755 138.853 213.755ZM4.97027 213.197C4.94369 213.197 4.91711 213.197 4.91711 213.197C4.59815 213.17 4.38551 212.878 4.41209 212.559C4.62473 210.672 4.91711 208.758 5.31581 206.898C5.36897 206.579 5.68793 206.392 5.9803 206.446C6.29926 206.499 6.48532 206.818 6.43216 207.11C6.06004 208.944 5.76767 210.831 5.55503 212.692C5.47529 212.984 5.23607 213.197 4.97027 213.197ZM136.035 200.332C135.796 200.332 135.584 200.173 135.504 199.934C134.946 198.153 134.281 196.372 133.564 194.644C133.457 194.352 133.59 194.033 133.883 193.9C134.175 193.794 134.494 193.927 134.627 194.219C135.344 195.973 136.009 197.781 136.594 199.615C136.7 199.907 136.514 200.226 136.222 200.332C136.168 200.332 136.089 200.332 136.035 200.332ZM7.86747 199.88C7.81431 199.88 7.76115 199.88 7.68141 199.854C7.38904 199.748 7.22956 199.429 7.3093 199.136C7.89405 197.329 8.58513 195.521 9.32936 193.767C9.46226 193.475 9.78122 193.342 10.0736 193.475C10.366 193.608 10.4989 193.927 10.366 194.219C9.62174 195.947 8.95725 197.727 8.37249 199.508C8.31933 199.721 8.10669 199.88 7.86747 199.88ZM130.613 187.84C130.427 187.84 130.214 187.733 130.108 187.547C129.204 185.926 128.194 184.305 127.131 182.763C126.945 182.497 127.025 182.152 127.291 181.966C127.557 181.78 127.902 181.859 128.088 182.125C129.151 183.693 130.161 185.341 131.092 186.989C131.251 187.255 131.145 187.601 130.879 187.76C130.799 187.813 130.719 187.84 130.613 187.84ZM13.3961 187.414C13.2898 187.414 13.21 187.388 13.1037 187.335C12.8379 187.175 12.7316 186.83 12.8911 186.564C13.8479 184.916 14.858 183.268 15.9477 181.7C16.1338 181.434 16.4793 181.381 16.7451 181.567C17.0109 181.753 17.0641 182.099 16.878 182.364C15.8148 183.906 14.8048 185.501 13.8745 187.149C13.7948 187.308 13.6087 187.414 13.3961 187.414ZM122.772 176.703C122.613 176.703 122.453 176.65 122.347 176.517C121.124 175.108 119.822 173.726 118.466 172.423C118.254 172.211 118.227 171.839 118.466 171.626C118.679 171.413 119.051 171.387 119.264 171.626C120.619 172.955 121.948 174.364 123.197 175.799C123.41 176.038 123.383 176.384 123.144 176.597C123.038 176.65 122.905 176.703 122.772 176.703ZM21.3169 176.331C21.184 176.331 21.0511 176.278 20.9448 176.198C20.7055 175.985 20.679 175.64 20.8916 175.4C22.1408 173.965 23.4698 172.583 24.852 171.254C25.0646 171.041 25.4367 171.041 25.6494 171.281C25.862 171.493 25.862 171.865 25.6228 172.078C24.2672 173.38 22.9648 174.736 21.7156 176.145C21.6358 176.278 21.4764 176.331 21.3169 176.331ZM112.858 167.373C112.725 167.373 112.619 167.347 112.512 167.267C111.024 166.124 109.482 165.034 107.887 164.024C107.622 163.865 107.542 163.493 107.728 163.253C107.887 162.988 108.233 162.908 108.499 163.094C110.094 164.131 111.688 165.22 113.203 166.39C113.443 166.576 113.496 166.948 113.31 167.187C113.177 167.294 113.017 167.373 112.858 167.373ZM31.3109 167.054C31.1514 167.054 30.9654 166.975 30.859 166.842C30.673 166.602 30.7261 166.23 30.9654 166.044C32.4804 164.901 34.0752 163.812 35.67 162.775C35.9358 162.616 36.2813 162.695 36.4408 162.961C36.6003 163.227 36.5205 163.572 36.2547 163.732C34.66 164.742 33.1183 165.805 31.6299 166.948C31.5501 167.028 31.4172 167.054 31.3109 167.054ZM101.242 160.223C101.163 160.223 101.083 160.197 101.003 160.17C99.3287 159.346 97.5744 158.602 95.8202 157.911C95.5278 157.805 95.3949 157.459 95.5012 157.167C95.6075 156.874 95.9531 156.741 96.2455 156.848C98.0263 157.539 99.7806 158.31 101.508 159.134C101.801 159.266 101.907 159.612 101.774 159.878C101.668 160.117 101.455 160.223 101.242 160.223ZM42.9529 159.984C42.7402 159.984 42.5276 159.878 42.4478 159.665C42.3149 159.373 42.4213 159.054 42.7136 158.921C44.4413 158.097 46.1956 157.353 48.003 156.688C48.2954 156.582 48.6144 156.715 48.7207 157.007C48.827 157.3 48.6941 157.619 48.4017 157.725C46.6475 158.389 44.8932 159.134 43.2187 159.931C43.1123 159.984 43.0326 159.984 42.9529 159.984ZM88.4576 155.545C88.4044 155.545 88.3512 155.545 88.3247 155.519C86.5172 155.067 84.6566 154.668 82.7961 154.349C82.4771 154.296 82.291 154.004 82.3176 153.711C82.3708 153.392 82.6631 153.206 82.9555 153.233C84.8427 153.552 86.7299 153.951 88.5639 154.402C88.8563 154.482 89.0423 154.774 88.9626 155.093C88.936 155.359 88.6968 155.545 88.4576 155.545ZM55.7909 155.439C55.5251 155.439 55.3125 155.253 55.2328 155.014C55.153 154.721 55.3391 154.402 55.658 154.323C56.7744 154.057 57.9439 153.791 59.0868 153.578C59.8045 153.445 60.5487 153.313 61.293 153.18C61.6119 153.127 61.9043 153.339 61.9309 153.658C61.984 153.977 61.7714 154.269 61.4524 154.296C60.7348 154.402 59.9905 154.535 59.2729 154.668C58.1565 154.881 57.0136 155.12 55.9238 155.412C55.8707 155.439 55.8441 155.439 55.7909 155.439ZM74.9816 153.552C74.955 153.552 74.955 153.552 74.9816 153.552C73.9715 153.499 72.9615 153.472 71.9781 153.472C71.1009 153.472 70.1972 153.499 69.3201 153.525C69.0011 153.552 68.7353 153.286 68.7353 152.994C68.7353 152.675 68.9745 152.409 69.2669 152.409C70.1706 152.382 71.0743 152.356 71.9515 152.356C72.9615 152.356 73.9715 152.382 74.9816 152.435C75.3005 152.462 75.5397 152.701 75.5132 153.02C75.5132 153.313 75.274 153.552 74.9816 153.552Z" fill="#DEDEDE"/>
<path d="M278.929 236.693C278.61 236.72 278.291 236.747 277.945 236.747C277.626 236.773 277.361 236.534 277.361 236.215C277.334 235.896 277.573 235.63 277.892 235.63C279.753 235.524 281.613 235.364 283.447 235.178C283.766 235.152 284.032 235.364 284.059 235.683C284.085 236.002 283.873 236.268 283.554 236.295C282.012 236.454 280.47 236.587 278.929 236.693ZM270.104 236.933C270.078 236.933 270.078 236.933 270.051 236.933C268.19 236.906 266.277 236.853 264.416 236.747C264.097 236.72 263.858 236.454 263.885 236.162C263.911 235.843 264.177 235.604 264.469 235.63C266.33 235.737 268.19 235.79 270.051 235.816C270.37 235.816 270.609 236.082 270.609 236.374C270.609 236.667 270.397 236.906 270.104 236.933ZM291.315 235.232C291.023 235.258 290.783 235.046 290.73 234.753C290.677 234.434 290.89 234.142 291.182 234.089C293.016 233.77 294.85 233.424 296.657 233.025C296.95 232.946 297.269 233.158 297.322 233.451C297.402 233.743 297.189 234.062 296.897 234.115C295.063 234.514 293.202 234.886 291.368 235.205C291.368 235.232 291.342 235.232 291.315 235.232ZM256.681 236.029C256.655 236.029 256.602 236.029 256.575 236.029C254.715 235.79 252.854 235.524 250.993 235.205C250.674 235.152 250.488 234.859 250.541 234.54C250.595 234.222 250.887 234.035 251.206 234.089C253.04 234.408 254.901 234.673 256.735 234.913C257.054 234.939 257.266 235.232 257.213 235.551C257.16 235.816 256.921 236.002 256.681 236.029ZM304.445 232.228C304.18 232.255 303.94 232.069 303.861 231.829C303.781 231.537 303.94 231.218 304.259 231.138C306.04 230.633 307.821 230.048 309.575 229.464C309.868 229.357 310.187 229.517 310.293 229.809C310.399 230.102 310.24 230.421 309.947 230.527C308.167 231.138 306.359 231.696 304.578 232.228C304.525 232.201 304.472 232.228 304.445 232.228ZM243.418 233.584C243.365 233.584 243.312 233.584 243.259 233.557C241.451 233.105 239.617 232.627 237.81 232.095C237.517 232.015 237.331 231.696 237.438 231.404C237.517 231.112 237.836 230.926 238.129 231.032C239.91 231.564 241.717 232.042 243.524 232.494C243.817 232.574 244.003 232.866 243.95 233.185C243.87 233.398 243.657 233.557 243.418 233.584ZM317.124 227.736C316.885 227.763 316.672 227.63 316.566 227.391C316.433 227.098 316.592 226.779 316.858 226.646C318.559 225.929 320.287 225.158 321.962 224.36C322.254 224.228 322.573 224.334 322.706 224.626C322.839 224.919 322.732 225.238 322.44 225.37C320.765 226.168 319.011 226.939 317.283 227.683C317.257 227.709 317.177 227.736 317.124 227.736ZM230.527 229.623C230.447 229.623 230.367 229.623 230.288 229.597C228.533 228.959 226.779 228.241 225.051 227.497C224.759 227.364 224.626 227.045 224.759 226.753C224.892 226.46 225.211 226.327 225.503 226.46C227.204 227.178 228.959 227.896 230.686 228.533C230.979 228.64 231.138 228.959 231.032 229.251C230.952 229.49 230.766 229.623 230.527 229.623ZM329.191 221.835C328.979 221.862 328.766 221.756 328.66 221.543C328.5 221.277 328.606 220.932 328.872 220.772C330.494 219.868 332.088 218.912 333.657 217.928C333.922 217.769 334.268 217.848 334.427 218.114C334.587 218.38 334.507 218.725 334.241 218.885C332.647 219.868 331.025 220.852 329.404 221.756C329.377 221.809 329.298 221.835 329.191 221.835ZM218.194 224.228C218.087 224.228 218.008 224.228 217.901 224.174C216.227 223.324 214.552 222.42 212.931 221.516C212.665 221.357 212.559 221.011 212.718 220.746C212.878 220.48 213.223 220.373 213.489 220.533C215.111 221.437 216.758 222.34 218.406 223.164C218.672 223.297 218.805 223.643 218.646 223.935C218.566 224.121 218.38 224.228 218.194 224.228ZM340.514 214.579C340.328 214.579 340.142 214.499 340.009 214.34C339.823 214.074 339.876 213.728 340.142 213.542C341.631 212.453 343.146 211.31 344.581 210.167C344.82 209.981 345.192 210.007 345.378 210.247C345.564 210.486 345.538 210.858 345.299 211.044C343.837 212.213 342.322 213.356 340.807 214.446C340.727 214.526 340.621 214.579 340.514 214.579ZM206.552 217.476C206.446 217.476 206.313 217.45 206.206 217.396C204.638 216.36 203.096 215.297 201.581 214.18C201.342 213.994 201.262 213.649 201.449 213.383C201.635 213.144 201.98 213.064 202.246 213.25C203.734 214.34 205.276 215.403 206.844 216.44C207.11 216.599 207.19 216.971 207.004 217.21C206.897 217.37 206.711 217.476 206.552 217.476ZM350.934 206.073C350.774 206.073 350.588 206.02 350.482 205.887C350.269 205.648 350.296 205.303 350.508 205.09C351.864 203.841 353.219 202.538 354.522 201.236C354.734 201.023 355.107 201.023 355.319 201.236C355.532 201.449 355.532 201.821 355.319 202.033C353.99 203.362 352.635 204.665 351.252 205.941C351.199 206.02 351.066 206.073 350.934 206.073ZM195.76 209.449C195.628 209.449 195.468 209.423 195.362 209.316C193.926 208.12 192.491 206.871 191.136 205.595C190.896 205.382 190.896 205.037 191.109 204.798C191.322 204.558 191.667 204.558 191.906 204.771C193.262 206.02 194.671 207.27 196.106 208.466C196.345 208.678 196.372 209.024 196.186 209.263C196.053 209.369 195.893 209.423 195.76 209.449ZM360.343 196.452C360.21 196.452 360.05 196.425 359.944 196.319C359.705 196.106 359.678 195.76 359.891 195.521C361.114 194.113 362.31 192.677 363.453 191.215C363.639 190.976 364.011 190.923 364.25 191.109C364.489 191.295 364.542 191.667 364.356 191.906C363.187 193.368 361.991 194.83 360.768 196.239C360.609 196.372 360.476 196.425 360.343 196.452ZM185.952 200.226C185.793 200.226 185.634 200.173 185.501 200.04C184.225 198.684 182.949 197.276 181.726 195.867C181.514 195.628 181.54 195.282 181.779 195.069C182.019 194.857 182.364 194.883 182.577 195.123C183.8 196.531 185.049 197.913 186.325 199.242C186.537 199.482 186.537 199.827 186.298 200.04C186.192 200.173 186.059 200.226 185.952 200.226ZM368.583 185.82C368.45 185.82 368.343 185.793 368.237 185.713C367.971 185.527 367.918 185.182 368.104 184.916C369.167 183.401 370.177 181.806 371.161 180.238C371.32 179.972 371.666 179.892 371.932 180.052C372.197 180.211 372.277 180.557 372.118 180.823C371.134 182.417 370.098 184.012 369.034 185.554C368.902 185.713 368.742 185.793 368.583 185.82ZM177.234 189.966C177.048 189.966 176.862 189.913 176.756 189.753C175.639 188.265 174.523 186.723 173.46 185.182C173.274 184.916 173.354 184.57 173.619 184.384C173.885 184.198 174.231 184.278 174.417 184.544C175.453 186.085 176.543 187.6 177.66 189.062C177.846 189.302 177.792 189.674 177.553 189.86C177.447 189.94 177.341 189.966 177.234 189.966ZM375.573 174.311C375.467 174.311 375.36 174.284 375.281 174.257C375.015 174.098 374.909 173.779 375.041 173.487C375.919 171.839 376.769 170.164 377.54 168.49C377.673 168.197 378.018 168.091 378.284 168.224C378.577 168.357 378.683 168.702 378.55 168.968C377.753 170.669 376.902 172.344 376.025 174.018C375.945 174.178 375.759 174.284 375.573 174.311ZM169.765 178.803C169.553 178.829 169.34 178.723 169.234 178.537C168.277 176.915 167.373 175.267 166.496 173.62C166.363 173.354 166.469 173.008 166.735 172.849C167.001 172.716 167.347 172.822 167.506 173.088C168.357 174.736 169.287 176.357 170.217 177.952C170.377 178.218 170.297 178.563 170.005 178.723C169.951 178.776 169.845 178.803 169.765 178.803ZM381.208 162.057C381.128 162.057 381.048 162.057 380.969 162.031C380.676 161.924 380.543 161.579 380.65 161.286C381.341 159.559 381.979 157.805 382.564 156.024C382.67 155.731 382.989 155.572 383.281 155.678C383.574 155.784 383.733 156.103 383.627 156.396C383.015 158.177 382.377 159.957 381.686 161.685C381.607 161.924 381.421 162.057 381.208 162.057ZM163.625 166.842C163.386 166.868 163.174 166.735 163.067 166.496C162.296 164.795 161.579 163.041 160.914 161.286C160.808 160.994 160.941 160.675 161.233 160.542C161.526 160.436 161.845 160.569 161.977 160.861C162.642 162.589 163.36 164.317 164.104 166.018C164.237 166.31 164.104 166.629 163.811 166.762C163.758 166.815 163.679 166.842 163.625 166.842ZM385.408 149.272C385.354 149.272 385.275 149.272 385.222 149.246C384.929 149.166 384.743 148.847 384.823 148.555C385.301 146.747 385.727 144.94 386.125 143.106C386.178 142.813 386.497 142.601 386.79 142.681C387.082 142.734 387.295 143.053 387.215 143.345C386.816 145.179 386.391 147.013 385.886 148.847C385.859 149.086 385.647 149.246 385.408 149.272ZM158.894 154.243C158.628 154.269 158.389 154.11 158.309 153.844C157.751 152.063 157.22 150.229 156.768 148.422C156.688 148.129 156.874 147.81 157.166 147.731C157.459 147.651 157.778 147.837 157.858 148.129C158.336 149.91 158.841 151.718 159.399 153.499C159.479 153.791 159.319 154.11 159.027 154.216C158.974 154.243 158.947 154.243 158.894 154.243ZM388.092 136.062C388.066 136.062 388.012 136.062 387.986 136.062C387.667 136.009 387.454 135.743 387.507 135.424C387.773 133.59 388.012 131.73 388.172 129.869C388.198 129.55 388.491 129.337 388.783 129.364C389.102 129.391 389.315 129.683 389.288 129.975C389.102 131.836 388.89 133.723 388.624 135.584C388.597 135.85 388.358 136.062 388.092 136.062ZM155.625 141.192C155.332 141.219 155.093 141.006 155.04 140.74C154.695 138.906 154.376 137.046 154.11 135.185C154.057 134.866 154.269 134.6 154.588 134.547C154.907 134.494 155.173 134.707 155.226 135.026C155.492 136.86 155.784 138.72 156.13 140.528C156.183 140.847 155.997 141.139 155.678 141.192C155.678 141.192 155.651 141.192 155.625 141.192ZM389.262 122.666C389.235 122.666 389.235 122.666 389.208 122.666C388.89 122.666 388.65 122.4 388.65 122.081C388.703 120.221 388.703 118.36 388.677 116.499C388.677 116.18 388.916 115.941 389.235 115.915C389.554 115.915 389.793 116.154 389.82 116.473C389.846 118.333 389.846 120.247 389.793 122.108C389.793 122.4 389.554 122.639 389.262 122.666ZM153.844 127.849C153.525 127.876 153.259 127.636 153.233 127.317C153.206 126.866 153.18 126.44 153.153 125.988C153.073 124.553 152.993 123.118 152.94 121.683C152.94 121.364 153.18 121.124 153.498 121.098C153.817 121.098 154.083 121.337 154.083 121.656C154.136 123.065 154.19 124.5 154.269 125.935C154.296 126.361 154.322 126.812 154.349 127.238C154.402 127.557 154.163 127.822 153.844 127.849C153.871 127.849 153.871 127.849 153.844 127.849ZM388.89 109.217C388.571 109.243 388.305 109.004 388.278 108.712C388.119 106.878 387.933 104.99 387.667 103.156L387.64 102.97C387.587 102.651 387.826 102.386 388.119 102.332C388.438 102.279 388.703 102.518 388.757 102.811L388.783 102.997C389.022 104.857 389.235 106.745 389.395 108.605C389.448 108.898 389.235 109.19 388.89 109.217C388.916 109.217 388.916 109.217 388.89 109.217ZM153.605 114.4C153.578 114.4 153.578 114.4 153.552 114.4C153.233 114.4 152.993 114.134 153.02 113.815C153.1 111.954 153.206 110.041 153.366 108.18C153.392 107.861 153.658 107.648 153.977 107.675C154.296 107.702 154.509 107.967 154.482 108.286C154.322 110.12 154.216 112.007 154.136 113.868C154.11 114.134 153.897 114.373 153.605 114.4ZM386.976 95.714C386.71 95.7406 386.444 95.5545 386.391 95.2622C386.019 93.4547 385.62 91.6207 385.168 89.8133C385.089 89.5209 385.275 89.202 385.567 89.1222C385.859 89.0425 386.178 89.2285 386.258 89.5209C386.71 91.3283 387.135 93.1889 387.507 95.0229C387.561 95.3419 387.374 95.6343 387.056 95.6874C387.029 95.6874 387.002 95.6874 386.976 95.714ZM154.881 101.003C154.827 101.003 154.801 101.003 154.748 101.003C154.429 100.95 154.216 100.658 154.269 100.365C154.562 98.5049 154.881 96.6443 155.253 94.8103C155.306 94.4913 155.625 94.3053 155.917 94.3584C156.236 94.4116 156.422 94.7306 156.369 95.0229C155.997 96.8304 155.678 98.691 155.386 100.525C155.359 100.791 155.146 100.977 154.881 101.003ZM383.574 82.6899C383.334 82.7165 383.069 82.557 382.989 82.2912C382.431 80.5369 381.793 78.7561 381.155 77.0284C381.048 76.736 381.181 76.4171 381.474 76.3107C381.766 76.2044 382.085 76.3373 382.191 76.6297C382.856 78.384 383.467 80.1648 384.052 81.9456C384.158 82.238 383.972 82.557 383.68 82.6633C383.68 82.6633 383.627 82.6899 383.574 82.6899ZM157.698 87.8198C157.645 87.8198 157.565 87.8198 157.512 87.7932C157.22 87.7135 157.034 87.3945 157.113 87.1021C157.618 85.2947 158.15 83.4873 158.735 81.7064C158.841 81.4141 159.16 81.2546 159.452 81.3343C159.745 81.4406 159.904 81.7596 159.824 82.052C159.24 83.8062 158.708 85.6137 158.203 87.3945C158.15 87.6337 157.937 87.7932 157.698 87.8198ZM378.736 70.1442C378.497 70.1708 378.284 70.0379 378.178 69.8253C377.407 68.1507 376.583 66.4496 375.732 64.8017C375.6 64.5359 375.706 64.1903 375.972 64.0308C376.238 63.8979 376.583 64.0043 376.743 64.2701C377.593 65.9446 378.417 67.6457 379.188 69.3468C379.321 69.6392 379.188 69.9582 378.896 70.091C378.869 70.1176 378.789 70.1176 378.736 70.1442ZM162.031 75.0349C161.951 75.0349 161.871 75.0349 161.791 74.9817C161.499 74.8754 161.366 74.5299 161.472 74.2375C162.164 72.5098 162.934 70.7555 163.705 69.0544C163.838 68.7621 164.184 68.6557 164.449 68.7886C164.742 68.9215 164.848 69.2671 164.715 69.5329C163.944 71.2074 163.2 72.9351 162.509 74.6628C162.429 74.902 162.243 75.0349 162.031 75.0349ZM372.463 58.2364C372.251 58.2364 372.065 58.1567 371.932 57.9706C370.975 56.3759 369.965 54.8076 368.955 53.266C368.769 53.0002 368.848 52.6547 369.114 52.4686C369.38 52.2826 369.725 52.3623 369.912 52.6281C370.948 54.1697 371.958 55.7911 372.942 57.3859C373.101 57.6517 373.021 57.9972 372.756 58.1567C372.623 58.2099 372.543 58.2364 372.463 58.2364ZM167.772 62.8613C167.666 62.8613 167.559 62.8348 167.453 62.7816C167.187 62.6221 167.081 62.2766 167.214 62.0108C168.117 60.3628 169.048 58.7149 170.031 57.1201C170.191 56.8543 170.536 56.7746 170.802 56.934C171.068 57.0935 171.147 57.439 170.988 57.7048C170.031 59.2996 169.101 60.921 168.197 62.5424C168.117 62.755 167.958 62.8613 167.772 62.8613ZM364.861 47.1261C364.675 47.1261 364.489 47.0729 364.383 46.9134C363.24 45.4515 362.07 43.9897 360.874 42.5809C360.662 42.3417 360.688 41.9962 360.928 41.7835C361.167 41.5709 361.512 41.5975 361.725 41.8367C362.948 43.272 364.117 44.7339 365.26 46.2224C365.446 46.4616 365.393 46.8337 365.154 47.0198C365.101 47.0995 364.994 47.1261 364.861 47.1261ZM174.842 51.4054C174.709 51.4054 174.603 51.3788 174.47 51.2991C174.204 51.113 174.151 50.7675 174.337 50.5017C175.4 48.9601 176.543 47.445 177.686 45.9566C177.872 45.7173 178.244 45.6642 178.484 45.8502C178.723 46.0363 178.776 46.4084 178.59 46.6476C177.447 48.1095 176.331 49.6246 175.267 51.1396C175.161 51.3257 175.002 51.4054 174.842 51.4054ZM356.063 36.9726C355.904 36.9726 355.744 36.9194 355.612 36.8131C354.309 35.4841 352.98 34.1817 351.625 32.9059C351.385 32.6932 351.385 32.3211 351.598 32.1085C351.811 31.8693 352.183 31.8693 352.395 32.0819C353.751 33.3577 355.107 34.6867 356.409 36.0423C356.622 36.2549 356.622 36.627 356.409 36.8397C356.329 36.9194 356.196 36.9726 356.063 36.9726ZM183.188 40.8532C183.055 40.8532 182.896 40.8267 182.789 40.7203C182.55 40.5077 182.524 40.1622 182.736 39.9229C183.986 38.5142 185.261 37.1321 186.564 35.8031C186.776 35.5904 187.149 35.5638 187.361 35.8031C187.574 36.0157 187.6 36.3878 187.361 36.6005C186.059 37.9295 184.783 39.3116 183.56 40.6938C183.481 40.7735 183.321 40.8267 183.188 40.8532ZM346.149 27.8557C346.016 27.8557 345.857 27.8291 345.75 27.7228C344.315 26.5533 342.827 25.3838 341.338 24.294C341.099 24.1079 341.046 23.7624 341.232 23.4966C341.418 23.2574 341.763 23.2042 342.029 23.3903C343.544 24.5066 345.033 25.6761 346.468 26.8722C346.707 27.0583 346.734 27.4304 346.548 27.6696C346.468 27.776 346.309 27.8557 346.149 27.8557ZM192.651 31.2845C192.491 31.2845 192.305 31.2313 192.199 31.0984C191.986 30.8592 192.013 30.5137 192.252 30.301C193.634 29.0518 195.069 27.8291 196.531 26.633C196.77 26.447 197.143 26.4735 197.329 26.7128C197.515 26.952 197.488 27.3241 197.249 27.5102C195.814 28.6797 194.378 29.9023 193.023 31.1516C192.916 31.2313 192.783 31.2845 192.651 31.2845ZM335.278 19.9349C335.172 19.9349 335.039 19.9083 334.932 19.8552C333.364 18.8451 331.769 17.8617 330.175 16.9314C329.909 16.7719 329.803 16.4264 329.962 16.1606C330.122 15.8948 330.467 15.7885 330.733 15.9479C332.354 16.8782 333.976 17.8883 335.544 18.8983C335.81 19.0578 335.889 19.4299 335.703 19.6691C335.624 19.8286 335.464 19.9349 335.278 19.9349ZM203.15 22.8853C202.964 22.8853 202.778 22.8055 202.645 22.646C202.459 22.3803 202.512 22.0347 202.778 21.8487C204.293 20.7589 205.861 19.6957 207.429 18.6857C207.695 18.5262 208.04 18.6059 208.2 18.8451C208.359 19.1109 208.28 19.4565 208.04 19.6159C206.472 20.626 204.93 21.6626 203.415 22.7258C203.362 22.8587 203.256 22.8853 203.15 22.8853ZM323.583 13.2899C323.477 13.2899 323.397 13.2899 323.29 13.2368C321.616 12.4128 319.915 11.6154 318.214 10.8712C317.921 10.7383 317.788 10.4193 317.921 10.1269C318.054 9.83457 318.373 9.70167 318.666 9.83457C320.393 10.5788 322.094 11.3762 323.769 12.2268C324.061 12.3597 324.168 12.7052 324.035 12.9976C323.955 13.1571 323.769 13.2899 323.583 13.2899ZM214.526 15.7353C214.313 15.7619 214.101 15.629 213.994 15.4429C213.835 15.1771 213.941 14.8316 214.207 14.6721C215.855 13.7684 217.529 12.8913 219.204 12.0673C219.496 11.9344 219.815 12.0407 219.948 12.3331C220.081 12.6255 219.975 12.9444 219.682 13.0773C218.008 13.9013 216.36 14.7518 214.738 15.6556C214.712 15.7087 214.606 15.7353 214.526 15.7353ZM311.17 8.02714C311.09 8.02714 311.011 8.02714 310.931 8.00056C309.177 7.36265 307.396 6.77789 305.615 6.24629C305.323 6.16655 305.136 5.84759 305.243 5.52864C305.323 5.23626 305.641 5.0502 305.96 5.15652C307.741 5.7147 309.549 6.29945 311.33 6.93737C311.622 7.04369 311.781 7.36265 311.675 7.65502C311.595 7.86766 311.383 8.00056 311.17 8.02714ZM226.673 9.94089C226.434 9.96747 226.194 9.83457 226.115 9.59535C226.008 9.30297 226.141 8.98402 226.434 8.85112C228.161 8.13346 229.942 7.46896 231.696 6.83105C231.989 6.72473 232.308 6.88421 232.414 7.17659C232.52 7.46896 232.361 7.78792 232.068 7.89424C230.314 8.50558 228.56 9.17007 226.859 9.88773C226.806 9.91431 226.726 9.94089 226.673 9.94089ZM298.252 4.19965C298.199 4.19965 298.146 4.19965 298.093 4.17307C296.285 3.74779 294.451 3.37567 292.617 3.03013C292.298 2.97697 292.112 2.68459 292.165 2.36564C292.219 2.04668 292.511 1.86062 292.83 1.91378C294.664 2.25932 296.525 2.63143 298.359 3.05671C298.651 3.13645 298.864 3.42883 298.784 3.74779C298.704 4.01359 298.491 4.19965 298.252 4.19965ZM239.405 5.55522C239.139 5.5818 238.899 5.39574 238.82 5.15652C238.74 4.86414 238.899 4.54518 239.218 4.46544C241.026 3.96043 242.86 3.48199 244.667 3.08329C244.96 3.00355 245.279 3.21619 245.358 3.50857C245.438 3.80095 245.226 4.11991 244.933 4.19965C243.126 4.62492 241.318 5.07678 239.511 5.5818C239.484 5.55522 239.431 5.55522 239.405 5.55522ZM284.989 1.8872C284.962 1.8872 284.909 1.8872 284.883 1.8872C283.049 1.67456 281.161 1.51508 279.327 1.38218C279.008 1.3556 278.769 1.0898 278.796 0.770847C278.822 0.451889 279.088 0.21267 279.407 0.23925C281.268 0.372149 283.155 0.531628 285.016 0.744267C285.334 0.770847 285.547 1.06322 285.521 1.38218C285.467 1.67456 285.255 1.8872 284.989 1.8872ZM252.535 2.65801C252.243 2.68459 251.977 2.47196 251.95 2.17958C251.897 1.86062 252.11 1.56824 252.429 1.54166C253.572 1.3556 254.741 1.19612 255.911 1.03665C256.602 0.956906 257.319 0.850586 258.01 0.770847C258.329 0.744267 258.595 0.956906 258.648 1.27586C258.675 1.59482 258.462 1.86062 258.143 1.91378C257.452 1.99352 256.761 2.07326 256.07 2.17958C254.927 2.33906 253.758 2.49854 252.615 2.68459C252.588 2.65801 252.562 2.65801 252.535 2.65801ZM271.54 1.14296H271.513C269.652 1.14296 267.792 1.19612 265.931 1.27586C265.612 1.30244 265.346 1.03665 265.346 0.744267C265.32 0.425309 265.559 0.15951 265.878 0.15951C267.739 0.079771 269.652 0.0266113 271.513 0.0266113C271.832 0.0266113 272.071 0.29241 272.071 0.584788C272.071 0.877166 271.832 1.11638 271.54 1.14296Z" fill="#DEDEDE"/>
<path d="M289.766 70.09V264.681H289.261L274.536 250.354L259.784 264.681H258.269L243.518 250.354L228.792 264.681H227.277L212.579 250.381L197.853 264.681H196.365L181.64 250.381L166.914 264.681H165.346L150.621 250.381L135.896 264.681H134.381L119.682 250.408L104.983 264.681H104V16H235.703L289.766 70.09Z" fill="white"/>
<path d="M230 135.5C230 131.364 226.636 128 222.5 128H218.75V116.75C218.75 106.411 210.339 98 200 98C189.661 98 181.25 106.411 181.25 116.75V128H177.5C173.364 128 170 131.364 170 135.5V165.5C170 169.636 173.364 173 177.5 173H222.5C226.636 173 230 169.636 230 165.5V135.5ZM188.75 116.75C188.75 110.547 193.798 105.5 200 105.5C206.202 105.5 211.25 110.547 211.25 116.75V128H188.75V116.75Z" fill="#FF634E"/>
<path d="M290.119 70.3302H236.056V16.2402L290.119 70.3302Z" fill="#DEDEDE"/>
<path d="M195.787 322.068C193.235 324.62 189.089 324.62 186.511 322.068L146.747 282.278L141.697 277.228C145.365 274.809 148.528 271.646 150.974 267.951L195.814 312.792C198.365 315.343 198.365 319.49 195.787 322.068Z" fill="#9C9C9C"/>
<path d="M152.967 269.971L163.333 280.338C160.914 284.006 157.751 287.169 154.057 289.614L148.741 284.298L143.691 279.248C147.385 276.802 150.548 273.639 152.967 269.971Z" fill="#5E5E5E"/>
<path d="M163.307 248.389C163.227 246.714 163.067 245.066 162.775 243.445C161.207 234.248 156.476 226.141 149.751 220.267C142.814 214.233 133.75 210.565 123.835 210.565C102.013 210.565 84.3113 228.268 84.3113 250.09C84.3113 251.605 84.391 253.093 84.5505 254.555C85.0555 259.153 86.3845 263.512 88.3248 267.499C91.1423 273.214 95.2888 278.158 100.392 281.906C101.216 282.517 102.067 283.102 102.944 283.633C109.004 287.408 116.154 289.587 123.835 289.587C132.394 289.587 140.288 286.876 146.774 282.251C150.362 279.7 153.499 276.563 156.05 272.975C158.602 269.387 160.595 265.347 161.845 260.987C162.855 257.505 163.386 253.837 163.386 250.063C163.333 249.505 163.333 248.947 163.307 248.389ZM123.835 282.57C116.739 282.57 110.147 280.284 104.804 276.404C99.6213 272.656 95.5811 267.393 93.3218 261.253C92.046 257.771 91.3549 253.997 91.3549 250.063C91.3549 248.575 91.4612 247.139 91.6473 245.704C93.2687 233.663 101.482 223.696 112.539 219.603C116.048 218.3 119.875 217.583 123.835 217.583C125.271 217.583 126.68 217.662 128.062 217.848C134.653 218.699 140.607 221.543 145.339 225.716C152.063 231.67 156.289 240.361 156.289 250.063C156.289 250.568 156.289 251.047 156.263 251.552C156.157 253.944 155.784 256.256 155.2 258.489C154.296 261.891 152.834 265.081 150.947 267.951C148.528 271.619 145.365 274.782 141.671 277.228C140.767 277.812 139.837 278.371 138.88 278.876C136.833 279.965 134.627 280.816 132.341 281.427C129.63 282.172 126.786 282.57 123.835 282.57Z" fill="#B8B8B8"/>
<path d="M99.2225 253.651C97.548 253.651 96.1924 252.296 96.1924 250.621C96.1924 243.099 99.1162 236.029 104.432 230.686C109.748 225.37 116.818 222.447 124.367 222.447C126.042 222.447 127.397 223.802 127.397 225.477C127.397 227.151 126.042 228.507 124.367 228.507C118.466 228.507 112.911 230.819 108.738 234.992C104.565 239.165 102.253 244.72 102.253 250.621C102.253 252.296 100.897 253.651 99.2225 253.651Z" fill="white"/>
</g>
<defs>
<clipPath id="clip0">
<rect width="400" height="323.982" fill="white"/>
</clipPath>
</defs>
</svg>
