<svg width="81" height="82" viewBox="0 0 81 82" fill="none" xmlns="http://www.w3.org/2000/svg">
<path d="M40.0001 11.4286V1.2L52.1334 13.3334H42.2223C41.6329 13.3334 41.0677 13.1327 40.6509 12.7755C40.2342 12.4182 40.0001 11.9338 40.0001 11.4286ZM42.2223 17.1429C40.4542 17.1429 38.7585 16.5408 37.5082 15.4692C36.258 14.3976 35.5556 12.9441 35.5556 11.4286V0H6.66668C4.89856 0 3.20287 0.60204 1.95262 1.67368C0.70238 2.74532 0 4.19877 0 5.71429V47.6191C0 49.1346 0.70238 50.5881 1.95262 51.6597C3.20287 52.7314 4.89856 53.3334 6.66668 53.3334H46.6667C48.4348 53.3334 50.1305 52.7314 51.3808 51.6597C52.631 50.5881 53.3334 49.1346 53.3334 47.6191V17.1429H42.2223Z" fill="#DBDDE0"/>
<circle cx="51.4284" cy="51.4279" r="28.5715" fill="white"/>
<g filter="url(#filter0_d_4315_86901)">
<circle cx="51.4284" cy="51.4309" r="24.7619" fill="#D44333"/>
</g>
<path d="M54.7159 51.4366L61.0708 45.0818C61.9773 44.1752 61.9773 42.7055 61.0708 41.799C60.1642 40.8925 58.6946 40.8925 57.7881 41.799L51.4332 48.1539L45.0783 41.799C44.1718 40.8925 42.7021 40.8925 41.7956 41.799C40.8891 42.7055 40.8891 44.1752 41.7956 45.0818L48.1505 51.4366L41.7956 57.7915C40.8891 58.698 40.8891 60.1677 41.7956 61.0742C42.2489 61.5274 42.8429 61.7541 43.4369 61.7541C44.031 61.7541 44.6251 61.5275 45.0783 61.0742L51.4332 54.7194L57.7881 61.0742C58.2413 61.5274 58.8354 61.7541 59.4294 61.7541C60.0234 61.7541 60.6175 61.5275 61.0707 61.0742C61.9773 60.1677 61.9773 58.698 61.0707 57.7915L54.7159 51.4366Z" fill="white"/>
<defs>
<filter id="filter0_d_4315_86901" x="22.6665" y="23.669" width="57.5239" height="57.5239" filterUnits="userSpaceOnUse" color-interpolation-filters="sRGB">
<feFlood flood-opacity="0" result="BackgroundImageFix"/>
<feColorMatrix in="SourceAlpha" type="matrix" values="0 0 0 0 0 0 0 0 0 0 0 0 0 0 0 0 0 0 127 0" result="hardAlpha"/>
<feOffset dy="1"/>
<feGaussianBlur stdDeviation="2"/>
<feComposite in2="hardAlpha" operator="out"/>
<feColorMatrix type="matrix" values="0 0 0 0 0 0 0 0 0 0 0 0 0 0 0 0 0 0 0.04 0"/>
<feBlend mode="normal" in2="BackgroundImageFix" result="effect1_dropShadow_4315_86901"/>
<feBlend mode="normal" in="SourceGraphic" in2="effect1_dropShadow_4315_86901" result="shape"/>
</filter>
</defs>
</svg>
