<svg xmlns="http://www.w3.org/2000/svg" width="14.533" height="8.5" viewBox="0 0 14.533 8.5">
  <g id="next" transform="translate(13.881 -33.375)">
    <g id="Group_54053" data-name="Group 54053" transform="translate(-13.631 37.281)">
      <g id="Group_54052" data-name="Group 54052">
        <path id="Path_736" data-name="Path 736" d="M13.366,235.408H.565c-.312,0-.565.154-.565.345s.253.345.565.345h12.8c.312,0,.565-.154.565-.345S13.678,235.408,13.366,235.408Z" transform="translate(0 -235.408)" fill="#fff" stroke="#fff" stroke-width="0.5"/>
      </g>
    </g>
    <g id="Group_54055" data-name="Group 54055" transform="translate(-3.696 33.625)">
      <g id="Group_54054" data-name="Group 54054" transform="translate(0 0)">
        <path id="Path_737" data-name="Path 737" d="M273,37.363l-3.376-3.63a.328.328,0,0,0-.487,0,.39.39,0,0,0,0,.524l3.133,3.368-3.133,3.368a.39.39,0,0,0,0,.524.328.328,0,0,0,.487,0L273,37.887A.39.39,0,0,0,273,37.363Z" transform="translate(-269.04 -33.625)" fill="#fff" stroke="#fff" stroke-width="0.5"/>
      </g>
    </g>
  </g>
</svg>
