<svg
    width="12"
    height="10"
    viewBox="0 0 12 10"
    fill="none"
    xmlns="http://www.w3.org/2000/svg"
>
    <path
    d="M6.26174 8.46756L9.73378 4.99552L6.26174 1.52349C5.91275 1.1745 5.91275 0.610738 6.26174 0.261745C6.61074 -0.0872482 7.1745 -0.0872482 7.52349 0.261745L11.6309 4.36913C11.9799 4.71812 11.9799 5.28188 11.6309 5.63088L7.52349 9.73826C7.1745 10.0872 6.61074 10.0872 6.26174 9.73826C5.9217 9.38926 5.91275 8.81656 6.26174 8.46756Z"
    fill="#1580FC"
    />
    <path
    d="M0.916667 4H10.0833C10.5875 4 11 4.4125 11 4.91667C11 5.42083 10.5875 5.83333 10.0833 5.83333H0.916667C0.4125 5.83333 0 5.42083 0 4.91667C0 4.4125 0.4125 4 0.916667 4Z"
    fill="#1580FC"
    />
</svg>