<svg xmlns="http://www.w3.org/2000/svg" width="14.533" height="8.5" viewBox="0 0 14.533 8.5">
  <g id="next" transform="translate(0.283 0.25)">
    <g id="Group_54053" data-name="Group 54053" transform="translate(0.069 3.655)">
      <g id="Group_54052" data-name="Group 54052">
        <path id="Path_736" data-name="Path 736" d="M.565,235.408h12.8c.312,0,.565.154.565.345s-.253.345-.565.345H.565c-.312,0-.565-.154-.565-.345S.253,235.408.565,235.408Z" transform="translate(0 -235.408)" fill="#fff" stroke="#fff" stroke-width="0.5"/>
      </g>
    </g>
    <g id="Group_54055" data-name="Group 54055" transform="translate(0)">
      <g id="Group_54054" data-name="Group 54054" transform="translate(0 0)">
        <path id="Path_737" data-name="Path 737" d="M269.141,37.363l3.376-3.63a.328.328,0,0,1,.487,0,.39.39,0,0,1,0,.524l-3.133,3.368L273,40.993a.39.39,0,0,1,0,.524.328.328,0,0,1-.487,0l-3.376-3.63A.39.39,0,0,1,269.141,37.363Z" transform="translate(-269.04 -33.625)" fill="#fff" stroke="#fff" stroke-width="0.5"/>
      </g>
    </g>
  </g>
</svg>
