<svg width="24" height="24" viewBox="0 0 24 24" fill="none" xmlns="http://www.w3.org/2000/svg">
<path fill-rule="evenodd" clip-rule="evenodd" d="M16.072 3.76905C15.3677 3.76905 14.6923 4.04884 14.1942 4.54686L6.06529 12.6758C5.23531 13.5058 4.76904 14.6315 4.76904 15.8052C4.76904 16.979 5.23531 18.1047 6.06529 18.9346C6.89526 19.7646 8.02094 20.2309 9.1947 20.2309C10.3685 20.2309 11.4941 19.7646 12.3241 18.9346L20.4531 10.8057C20.7985 10.4603 21.3586 10.4603 21.704 10.8057C22.0494 11.1511 22.0494 11.7112 21.704 12.0566L13.5751 20.1856C12.4133 21.3473 10.8377 22 9.1947 22C7.55175 22 5.97609 21.3473 4.81435 20.1856C3.65261 19.0238 2.99995 17.4482 2.99995 15.8052C2.99995 14.1623 3.65261 12.5866 4.81435 11.4249L12.9433 3.29593C13.7731 2.46614 14.8985 1.99997 16.072 1.99997C17.2455 1.99997 18.371 2.46614 19.2007 3.29593C20.0305 4.12572 20.4967 5.25115 20.4967 6.42465C20.4967 7.59815 20.0305 8.72358 19.2007 9.55337L11.063 17.6823C10.5651 18.1802 9.8899 18.4598 9.18586 18.4598C8.48181 18.4598 7.8066 18.1802 7.30876 17.6823C6.81093 17.1845 6.53125 16.5093 6.53125 15.8052C6.53125 15.1012 6.81093 14.426 7.30876 13.9281L14.8189 6.42684C15.1645 6.08161 15.7246 6.08194 16.0698 6.42758C16.4151 6.77322 16.4147 7.33328 16.0691 7.67851L8.55969 15.1791C8.39386 15.3451 8.30033 15.5705 8.30033 15.8052C8.30033 16.0401 8.39363 16.2653 8.55969 16.4314C8.72576 16.5975 8.951 16.6907 9.18586 16.6907C9.42071 16.6907 9.64595 16.5975 9.81202 16.4314L17.9498 8.30244C18.4476 7.80445 18.7276 7.1288 18.7276 6.42465C18.7276 5.72034 18.4478 5.04488 17.9498 4.54686C17.4518 4.04884 16.7763 3.76905 16.072 3.76905Z" fill="#0C88FF"/>
</svg>
