<svg width="18" height="18" viewBox="0 0 18 18" fill="currentColor" xmlns="http://www.w3.org/2000/svg">
<path d="M16 0H2C1.47005 0.00158273 0.962265 0.212805 0.587535 0.587535C0.212805 0.962265 0.00158273 1.47005 0 2V16C0.00158273 16.5299 0.212805 17.0377 0.587535 17.4125C0.962265 17.7872 1.47005 17.9984 2 18H16C16.5299 17.9984 17.0377 17.7872 17.4125 17.4125C17.7872 17.0377 17.9984 16.5299 18 16V2C17.9984 1.47005 17.7872 0.962265 17.4125 0.587535C17.0377 0.212805 16.5299 0.00158273 16 0ZM7.71 13.29C7.52264 13.4763 7.26919 13.5808 7.005 13.5808C6.74081 13.5808 6.48736 13.4763 6.3 13.29L2.71 9.7C2.54617 9.5087 2.46057 9.26262 2.47029 9.01095C2.48001 8.75927 2.58434 8.52053 2.76244 8.34244C2.94053 8.16434 3.17927 8.06001 3.43095 8.05029C3.68262 8.04057 3.9287 8.12617 4.12 8.29L7 11.17L13.88 4.29C14.0713 4.12617 14.3174 4.04057 14.5691 4.05029C14.8207 4.06001 15.0595 4.16434 15.2376 4.34244C15.4157 4.52053 15.52 4.75927 15.5297 5.01095C15.5394 5.26262 15.4538 5.5087 15.29 5.7L7.71 13.29Z" fill="currentColor"/>
</svg>
