<svg width="18" height="18" viewBox="0 0 18 18" fill="none" xmlns="http://www.w3.org/2000/svg">
<path d="M2 0H16C16.5304 0 17.0391 0.210714 17.4142 0.585786C17.7893 0.960859 18 1.46957 18 2V16C18 16.5304 17.7893 17.0391 17.4142 17.4142C17.0391 17.7893 16.5304 18 16 18H2C1.46957 18 0.960859 17.7893 0.585786 17.4142C0.210714 17.0391 0 16.5304 0 16V2C0 1.46957 0.210714 0.960859 0.585786 0.585786C0.960859 0.210714 1.46957 0 2 0V0Z" fill="#C2C2C2"/>
<path d="M4 8H14C14.2652 8 14.5196 8.10536 14.7071 8.29289C14.8946 8.48043 15 8.73478 15 9C15 9.26522 14.8946 9.51957 14.7071 9.70711C14.5196 9.89464 14.2652 10 14 10H4C3.73478 10 3.48043 9.89464 3.29289 9.70711C3.10536 9.51957 3 9.26522 3 9C3 8.73478 3.10536 8.48043 3.29289 8.29289C3.48043 8.10536 3.73478 8 4 8Z" fill="white"/>
</svg>
