<svg width="16" height="16" viewBox="0 0 16 16" fill="none" xmlns="http://www.w3.org/2000/svg">
<rect width="16" height="16" rx="8" fill="white" fill-opacity="0.8"/>
<path fill-rule="evenodd" clip-rule="evenodd" d="M5.20505 5.20553C5.36777 5.04282 5.63158 5.04282 5.7943 5.20553L7.99967 7.41091L10.205 5.20553C10.3678 5.04282 10.6316 5.04282 10.7943 5.20553C10.957 5.36825 10.957 5.63207 10.7943 5.79479L8.58893 8.00016L10.7943 10.2055C10.957 10.3683 10.957 10.6321 10.7943 10.7948C10.6316 10.9575 10.3678 10.9575 10.205 10.7948L7.99967 8.58942L5.7943 10.7948C5.63158 10.9575 5.36777 10.9575 5.20505 10.7948C5.04233 10.6321 5.04233 10.3683 5.20505 10.2055L7.41042 8.00016L5.20505 5.79479C5.04233 5.63207 5.04233 5.36825 5.20505 5.20553Z" fill="#0080FF"/>
</svg>
