<svg width="32" height="32" viewBox="0 0 42 42" fill="none" xmlns="http://www.w3.org/2000/svg">
  <circle opacity="0.5" cx="21" cy="21" r="21" fill="#FEFEFE" />
  <path fill-rule="evenodd" clip-rule="evenodd" d="M14.293 14.2936C14.4806 14.1062 14.7349 14.0008 15 14.0008C15.2652 14.0008 15.5195 14.1062 15.707 14.2936L21 19.5869L26.293 14.2936C26.3853 14.1981 26.4956 14.1219 26.6176 14.0695C26.7396 14.0171 26.8709 13.9895 27.0036 13.9884C27.1364 13.9872 27.2681 14.0125 27.391 14.0628C27.5139 14.1131 27.6255 14.1874 27.7194 14.2812C27.8133 14.3751 27.8876 14.4868 27.9379 14.6097C27.9881 14.7326 28.0134 14.8643 28.0123 14.9971C28.0111 15.1299 27.9835 15.2611 27.9311 15.3831C27.8787 15.5051 27.8025 15.6155 27.707 15.7077L22.414 21.001L27.707 26.2942C27.8892 26.4828 27.99 26.7355 27.9877 26.9977C27.9854 27.2599 27.8803 27.5107 27.6949 27.6961C27.5094 27.8815 27.2586 27.9867 26.9964 27.989C26.7342 27.9913 26.4816 27.8905 26.293 27.7083L21 22.415L15.707 27.7083C15.5184 27.8905 15.2658 27.9913 15.0036 27.989C14.7414 27.9867 14.4906 27.8815 14.3052 27.6961C14.1198 27.5107 14.0146 27.2599 14.0124 26.9977C14.0101 26.7355 14.1109 26.4828 14.293 26.2942L19.586 21.001L14.293 15.7077C14.1056 15.5202 14.0002 15.2659 14.0002 15.0007C14.0002 14.7355 14.1056 14.4812 14.293 14.2936Z" fill="white" />
</svg>
