<svg width="22" height="22" viewBox="0 0 22 22" fill="none" xmlns="http://www.w3.org/2000/svg">
<path d="M18.3333 8.25H10.0833C9.07081 8.25 8.25 9.07081 8.25 10.0833V18.3333C8.25 19.3459 9.07081 20.1667 10.0833 20.1667H18.3333C19.3459 20.1667 20.1667 19.3459 20.1667 18.3333V10.0833C20.1667 9.07081 19.3459 8.25 18.3333 8.25Z" stroke="#00CC6A" stroke-width="1.83333" stroke-linecap="round" stroke-linejoin="round"/>
<path d="M4.5835 13.7507H3.66683C3.1806 13.7507 2.71428 13.5575 2.37047 13.2137C2.02665 12.8699 1.8335 12.4035 1.8335 11.9173V3.66732C1.8335 3.18109 2.02665 2.71477 2.37047 2.37096C2.71428 2.02714 3.1806 1.83398 3.66683 1.83398H11.9168C12.4031 1.83398 12.8694 2.02714 13.2132 2.37096C13.557 2.71477 13.7502 3.18109 13.7502 3.66732V4.58398" stroke="#00CC6A" stroke-width="1.83333" stroke-linecap="round" stroke-linejoin="round"/>
<rect x="8" y="9" width="12" height="11" fill="#00CC6A"/>
</svg>
