<svg width="32" height="32" viewBox="0 0 32 32" fill="none" xmlns="http://www.w3.org/2000/svg">
<g filter="url(#filter0_d)">
<path d="M28 15C28 8.37258 22.6274 3 16 3C9.37258 3 4 8.37258 4 15C4 21.6274 9.37258 27 16 27C22.6274 27 28 21.6274 28 15Z" fill="white"/>
</g>
<path d="M18.9463 15.895L18.2618 15.3884C18.2686 15.2857 18.2686 15.183 18.2618 15.0804C18.2755 14.9777 18.2755 14.875 18.2618 14.7723L18.9463 14.2658C19.0011 14.2179 19.0216 14.1357 18.9874 14.0536L18.3645 13.0268C18.3475 12.9909 18.3177 12.9627 18.281 12.9475C18.2444 12.9323 18.2034 12.9313 18.166 12.9446L17.3788 13.2321C17.2213 13.1089 17.0365 13.0063 16.8585 12.9241L16.7422 12.1164C16.7352 12.0834 16.7171 12.0538 16.691 12.0326C16.6648 12.0114 16.6321 11.9999 16.5984 12H15.3936C15.3252 12 15.2499 12.0548 15.2362 12.1301L15.1198 12.9446C14.935 13.0268 14.757 13.1158 14.5927 13.2321L13.8261 12.9241C13.7912 12.911 13.7528 12.9107 13.7177 12.9232C13.6826 12.9357 13.6531 12.9603 13.6344 12.9926L13.0183 14.0536C12.9841 14.1289 12.9978 14.2042 13.0594 14.2521L13.7439 14.7723C13.7234 14.9777 13.7234 15.183 13.7439 15.3884L13.0594 15.895C13.0046 15.9429 12.9841 16.025 13.0183 16.1072L13.6344 17.1339C13.6686 17.2092 13.7508 17.2435 13.8261 17.2161L14.5927 16.908C14.7502 17.0313 14.9282 17.1339 15.113 17.2161L15.2362 18.0238C15.2499 18.0991 15.3252 18.1607 15.3936 18.1402H16.6258C16.6942 18.1402 16.7695 18.0854 16.7764 18.0101L16.8996 17.1955C17.0776 17.1134 17.2487 17.0176 17.413 16.908L18.1865 17.2161C18.255 17.2161 18.3371 17.2161 18.3782 17.1339L18.9942 16.0729C19.0285 16.0045 19.0079 15.9223 18.9463 15.8744V15.895ZM16.0097 16.1072C15.4416 16.1072 14.9829 15.6485 14.9829 15.0804C14.9829 14.5122 15.4416 14.0536 16.0097 14.0536C16.5779 14.0536 17.0365 14.5122 17.0365 15.0804C17.0365 15.6417 16.5847 16.1072 16.0097 16.1072Z" fill="#464646"/>
<path d="M16.3125 8C12.2805 8 9 11.2805 9 15.3125C9 19.3445 12.2805 22.625 16.3125 22.625C20.3445 22.625 23.625 19.3445 23.625 15.3125H22.5C22.5 18.7358 19.7358 21.5 16.3125 21.5C12.8892 21.5 10.125 18.7358 10.125 15.3125C10.125 11.8892 12.8892 9.125 16.3125 9.125C18.4922 9.125 20.3972 10.2412 21.498 11.9375H19.6367V13.0625H23.0625V9.22211H21.9375V10.6543C20.5972 9.03711 18.5735 8 16.3125 8Z" fill="#7A7A7A"/>
<defs>
<filter id="filter0_d" x="0" y="0" width="32" height="32" filterUnits="userSpaceOnUse" color-interpolation-filters="sRGB">
<feFlood flood-opacity="0" result="BackgroundImageFix"/>
<feColorMatrix in="SourceAlpha" type="matrix" values="0 0 0 0 0 0 0 0 0 0 0 0 0 0 0 0 0 0 127 0"/>
<feOffset dy="1"/>
<feGaussianBlur stdDeviation="2"/>
<feColorMatrix type="matrix" values="0 0 0 0 0 0 0 0 0 0 0 0 0 0 0 0 0 0 0.08 0"/>
<feBlend mode="normal" in2="BackgroundImageFix" result="effect1_dropShadow"/>
<feBlend mode="normal" in="SourceGraphic" in2="effect1_dropShadow" result="shape"/>
</filter>
</defs>
</svg>
