<svg width="144" height="127" viewBox="0 0 144 127" fill="none" xmlns="http://www.w3.org/2000/svg">
<g opacity="0.6">
<path d="M3.24219 123H1.27344V111.625H3.24219V123ZM7.27344 114.547L7.32812 115.43C7.92188 114.737 8.73438 114.391 9.76562 114.391C10.8958 114.391 11.6693 114.823 12.0859 115.688C12.7005 114.823 13.5651 114.391 14.6797 114.391C15.612 114.391 16.3047 114.648 16.7578 115.164C17.2161 115.68 17.4505 116.44 17.4609 117.445V123H15.5625V117.5C15.5625 116.964 15.4453 116.57 15.2109 116.32C14.9766 116.07 14.5885 115.945 14.0469 115.945C13.6146 115.945 13.2604 116.062 12.9844 116.297C12.7135 116.526 12.5234 116.828 12.4141 117.203L12.4219 123H10.5234V117.438C10.4974 116.443 9.98958 115.945 9 115.945C8.23958 115.945 7.70052 116.255 7.38281 116.875V123H5.48438V114.547H7.27344ZM24.4609 123C24.3776 122.839 24.3047 122.576 24.2422 122.211C23.638 122.841 22.8984 123.156 22.0234 123.156C21.1745 123.156 20.4818 122.914 19.9453 122.43C19.4089 121.945 19.1406 121.346 19.1406 120.633C19.1406 119.732 19.474 119.042 20.1406 118.562C20.8125 118.078 21.7708 117.836 23.0156 117.836H24.1797V117.281C24.1797 116.844 24.0573 116.495 23.8125 116.234C23.5677 115.969 23.1953 115.836 22.6953 115.836C22.263 115.836 21.9089 115.945 21.6328 116.164C21.3568 116.378 21.2188 116.651 21.2188 116.984H19.3203C19.3203 116.521 19.474 116.089 19.7812 115.688C20.0885 115.281 20.5052 114.964 21.0312 114.734C21.5625 114.505 22.1536 114.391 22.8047 114.391C23.7943 114.391 24.5833 114.641 25.1719 115.141C25.7604 115.635 26.0625 116.333 26.0781 117.234V121.047C26.0781 121.807 26.1849 122.414 26.3984 122.867V123H24.4609ZM22.375 121.633C22.75 121.633 23.1016 121.542 23.4297 121.359C23.763 121.177 24.013 120.932 24.1797 120.625V119.031H23.1562C22.4531 119.031 21.9245 119.154 21.5703 119.398C21.2161 119.643 21.0391 119.99 21.0391 120.438C21.0391 120.802 21.1589 121.094 21.3984 121.312C21.6432 121.526 21.9688 121.633 22.375 121.633ZM27.7344 118.711C27.7344 117.398 28.0417 116.352 28.6562 115.57C29.276 114.784 30.0964 114.391 31.1172 114.391C32.0807 114.391 32.8385 114.727 33.3906 115.398L33.4766 114.547H35.1875V122.742C35.1875 123.852 34.8411 124.727 34.1484 125.367C33.4609 126.008 32.5312 126.328 31.3594 126.328C30.7396 126.328 30.1328 126.198 29.5391 125.938C28.9505 125.682 28.5026 125.346 28.1953 124.93L29.0938 123.789C29.6771 124.482 30.3958 124.828 31.25 124.828C31.8802 124.828 32.3776 124.656 32.7422 124.312C33.1068 123.974 33.2891 123.474 33.2891 122.812V122.242C32.7422 122.852 32.013 123.156 31.1016 123.156C30.112 123.156 29.3021 122.763 28.6719 121.977C28.0469 121.19 27.7344 120.102 27.7344 118.711ZM29.625 118.875C29.625 119.724 29.7969 120.393 30.1406 120.883C30.4896 121.367 30.9714 121.609 31.5859 121.609C32.3516 121.609 32.9193 121.281 33.2891 120.625V116.906C32.9297 116.266 32.3672 115.945 31.6016 115.945C30.9766 115.945 30.4896 116.193 30.1406 116.688C29.7969 117.182 29.625 117.911 29.625 118.875ZM40.8672 123.156C39.6641 123.156 38.6875 122.779 37.9375 122.023C37.1927 121.263 36.8203 120.253 36.8203 118.992V118.758C36.8203 117.914 36.9818 117.161 37.3047 116.5C37.6328 115.833 38.0911 115.315 38.6797 114.945C39.2682 114.576 39.9245 114.391 40.6484 114.391C41.7995 114.391 42.6875 114.758 43.3125 115.492C43.9427 116.227 44.2578 117.266 44.2578 118.609V119.375H38.7344C38.7917 120.073 39.0234 120.625 39.4297 121.031C39.8411 121.438 40.3568 121.641 40.9766 121.641C41.8464 121.641 42.5547 121.289 43.1016 120.586L44.125 121.562C43.7865 122.068 43.3333 122.461 42.7656 122.742C42.2031 123.018 41.5703 123.156 40.8672 123.156ZM40.6406 115.914C40.1198 115.914 39.6979 116.096 39.375 116.461C39.0573 116.826 38.8542 117.333 38.7656 117.984H42.3828V117.844C42.3411 117.208 42.1719 116.729 41.875 116.406C41.5781 116.078 41.1667 115.914 40.6406 115.914ZM58.9297 123H56.9531L51.8828 114.93V123H49.9062V111.625H51.8828L56.9688 119.727V111.625H58.9297V123ZM60.7266 118.695C60.7266 117.867 60.8906 117.122 61.2188 116.461C61.5469 115.794 62.0078 115.284 62.6016 114.93C63.1953 114.57 63.8776 114.391 64.6484 114.391C65.7891 114.391 66.7135 114.758 67.4219 115.492C68.1354 116.227 68.5208 117.201 68.5781 118.414L68.5859 118.859C68.5859 119.693 68.4245 120.438 68.1016 121.094C67.7839 121.75 67.3255 122.258 66.7266 122.617C66.1328 122.977 65.4453 123.156 64.6641 123.156C63.4714 123.156 62.5156 122.76 61.7969 121.969C61.0833 121.172 60.7266 120.112 60.7266 118.789V118.695ZM62.625 118.859C62.625 119.729 62.8047 120.411 63.1641 120.906C63.5234 121.396 64.0234 121.641 64.6641 121.641C65.3047 121.641 65.8021 121.391 66.1562 120.891C66.5156 120.391 66.6953 119.659 66.6953 118.695C66.6953 117.841 66.5104 117.164 66.1406 116.664C65.776 116.164 65.2786 115.914 64.6484 115.914C64.0286 115.914 63.5365 116.161 63.1719 116.656C62.8073 117.146 62.625 117.88 62.625 118.859ZM72.5703 112.492V114.547H74.0625V115.953H72.5703V120.672C72.5703 120.995 72.6328 121.229 72.7578 121.375C72.888 121.516 73.1172 121.586 73.4453 121.586C73.6641 121.586 73.8854 121.56 74.1094 121.508V122.977C73.6771 123.096 73.2604 123.156 72.8594 123.156C71.401 123.156 70.6719 122.352 70.6719 120.742V115.953H69.2812V114.547H70.6719V112.492H72.5703ZM86.0547 120.352H81.6484L80.7266 123H78.6719L82.9688 111.625H84.7422L89.0469 123H86.9844L86.0547 120.352ZM82.2031 118.758H85.5L83.8516 114.039L82.2031 118.758ZM92.75 120.594L94.5391 114.547H96.5L93.5703 123H91.9219L88.9688 114.547H90.9375L92.75 120.594ZM102.617 123C102.534 122.839 102.461 122.576 102.398 122.211C101.794 122.841 101.055 123.156 100.18 123.156C99.3307 123.156 98.638 122.914 98.1016 122.43C97.5651 121.945 97.2969 121.346 97.2969 120.633C97.2969 119.732 97.6302 119.042 98.2969 118.562C98.9688 118.078 99.9271 117.836 101.172 117.836H102.336V117.281C102.336 116.844 102.214 116.495 101.969 116.234C101.724 115.969 101.352 115.836 100.852 115.836C100.419 115.836 100.065 115.945 99.7891 116.164C99.513 116.378 99.375 116.651 99.375 116.984H97.4766C97.4766 116.521 97.6302 116.089 97.9375 115.688C98.2448 115.281 98.6615 114.964 99.1875 114.734C99.7188 114.505 100.31 114.391 100.961 114.391C101.951 114.391 102.74 114.641 103.328 115.141C103.917 115.635 104.219 116.333 104.234 117.234V121.047C104.234 121.807 104.341 122.414 104.555 122.867V123H102.617ZM100.531 121.633C100.906 121.633 101.258 121.542 101.586 121.359C101.919 121.177 102.169 120.932 102.336 120.625V119.031H101.312C100.609 119.031 100.081 119.154 99.7266 119.398C99.3724 119.643 99.1953 119.99 99.1953 120.438C99.1953 120.802 99.3151 121.094 99.5547 121.312C99.7995 121.526 100.125 121.633 100.531 121.633ZM108.242 123H106.344V114.547H108.242V123ZM106.227 112.352C106.227 112.06 106.318 111.818 106.5 111.625C106.688 111.432 106.953 111.336 107.297 111.336C107.641 111.336 107.906 111.432 108.094 111.625C108.281 111.818 108.375 112.06 108.375 112.352C108.375 112.638 108.281 112.878 108.094 113.07C107.906 113.258 107.641 113.352 107.297 113.352C106.953 113.352 106.688 113.258 106.5 113.07C106.318 112.878 106.227 112.638 106.227 112.352ZM112.336 123H110.438V111H112.336V123ZM119.461 123C119.378 122.839 119.305 122.576 119.242 122.211C118.638 122.841 117.898 123.156 117.023 123.156C116.174 123.156 115.482 122.914 114.945 122.43C114.409 121.945 114.141 121.346 114.141 120.633C114.141 119.732 114.474 119.042 115.141 118.562C115.812 118.078 116.771 117.836 118.016 117.836H119.18V117.281C119.18 116.844 119.057 116.495 118.812 116.234C118.568 115.969 118.195 115.836 117.695 115.836C117.263 115.836 116.909 115.945 116.633 116.164C116.357 116.378 116.219 116.651 116.219 116.984H114.32C114.32 116.521 114.474 116.089 114.781 115.688C115.089 115.281 115.505 114.964 116.031 114.734C116.562 114.505 117.154 114.391 117.805 114.391C118.794 114.391 119.583 114.641 120.172 115.141C120.76 115.635 121.062 116.333 121.078 117.234V121.047C121.078 121.807 121.185 122.414 121.398 122.867V123H119.461ZM117.375 121.633C117.75 121.633 118.102 121.542 118.43 121.359C118.763 121.177 119.013 120.932 119.18 120.625V119.031H118.156C117.453 119.031 116.924 119.154 116.57 119.398C116.216 119.643 116.039 119.99 116.039 120.438C116.039 120.802 116.159 121.094 116.398 121.312C116.643 121.526 116.969 121.633 117.375 121.633ZM130.484 118.859C130.484 120.172 130.19 121.216 129.602 121.992C129.018 122.768 128.214 123.156 127.188 123.156C126.198 123.156 125.427 122.799 124.875 122.086L124.781 123H123.062V111H124.961V115.359C125.508 114.714 126.245 114.391 127.172 114.391C128.203 114.391 129.013 114.773 129.602 115.539C130.19 116.305 130.484 117.375 130.484 118.75V118.859ZM128.586 118.695C128.586 117.779 128.424 117.091 128.102 116.633C127.779 116.174 127.31 115.945 126.695 115.945C125.872 115.945 125.294 116.305 124.961 117.023V120.508C125.299 121.242 125.883 121.609 126.711 121.609C127.305 121.609 127.763 121.388 128.086 120.945C128.409 120.503 128.576 119.833 128.586 118.938V118.695ZM134.102 123H132.203V111H134.102V123ZM139.898 123.156C138.695 123.156 137.719 122.779 136.969 122.023C136.224 121.263 135.852 120.253 135.852 118.992V118.758C135.852 117.914 136.013 117.161 136.336 116.5C136.664 115.833 137.122 115.315 137.711 114.945C138.299 114.576 138.956 114.391 139.68 114.391C140.831 114.391 141.719 114.758 142.344 115.492C142.974 116.227 143.289 117.266 143.289 118.609V119.375H137.766C137.823 120.073 138.055 120.625 138.461 121.031C138.872 121.438 139.388 121.641 140.008 121.641C140.878 121.641 141.586 121.289 142.133 120.586L143.156 121.562C142.818 122.068 142.365 122.461 141.797 122.742C141.234 123.018 140.602 123.156 139.898 123.156ZM139.672 115.914C139.151 115.914 138.729 116.096 138.406 116.461C138.089 116.826 137.885 117.333 137.797 117.984H141.414V117.844C141.372 117.208 141.203 116.729 140.906 116.406C140.609 116.078 140.198 115.914 139.672 115.914Z" fill="#9E9E9E"/>
<path d="M96.25 73.5H43.75V63L59.5 36.75L81.0723 63L96.25 52.5V73.5Z" fill="#9E9E9E"/>
<path d="M96.2499 39.3749C96.2492 41.4642 95.4186 43.4676 93.9407 44.9444C92.4629 46.4213 90.4589 47.2506 88.3696 47.2499C86.2804 47.2492 84.2769 46.4186 82.8001 44.9407C81.3232 43.4629 80.4939 41.4589 80.4946 39.3696C80.4953 37.2804 81.326 35.2769 82.8038 33.8001C84.2816 32.3232 86.2856 31.4939 88.3749 31.4946C90.4642 31.4953 92.4676 32.326 93.9444 33.8038C95.4213 35.2816 96.2506 37.2856 96.2499 39.3749Z" fill="#9E9E9E"/>
<path d="M103.29 18.7897C101.468 16.3065 98.9275 13.398 96.1398 10.6102C93.352 7.8225 90.4435 5.2815 87.9602 3.45975C83.7287 0.357 81.676 0 80.5 0H39.8125C36.1953 0 33.25 2.94525 33.25 6.5625V77.4375C33.25 81.0547 36.1953 84 39.8125 84H100.188C103.805 84 106.75 81.0547 106.75 77.4375V26.25C106.75 25.074 106.393 23.0212 103.29 18.7897ZM92.4227 14.3273C94.9427 16.8472 96.9167 19.1152 98.3763 21H85.7447V8.37375C87.6295 9.83325 89.9028 11.8073 92.4175 14.3273H92.4227ZM101.5 77.4375C101.5 78.1515 100.901 78.75 100.188 78.75H39.8125C39.4657 78.7459 39.1342 78.6063 38.8889 78.3611C38.6437 78.1158 38.5041 77.7843 38.5 77.4375V6.5625C38.5 5.85375 39.1037 5.25 39.8125 5.25H80.5V23.625C80.5 24.3212 80.7766 24.9889 81.2688 25.4812C81.7611 25.9734 82.4288 26.25 83.125 26.25H101.5V77.4375Z" fill="#9E9E9E"/>
</g>
</svg>
