<svg width="112" height="112" viewBox="0 0 112 112" fill="none" xmlns="http://www.w3.org/2000/svg">
<path fill-rule="evenodd" clip-rule="evenodd" d="M64.0508 80.213C61.5081 77.758 59.9268 74.3137 59.9268 70.5C59.9268 63.0442 65.9709 57 73.4268 57C74.0737 57 74.7099 57.0455 75.3325 57.1335L64.0508 80.213ZM79.4047 48.8028C77.5011 48.2795 75.4966 48 73.4268 48C61.0004 48 50.9268 58.0736 50.9268 70.5C50.9268 77.8602 54.4608 84.395 59.9246 88.5H25.5527C24.7571 88.5 23.994 88.1839 23.4314 87.6213C22.8688 87.0587 22.5527 86.2956 22.5527 85.5V22.5C22.5527 21.7044 22.8688 20.9413 23.4314 20.3787C23.994 19.8161 24.7571 19.5 25.5527 19.5H65.4317C65.8004 19.5001 66.1621 19.568 66.5 19.6969C66.8913 19.8461 67.3639 20.2241 67.5527 20.379L78.6737 31.5C79.2364 32.0625 79.5526 32.8254 79.5527 33.621V48.5L79.4047 48.8028Z" fill="#F3F5F8"/>
<path d="M68.0527 20.6821L79.1737 31.8031C79.7364 32.3656 80.0526 33.1285 80.0527 33.9241L68.5 33.8031C67.5 33.8031 67 32.8031 67 31.8031V20C67.1013 20.0386 67.208 20.0926 67.3139 20.154C67.6207 20.3297 67.9155 20.5617 68.0527 20.6821Z" fill="#9E9E9E"/>
<path d="M31.5527 64.5H44.5527" stroke="#9E9E9E" stroke-width="3" stroke-linecap="round" stroke-linejoin="round"/>
<path d="M32 51H49" stroke="#9E9E9E" stroke-width="3" stroke-linecap="round" stroke-linejoin="round"/>
<path d="M32.4473 37.5H62.4473" stroke="#9E9E9E" stroke-width="3" stroke-linecap="round" stroke-linejoin="round"/>
<path d="M97.9991 97.0001C97.7364 97.0005 97.4763 96.9489 97.2336 96.8483C96.9909 96.7477 96.7705 96.6002 96.5851 96.4141L85.3121 85.1421C85.1264 84.9563 84.9791 84.7358 84.8787 84.4931C84.7782 84.2505 84.7265 83.9904 84.7266 83.7277C84.7266 83.4651 84.7784 83.205 84.8789 82.9624C84.9795 82.7197 85.1269 82.4993 85.3126 82.3136C85.4984 82.1279 85.7189 81.9806 85.9616 81.8801C86.2042 81.7797 86.4643 81.728 86.727 81.728C86.9896 81.7281 87.2497 81.7799 87.4923 81.8804C87.735 81.981 87.9554 82.1283 88.1411 82.3141L99.4131 93.5861C99.6927 93.8658 99.8831 94.2221 99.9603 94.61C100.037 94.9979 99.9978 95.4 99.8465 95.7654C99.6951 96.1308 99.4389 96.4431 99.11 96.6629C98.7812 96.8827 98.3946 97 97.9991 97.0001Z" fill="#716F6F"/>
<path d="M74 89C83.9411 89 92 80.9411 92 71C92 61.0589 83.9411 53 74 53C64.0589 53 56 61.0589 56 71C56 80.9411 64.0589 89 74 89Z" fill="#FCFCFC"/>
<path d="M74 90C70.2422 90 66.5687 88.8857 63.4442 86.7979C60.3196 84.7102 57.8844 81.7428 56.4463 78.271C55.0082 74.7992 54.632 70.9789 55.3651 67.2933C56.0982 63.6077 57.9078 60.2222 60.565 57.565C63.2222 54.9078 66.6077 53.0982 70.2933 52.3651C73.9789 51.632 77.7992 52.0082 81.271 53.4463C84.7428 54.8844 87.7102 57.3196 89.7979 60.4442C91.8857 63.5687 93 67.2422 93 71C92.9944 76.0374 90.9909 80.8669 87.4289 84.4289C83.8669 87.9909 79.0374 89.9944 74 90ZM74 54C70.6377 54 67.351 54.997 64.5553 56.865C61.7597 58.733 59.5807 61.388 58.2941 64.4944C57.0074 67.6007 56.6707 71.0189 57.3267 74.3165C57.9826 77.6142 59.6017 80.6433 61.9792 83.0208C64.3567 85.3983 67.3858 87.0174 70.6835 87.6734C73.9811 88.3293 77.3993 87.9926 80.5056 86.706C83.612 85.4193 86.267 83.2403 88.135 80.4447C90.003 77.6491 91 74.3623 91 71C90.995 66.4929 89.2023 62.1718 86.0153 58.9847C82.8282 55.7977 78.5071 54.005 74 54Z" fill="#9E9E9E"/>
<path d="M78.6673 66.3335L69.334 75.6668" stroke="#464646" stroke-width="2" stroke-miterlimit="10" stroke-linecap="round" stroke-linejoin="round"/>
<path d="M78.6673 75.6668L69.334 66.3335" stroke="#464646" stroke-width="2" stroke-miterlimit="10" stroke-linecap="round" stroke-linejoin="round"/>
<g opacity="0.8" clip-path="url(#clip0)">
<path d="M101.337 26.4542L96.6581 27.5471" stroke="#9E9E9E" stroke-width="1.6" stroke-miterlimit="10" stroke-linecap="round" stroke-linejoin="round"/>
<path d="M99.5441 29.3402L98.4512 24.6611" stroke="#9E9E9E" stroke-width="1.6" stroke-miterlimit="10" stroke-linecap="round" stroke-linejoin="round"/>
</g>
<g opacity="0.8">
<path d="M9.29588 48.4923L7.18108 53.9848" stroke="#9E9E9E" stroke-width="1.6" stroke-miterlimit="10" stroke-linecap="round" stroke-linejoin="round"/>
<path d="M10.9848 52.2959L5.49219 50.1812" stroke="#9E9E9E" stroke-width="1.6" stroke-miterlimit="10" stroke-linecap="round" stroke-linejoin="round"/>
</g>
<circle cx="14" cy="13" r="2" fill="#C4C4C4"/>
<path d="M61.3987 4.35296C61.35 4.1811 61.2133 4.04831 61.0401 4.0046C60.8669 3.96089 60.6835 4.0129 60.559 4.14104L58.1455 6.62601C58.0211 6.75415 57.9745 6.93895 58.0232 7.11081C58.0719 7.28266 58.2087 7.41545 58.3819 7.45916L61.7407 8.30683C61.9139 8.35054 62.0972 8.29852 62.2217 8.17038C62.3461 8.04224 62.3928 7.85744 62.344 7.68558L61.3987 4.35296Z" stroke="#C4C4C4" stroke-linecap="round" stroke-linejoin="round"/>
<defs>
<clipPath id="clip0">
<rect width="10.1929" height="10.1929" fill="white" transform="translate(97.3594 19.9824) rotate(31.8524)"/>
</clipPath>
</defs>
</svg>
