<svg width="42" height="42" viewBox="0 0 42 42" fill="none" xmlns="http://www.w3.org/2000/svg">
<path d="M21 42C32.598 42 42 32.598 42 21C42 9.40202 32.598 0 21 0C9.40202 0 0 9.40202 0 21C0 32.598 9.40202 42 21 42Z" fill="#FF9800"/>
<path fill-rule="evenodd" clip-rule="evenodd" d="M30.6 21C30.6 26.3019 26.3019 30.6 21 30.6C15.6981 30.6 11.4 26.3019 11.4 21C11.4 15.6981 15.6981 11.4 21 11.4C22.9426 11.4 24.7505 11.977 26.2615 12.969C26.3734 12.4958 26.6313 12.0792 26.9851 11.7692C25.2626 10.6501 23.2072 10 21 10C14.9249 10 10 14.9249 10 21C10 27.0751 14.9249 32 21 32C27.0751 32 32 27.0751 32 21C32 18.7927 31.3499 16.7373 30.2307 15.0148C29.9208 15.3686 29.5041 15.6265 29.0309 15.7384C30.023 17.2494 30.6 19.0573 30.6 21ZM27 13.5055C27.5512 13.9474 28.0525 14.4488 28.4944 14.9999C28.4962 14.9999 28.4981 15 28.5 15C29.0209 15 29.4798 14.7344 29.7487 14.3312C29.1513 13.5487 28.4512 12.8486 27.6687 12.2512C27.2655 12.5201 27 12.979 27 13.5C27 13.5018 27 13.5037 27 13.5055Z" fill="white"/>
<circle cx="28.5" cy="13.5" r="1.5" fill="white"/>
<path d="M25.7715 23.78L23.637 22.5C22.932 23.1205 22.0105 23.5 21 23.5C19.9895 23.5 19.068 23.1205 18.363 22.5L16.2285 23.78C15.779 24.0495 15.5 24.542 15.5 25.066C15.5 26.1341 16.3659 27 17.434 27H24.566C25.6341 27 26.5 26.1341 26.5 25.066C26.5 24.542 26.221 24.0495 25.7715 23.78Z" fill="white"/>
<path d="M21 22.5C19.343 22.5 18 21.157 18 19.5V18C18 16.343 19.343 15 21 15C22.657 15 24 16.343 24 18V19.5C24 21.157 22.657 22.5 21 22.5Z" fill="white"/>
</svg>
