<svg width="42" height="42" viewBox="0 0 42 42" fill="none" xmlns="http://www.w3.org/2000/svg">
<path d="M21 42C32.598 42 42 32.598 42 21C42 9.40202 32.598 0 21 0C9.40202 0 0 9.40202 0 21C0 32.598 9.40202 42 21 42Z" fill="#FF9800"/>
<path d="M18.5833 15.2C17.9141 15.2 17.26 15.3984 16.7036 15.7701C16.1472 16.1419 15.7136 16.6703 15.4575 17.2885C15.2014 17.9068 15.1344 18.587 15.265 19.2433C15.3955 19.8996 15.7177 20.5025 16.1909 20.9757C16.6641 21.4488 17.2669 21.7711 17.9232 21.9016C18.5795 22.0322 19.2598 21.9652 19.878 21.7091C20.4963 21.453 21.0247 21.0193 21.3964 20.463C21.7682 19.9066 21.9666 19.2524 21.9666 18.5833C21.9656 17.6863 21.6088 16.8263 20.9745 16.192C20.3403 15.5578 19.4803 15.201 18.5833 15.2V15.2ZM19.8917 17.9583L17.9583 19.8917C17.8672 19.9797 17.7451 20.0284 17.6184 20.0273C17.4916 20.0262 17.3704 19.9754 17.2808 19.8858C17.1912 19.7962 17.1403 19.6749 17.1392 19.5482C17.1381 19.4215 17.1869 19.2994 17.2749 19.2082L19.2082 17.2749C19.2528 17.2287 19.3062 17.1919 19.3651 17.1666C19.4241 17.1413 19.4875 17.1279 19.5517 17.1274C19.6159 17.1268 19.6795 17.139 19.7389 17.1633C19.7983 17.1876 19.8523 17.2235 19.8977 17.2689C19.943 17.3143 19.9789 17.3683 20.0032 17.4277C20.0275 17.4871 20.0398 17.5507 20.0392 17.6149C20.0386 17.6791 20.0253 17.7425 20 17.8014C19.9747 17.8604 19.9378 17.9137 19.8917 17.9583Z" fill="white"/>
<path d="M26.3166 18.0999H22.9048C22.9233 18.2603 22.9328 18.4217 22.9333 18.5832C22.934 19.4831 22.6553 20.3611 22.1357 21.096C21.6162 21.8308 20.8813 22.3862 20.0326 22.6856C19.1839 22.985 18.2632 23.0136 17.3976 22.7674C16.5319 22.5212 15.7641 22.0123 15.2 21.3111V24.8665C15.2 25.3793 15.4036 25.871 15.7662 26.2336C16.1288 26.5962 16.6205 26.7999 17.1333 26.7999H26.3166C26.4448 26.7999 26.5677 26.7489 26.6584 26.6583C26.749 26.5676 26.7999 26.4447 26.7999 26.3165V18.5832C26.7999 18.455 26.749 18.3321 26.6584 18.2414C26.5677 18.1508 26.4448 18.0999 26.3166 18.0999ZM23.9 23.4165C23.7088 23.4165 23.5219 23.3598 23.3629 23.2536C23.2039 23.1474 23.08 22.9964 23.0069 22.8198C22.9337 22.6431 22.9146 22.4488 22.9519 22.2613C22.9892 22.0738 23.0812 21.9015 23.2164 21.7663C23.3516 21.6311 23.5238 21.5391 23.7114 21.5018C23.8989 21.4645 24.0932 21.4836 24.2699 21.5568C24.4465 21.6299 24.5975 21.7538 24.7037 21.9128C24.8099 22.0718 24.8666 22.2587 24.8666 22.4499C24.8666 22.7062 24.7648 22.9521 24.5835 23.1334C24.4022 23.3147 24.1563 23.4165 23.9 23.4165Z" fill="white"/>
<path fill-rule="evenodd" clip-rule="evenodd" d="M30.6 21C30.6 26.3019 26.3019 30.6 21 30.6C15.6981 30.6 11.4 26.3019 11.4 21C11.4 15.6981 15.6981 11.4 21 11.4C22.9426 11.4 24.7505 11.977 26.2615 12.969C26.3734 12.4958 26.6313 12.0792 26.9851 11.7692C25.2626 10.6501 23.2072 10 21 10C14.9249 10 10 14.9249 10 21C10 27.0751 14.9249 32 21 32C27.0751 32 32 27.0751 32 21C32 18.7927 31.3499 16.7373 30.2307 15.0148C29.9208 15.3686 29.5041 15.6265 29.0309 15.7384C30.023 17.2494 30.6 19.0573 30.6 21ZM27 13.5055C27.5512 13.9474 28.0525 14.4488 28.4944 14.9999C28.4962 14.9999 28.4981 15 28.5 15C29.0209 15 29.4798 14.7344 29.7487 14.3312C29.1513 13.5487 28.4512 12.8486 27.6687 12.2512C27.2655 12.5201 27 12.979 27 13.5C27 13.5018 27 13.5037 27 13.5055Z" fill="white"/>
<circle cx="28.5" cy="13.5" r="1.5" fill="white"/>
</svg>
