<svg width="90" height="90" viewBox="0 0 90 90" fill="none" xmlns="http://www.w3.org/2000/svg">
<path d="M29.501 0C45.7677 0 59.0018 13.2341 59.0018 29.5008C59.0018 37.1611 56.0664 44.1479 51.2623 49.3977L56.7078 54.8432L56.772 54.7791C57.5532 53.9979 58.5921 53.5674 59.6971 53.5674C60.8021 53.5674 61.8408 53.9977 62.6221 54.7791L88.3784 80.5355C90.5405 82.6978 90.5405 86.216 88.3784 88.3784C87.2973 89.4595 85.8771 90.0002 84.4569 90.0002C83.0367 90.0002 81.6166 89.4596 80.5355 88.3784L54.7793 62.6221C53.9979 61.8408 53.5676 60.8021 53.5676 59.6971C53.5676 58.5921 53.9979 57.5533 54.7793 56.772L54.8434 56.7078L49.3979 51.2623C44.148 56.0664 37.1611 59.0018 29.501 59.0018C13.2341 59.0018 0 45.7677 0 29.5008C0 13.2341 13.2341 0 29.501 0V0ZM82.3999 86.5138C83.534 87.648 85.3796 87.648 86.5138 86.5138C87.648 85.3796 87.648 83.534 86.5138 82.3999L64.8792 60.7653L60.7653 64.8792L82.3999 86.5138ZM56.6437 60.7576L58.9009 63.0149L63.0149 58.9009L60.7576 56.6437C60.4744 56.3605 60.0977 56.2044 59.6971 56.2044C59.2964 56.2044 58.9197 56.3605 58.6365 56.6437L56.6438 58.6365C56.3605 58.9199 56.2045 59.2964 56.2045 59.6971C56.2044 60.0977 56.3603 60.4742 56.6437 60.7576ZM29.501 56.3652C44.314 56.3652 56.365 44.314 56.365 29.501C56.365 14.688 44.3138 2.6368 29.501 2.6368C14.6882 2.6368 2.6368 14.688 2.6368 29.5008C2.6368 44.3138 14.688 56.3652 29.501 56.3652Z" fill="#D8D8D8"/>
<path d="M12.626 12.6263C21.1114 4.14089 34.6521 3.29694 44.122 10.6627C44.6969 11.1098 44.8004 11.9381 44.3532 12.5127C43.9063 13.0875 43.078 13.1911 42.5032 12.7439C34.0802 6.19249 22.0375 6.94363 14.4904 14.4907C6.94337 22.0379 6.19241 34.0807 12.7436 42.5033C13.1906 43.0781 13.0871 43.9064 12.5125 44.3534C12.2718 44.5405 11.9869 44.6312 11.704 44.6312C11.3111 44.6312 10.9223 44.4563 10.6625 44.1221C3.29651 34.6521 4.14046 21.1118 12.626 12.6263Z" fill="#D8D8D8"/>
</svg>
