<svg width="144" height="124" viewBox="0 0 144 124" fill="none" xmlns="http://www.w3.org/2000/svg">
<g opacity="0.6">
<path d="M5.16406 120.523L8.05469 111.625H10.2266L6.13281 123H4.21875L0.140625 111.625H2.30469L5.16406 120.523ZM13.3516 123H11.4531V114.547H13.3516V123ZM11.3359 112.352C11.3359 112.06 11.4271 111.818 11.6094 111.625C11.7969 111.432 12.0625 111.336 12.4062 111.336C12.75 111.336 13.0156 111.432 13.2031 111.625C13.3906 111.818 13.4844 112.06 13.4844 112.352C13.4844 112.638 13.3906 112.878 13.2031 113.07C13.0156 113.258 12.75 113.352 12.4062 113.352C12.0625 113.352 11.7969 113.258 11.6094 113.07C11.4271 112.878 11.3359 112.638 11.3359 112.352ZM15.0703 118.711C15.0703 117.409 15.3724 116.365 15.9766 115.578C16.5807 114.786 17.3906 114.391 18.4062 114.391C19.3021 114.391 20.026 114.703 20.5781 115.328V111H22.4766V123H20.7578L20.6641 122.125C20.0964 122.812 19.3385 123.156 18.3906 123.156C17.401 123.156 16.599 122.758 15.9844 121.961C15.375 121.164 15.0703 120.081 15.0703 118.711ZM16.9688 118.875C16.9688 119.734 17.1328 120.406 17.4609 120.891C17.7943 121.37 18.2656 121.609 18.875 121.609C19.651 121.609 20.2188 121.263 20.5781 120.57V116.961C20.2292 116.284 19.6667 115.945 18.8906 115.945C18.276 115.945 17.8021 116.19 17.4688 116.68C17.1354 117.164 16.9688 117.896 16.9688 118.875ZM28.1797 123.156C26.9766 123.156 26 122.779 25.25 122.023C24.5052 121.263 24.1328 120.253 24.1328 118.992V118.758C24.1328 117.914 24.2943 117.161 24.6172 116.5C24.9453 115.833 25.4036 115.315 25.9922 114.945C26.5807 114.576 27.237 114.391 27.9609 114.391C29.112 114.391 30 114.758 30.625 115.492C31.2552 116.227 31.5703 117.266 31.5703 118.609V119.375H26.0469C26.1042 120.073 26.3359 120.625 26.7422 121.031C27.1536 121.438 27.6693 121.641 28.2891 121.641C29.1589 121.641 29.8672 121.289 30.4141 120.586L31.4375 121.562C31.099 122.068 30.6458 122.461 30.0781 122.742C29.5156 123.018 28.8828 123.156 28.1797 123.156ZM27.9531 115.914C27.4323 115.914 27.0104 116.096 26.6875 116.461C26.3698 116.826 26.1667 117.333 26.0781 117.984H29.6953V117.844C29.6536 117.208 29.4844 116.729 29.1875 116.406C28.8906 116.078 28.4792 115.914 27.9531 115.914ZM32.6953 118.695C32.6953 117.867 32.8594 117.122 33.1875 116.461C33.5156 115.794 33.9766 115.284 34.5703 114.93C35.1641 114.57 35.8464 114.391 36.6172 114.391C37.7578 114.391 38.6823 114.758 39.3906 115.492C40.1042 116.227 40.4896 117.201 40.5469 118.414L40.5547 118.859C40.5547 119.693 40.3932 120.438 40.0703 121.094C39.7526 121.75 39.2943 122.258 38.6953 122.617C38.1016 122.977 37.4141 123.156 36.6328 123.156C35.4401 123.156 34.4844 122.76 33.7656 121.969C33.0521 121.172 32.6953 120.112 32.6953 118.789V118.695ZM34.5938 118.859C34.5938 119.729 34.7734 120.411 35.1328 120.906C35.4922 121.396 35.9922 121.641 36.6328 121.641C37.2734 121.641 37.7708 121.391 38.125 120.891C38.4844 120.391 38.6641 119.659 38.6641 118.695C38.6641 117.841 38.4792 117.164 38.1094 116.664C37.7448 116.164 37.2474 115.914 36.6172 115.914C35.9974 115.914 35.5052 116.161 35.1406 116.656C34.776 117.146 34.5938 117.88 34.5938 118.859ZM55.3516 123H53.375L48.3047 114.93V123H46.3281V111.625H48.3047L53.3906 119.727V111.625H55.3516V123ZM57.1484 118.695C57.1484 117.867 57.3125 117.122 57.6406 116.461C57.9688 115.794 58.4297 115.284 59.0234 114.93C59.6172 114.57 60.2995 114.391 61.0703 114.391C62.2109 114.391 63.1354 114.758 63.8438 115.492C64.5573 116.227 64.9427 117.201 65 118.414L65.0078 118.859C65.0078 119.693 64.8464 120.438 64.5234 121.094C64.2057 121.75 63.7474 122.258 63.1484 122.617C62.5547 122.977 61.8672 123.156 61.0859 123.156C59.8932 123.156 58.9375 122.76 58.2188 121.969C57.5052 121.172 57.1484 120.112 57.1484 118.789V118.695ZM59.0469 118.859C59.0469 119.729 59.2266 120.411 59.5859 120.906C59.9453 121.396 60.4453 121.641 61.0859 121.641C61.7266 121.641 62.224 121.391 62.5781 120.891C62.9375 120.391 63.1172 119.659 63.1172 118.695C63.1172 117.841 62.9323 117.164 62.5625 116.664C62.1979 116.164 61.7005 115.914 61.0703 115.914C60.4505 115.914 59.9583 116.161 59.5938 116.656C59.2292 117.146 59.0469 117.88 59.0469 118.859ZM68.9922 112.492V114.547H70.4844V115.953H68.9922V120.672C68.9922 120.995 69.0547 121.229 69.1797 121.375C69.3099 121.516 69.5391 121.586 69.8672 121.586C70.0859 121.586 70.3073 121.56 70.5312 121.508V122.977C70.099 123.096 69.6823 123.156 69.2812 123.156C67.8229 123.156 67.0938 122.352 67.0938 120.742V115.953H65.7031V114.547H67.0938V112.492H68.9922ZM82.4766 120.352H78.0703L77.1484 123H75.0938L79.3906 111.625H81.1641L85.4688 123H83.4062L82.4766 120.352ZM78.625 118.758H81.9219L80.2734 114.039L78.625 118.758ZM89.1719 120.594L90.9609 114.547H92.9219L89.9922 123H88.3438L85.3906 114.547H87.3594L89.1719 120.594ZM99.0391 123C98.9557 122.839 98.8828 122.576 98.8203 122.211C98.2161 122.841 97.4766 123.156 96.6016 123.156C95.7526 123.156 95.0599 122.914 94.5234 122.43C93.987 121.945 93.7188 121.346 93.7188 120.633C93.7188 119.732 94.0521 119.042 94.7188 118.562C95.3906 118.078 96.349 117.836 97.5938 117.836H98.7578V117.281C98.7578 116.844 98.6354 116.495 98.3906 116.234C98.1458 115.969 97.7734 115.836 97.2734 115.836C96.8411 115.836 96.487 115.945 96.2109 116.164C95.9349 116.378 95.7969 116.651 95.7969 116.984H93.8984C93.8984 116.521 94.0521 116.089 94.3594 115.688C94.6667 115.281 95.0833 114.964 95.6094 114.734C96.1406 114.505 96.7318 114.391 97.3828 114.391C98.3724 114.391 99.1615 114.641 99.75 115.141C100.339 115.635 100.641 116.333 100.656 117.234V121.047C100.656 121.807 100.763 122.414 100.977 122.867V123H99.0391ZM96.9531 121.633C97.3281 121.633 97.6797 121.542 98.0078 121.359C98.3411 121.177 98.5911 120.932 98.7578 120.625V119.031H97.7344C97.0312 119.031 96.5026 119.154 96.1484 119.398C95.7943 119.643 95.6172 119.99 95.6172 120.438C95.6172 120.802 95.737 121.094 95.9766 121.312C96.2214 121.526 96.5469 121.633 96.9531 121.633ZM104.664 123H102.766V114.547H104.664V123ZM102.648 112.352C102.648 112.06 102.74 111.818 102.922 111.625C103.109 111.432 103.375 111.336 103.719 111.336C104.062 111.336 104.328 111.432 104.516 111.625C104.703 111.818 104.797 112.06 104.797 112.352C104.797 112.638 104.703 112.878 104.516 113.07C104.328 113.258 104.062 113.352 103.719 113.352C103.375 113.352 103.109 113.258 102.922 113.07C102.74 112.878 102.648 112.638 102.648 112.352ZM108.758 123H106.859V111H108.758V123ZM115.883 123C115.799 122.839 115.727 122.576 115.664 122.211C115.06 122.841 114.32 123.156 113.445 123.156C112.596 123.156 111.904 122.914 111.367 122.43C110.831 121.945 110.562 121.346 110.562 120.633C110.562 119.732 110.896 119.042 111.562 118.562C112.234 118.078 113.193 117.836 114.438 117.836H115.602V117.281C115.602 116.844 115.479 116.495 115.234 116.234C114.99 115.969 114.617 115.836 114.117 115.836C113.685 115.836 113.331 115.945 113.055 116.164C112.779 116.378 112.641 116.651 112.641 116.984H110.742C110.742 116.521 110.896 116.089 111.203 115.688C111.51 115.281 111.927 114.964 112.453 114.734C112.984 114.505 113.576 114.391 114.227 114.391C115.216 114.391 116.005 114.641 116.594 115.141C117.182 115.635 117.484 116.333 117.5 117.234V121.047C117.5 121.807 117.607 122.414 117.82 122.867V123H115.883ZM113.797 121.633C114.172 121.633 114.523 121.542 114.852 121.359C115.185 121.177 115.435 120.932 115.602 120.625V119.031H114.578C113.875 119.031 113.346 119.154 112.992 119.398C112.638 119.643 112.461 119.99 112.461 120.438C112.461 120.802 112.581 121.094 112.82 121.312C113.065 121.526 113.391 121.633 113.797 121.633ZM126.906 118.859C126.906 120.172 126.612 121.216 126.023 121.992C125.44 122.768 124.635 123.156 123.609 123.156C122.62 123.156 121.849 122.799 121.297 122.086L121.203 123H119.484V111H121.383V115.359C121.93 114.714 122.667 114.391 123.594 114.391C124.625 114.391 125.435 114.773 126.023 115.539C126.612 116.305 126.906 117.375 126.906 118.75V118.859ZM125.008 118.695C125.008 117.779 124.846 117.091 124.523 116.633C124.201 116.174 123.732 115.945 123.117 115.945C122.294 115.945 121.716 116.305 121.383 117.023V120.508C121.721 121.242 122.305 121.609 123.133 121.609C123.727 121.609 124.185 121.388 124.508 120.945C124.831 120.503 124.997 119.833 125.008 118.938V118.695ZM130.523 123H128.625V111H130.523V123ZM136.32 123.156C135.117 123.156 134.141 122.779 133.391 122.023C132.646 121.263 132.273 120.253 132.273 118.992V118.758C132.273 117.914 132.435 117.161 132.758 116.5C133.086 115.833 133.544 115.315 134.133 114.945C134.721 114.576 135.378 114.391 136.102 114.391C137.253 114.391 138.141 114.758 138.766 115.492C139.396 116.227 139.711 117.266 139.711 118.609V119.375H134.188C134.245 120.073 134.477 120.625 134.883 121.031C135.294 121.438 135.81 121.641 136.43 121.641C137.299 121.641 138.008 121.289 138.555 120.586L139.578 121.562C139.24 122.068 138.786 122.461 138.219 122.742C137.656 123.018 137.023 123.156 136.32 123.156ZM136.094 115.914C135.573 115.914 135.151 116.096 134.828 116.461C134.51 116.826 134.307 117.333 134.219 117.984H137.836V117.844C137.794 117.208 137.625 116.729 137.328 116.406C137.031 116.078 136.62 115.914 136.094 115.914Z" fill="#9E9E9E"/>
</g>
<g opacity="0.6">
<path d="M105.04 18.7897C103.218 16.3065 100.677 13.398 97.8898 10.6102C95.102 7.8225 92.1935 5.2815 89.7102 3.45975C85.4787 0.357 83.426 0 82.25 0H41.5625C37.9453 0 35 2.94525 35 6.5625V77.4375C35 81.0547 37.9453 84 41.5625 84H101.938C105.555 84 108.5 81.0547 108.5 77.4375V26.25C108.5 25.074 108.143 23.0212 105.04 18.7897ZM94.1727 14.3273C96.6927 16.8472 98.6668 19.1152 100.126 21H87.4947V8.37375C89.3795 9.83325 91.6528 11.8073 94.1675 14.3273H94.1727ZM103.25 77.4375C103.25 78.1515 102.651 78.75 101.938 78.75H41.5625C41.2157 78.7459 40.8842 78.6063 40.6389 78.3611C40.3937 78.1158 40.2541 77.7843 40.25 77.4375V6.5625C40.25 5.85375 40.8538 5.25 41.5625 5.25H82.25V23.625C82.25 24.3212 82.5266 24.9889 83.0188 25.4812C83.5111 25.9734 84.1788 26.25 84.875 26.25H103.25V77.4375Z" fill="#9E9E9E"/>
<path d="M61 50.4298V33.3248C61 31.8169 62.6051 30.8514 63.9372 31.5579L78.9041 39.4966C80.2721 40.2222 80.332 42.1603 79.0115 42.969L64.0445 52.1354C62.7119 52.9516 61 51.9926 61 50.4298Z" fill="#9E9E9E" stroke="#9E9E9E"/>
</g>
</svg>
