<svg width="32" height="32" viewBox="0 0 32 32" fill="none" xmlns="http://www.w3.org/2000/svg">
    <g clip-path="url(#clip0_2559_23503)">
        <path d="M14.4587 12.292C14.4587 12.4356 14.4016 12.5734 14.3 12.675C14.1984 12.7766 14.0607 12.8337 13.917 12.8337H7.417C7.27334 12.8337 7.13556 12.7766 7.03398 12.675C6.9324 12.5734 6.87533 12.4356 6.87533 12.292C6.87533 11.43 7.21774 10.6034 7.82723 9.99389C8.43673 9.3844 9.26338 9.04199 10.1253 9.04199H11.2087C12.0706 9.04199 12.8973 9.3844 13.5068 9.99389C14.1163 10.6034 14.4587 11.43 14.4587 12.292ZM10.667 4.16699C10.2385 4.16699 9.81957 4.29406 9.46326 4.53214C9.10696 4.77022 8.82925 5.1086 8.66526 5.50451C8.50127 5.90042 8.45836 6.33606 8.54196 6.75635C8.62556 7.17664 8.83192 7.56271 9.13493 7.86572C9.43795 8.16873 9.82401 8.37509 10.2443 8.45869C10.6646 8.54229 11.1002 8.49938 11.4961 8.33539C11.8921 8.1714 12.2304 7.8937 12.4685 7.53739C12.7066 7.18108 12.8337 6.76218 12.8337 6.33366C12.8337 5.75902 12.6054 5.20792 12.1991 4.80159C11.7927 4.39527 11.2416 4.16699 10.667 4.16699ZM5.79199 4.16699C5.36347 4.16699 4.94456 4.29406 4.58826 4.53214C4.23195 4.77022 3.95424 5.1086 3.79025 5.50451C3.62626 5.90042 3.58336 6.33606 3.66696 6.75635C3.75056 7.17664 3.95691 7.56271 4.25993 7.86572C4.56294 8.16873 4.94901 8.37509 5.3693 8.45869C5.78959 8.54229 6.22524 8.49938 6.62114 8.33539C7.01705 8.1714 7.35544 7.8937 7.59351 7.53739C7.83159 7.18108 7.95866 6.76218 7.95866 6.33366C7.95866 5.75902 7.73039 5.20792 7.32406 4.80159C6.91773 4.39527 6.36663 4.16699 5.79199 4.16699ZM5.79199 12.292C5.79119 11.723 5.90328 11.1596 6.12178 10.6342C6.34029 10.1089 6.66085 9.63214 7.06491 9.23157C6.73424 9.10673 6.38378 9.04251 6.03033 9.04199H5.55366C4.75536 9.04342 3.99016 9.36118 3.42567 9.92566C2.86118 10.4902 2.54342 11.2553 2.54199 12.0537V12.292C2.54199 12.4356 2.59906 12.5734 2.70064 12.675C2.80223 12.7766 2.94 12.8337 3.08366 12.8337H5.88949C5.82643 12.66 5.79346 12.4768 5.79199 12.292Z" fill="#DBDDE0" />
        <circle cx="14.5" cy="14.5" r="5.5" fill="white" />
    </g>
    <path d="M22 16C22 16.7879 21.8448 17.5681 21.5433 18.2961C21.2417 19.0241 20.7998 19.6855 20.2426 20.2426C19.6855 20.7998 19.0241 21.2417 18.2961 21.5433C17.5681 21.8448 16.7879 22 16 22C15.2121 22 14.4319 21.8448 13.7039 21.5433C12.9759 21.2417 12.3145 20.7998 11.7574 20.2426C11.2002 19.6855 10.7583 19.0241 10.4567 18.2961C10.1552 17.5681 10 16.7879 10 16C10 14.4087 10.6321 12.8826 11.7574 11.7574C12.8826 10.6321 14.4087 10 16 10C17.5913 10 19.1174 10.6321 20.2426 11.7574C21.3679 12.8826 22 14.4087 22 16ZM16.6667 13.3333C16.6667 13.1565 16.5964 12.987 16.4714 12.8619C16.3464 12.7369 16.1768 12.6667 16 12.6667C15.8232 12.6667 15.6536 12.7369 15.5286 12.8619C15.4036 12.987 15.3333 13.1565 15.3333 13.3333V15.3333H13.3333C13.1565 15.3333 12.987 15.4036 12.8619 15.5286C12.7369 15.6536 12.6667 15.8232 12.6667 16C12.6667 16.1768 12.7369 16.3464 12.8619 16.4714C12.987 16.5964 13.1565 16.6667 13.3333 16.6667H15.3333V18.6667C15.3333 18.8435 15.4036 19.013 15.5286 19.1381C15.6536 19.2631 15.8232 19.3333 16 19.3333C16.1768 19.3333 16.3464 19.2631 16.4714 19.1381C16.5964 19.013 16.6667 18.8435 16.6667 18.6667V16.6667H18.6667C18.8435 16.6667 19.013 16.5964 19.1381 16.4714C19.2631 16.3464 19.3333 16.1768 19.3333 16C19.3333 15.8232 19.2631 15.6536 19.1381 15.5286C19.013 15.4036 18.8435 15.3333 18.6667 15.3333H16.6667V13.3333Z" fill="#0080FF" />
    <defs>
        <clipPath id="clip0_2559_23503">
            <rect width="13" height="13" fill="white" transform="translate(2 2)" />
        </clipPath>
    </defs>
</svg>
    