<svg width="24" height="24" viewBox="0 0 24 24" fill="none" xmlns="http://www.w3.org/2000/svg">
<path d="M4.85714 1.99854C4.09938 1.99854 3.37266 2.29955 2.83684 2.83537C2.30102 3.37119 2 4.09792 2 4.85568V19.1414C2 19.8992 2.30102 20.6259 2.83684 21.1617C3.37266 21.6975 4.09938 21.9985 4.85714 21.9985H19.1429C19.9006 21.9985 20.6273 21.6975 21.1632 21.1617C21.699 20.6259 22 19.8992 22 19.1414V4.85568C22 4.09792 21.699 3.37119 21.1632 2.83537C20.6273 2.29955 19.9006 1.99854 19.1429 1.99854H4.85714ZM8.42857 8.06996C8.42857 8.35412 8.31569 8.62665 8.11476 8.82758C7.91383 9.02851 7.6413 9.14139 7.35714 9.14139C7.07298 9.14139 6.80046 9.02851 6.59953 8.82758C6.3986 8.62665 6.28571 8.35412 6.28571 8.06996C6.28571 7.7858 6.3986 7.51328 6.59953 7.31235C6.80046 7.11142 7.07298 6.99854 7.35714 6.99854C7.6413 6.99854 7.91383 7.11142 8.11476 7.31235C8.31569 7.51328 8.42857 7.7858 8.42857 8.06996ZM7.35714 13.4271C7.07298 13.4271 6.80046 13.3142 6.59953 13.1133C6.3986 12.9124 6.28571 12.6398 6.28571 12.3557C6.28571 12.0715 6.3986 11.799 6.59953 11.5981C6.80046 11.3971 7.07298 11.2842 7.35714 11.2842C7.6413 11.2842 7.91383 11.3971 8.11476 11.5981C8.31569 11.799 8.42857 12.0715 8.42857 12.3557C8.42857 12.6398 8.31569 12.9124 8.11476 13.1133C7.91383 13.3142 7.6413 13.4271 7.35714 13.4271ZM8.42857 16.6414C8.42857 16.9256 8.31569 17.1981 8.11476 17.399C7.91383 17.5999 7.6413 17.7128 7.35714 17.7128C7.07298 17.7128 6.80046 17.5999 6.59953 17.399C6.3986 17.1981 6.28571 16.9256 6.28571 16.6414C6.28571 16.3572 6.3986 16.0847 6.59953 15.8838C6.80046 15.6828 7.07298 15.57 7.35714 15.57C7.6413 15.57 7.91383 15.6828 8.11476 15.8838C8.31569 16.0847 8.42857 16.3572 8.42857 16.6414ZM11.2857 7.71282H17C17.1894 7.71282 17.3711 7.78808 17.5051 7.92203C17.639 8.05598 17.7143 8.23767 17.7143 8.42711C17.7143 8.61655 17.639 8.79823 17.5051 8.93218C17.3711 9.06614 17.1894 9.14139 17 9.14139H11.2857C11.0963 9.14139 10.9146 9.06614 10.7806 8.93218C10.6467 8.79823 10.5714 8.61655 10.5714 8.42711C10.5714 8.23767 10.6467 8.05598 10.7806 7.92203C10.9146 7.78808 11.0963 7.71282 11.2857 7.71282ZM10.5714 12.7128C10.5714 12.5234 10.6467 12.3417 10.7806 12.2077C10.9146 12.0738 11.0963 11.9985 11.2857 11.9985H17C17.1894 11.9985 17.3711 12.0738 17.5051 12.2077C17.639 12.3417 17.7143 12.5234 17.7143 12.7128C17.7143 12.9023 17.639 13.0839 17.5051 13.2179C17.3711 13.3519 17.1894 13.4271 17 13.4271H11.2857C11.0963 13.4271 10.9146 13.3519 10.7806 13.2179C10.6467 13.0839 10.5714 12.9023 10.5714 12.7128ZM11.2857 16.2843H17C17.1894 16.2843 17.3711 16.3595 17.5051 16.4935C17.639 16.6274 17.7143 16.8091 17.7143 16.9985C17.7143 17.188 17.639 17.3697 17.5051 17.5036C17.3711 17.6376 17.1894 17.7128 17 17.7128H11.2857C11.0963 17.7128 10.9146 17.6376 10.7806 17.5036C10.6467 17.3697 10.5714 17.188 10.5714 16.9985C10.5714 16.8091 10.6467 16.6274 10.7806 16.4935C10.9146 16.3595 11.0963 16.2843 11.2857 16.2843Z" fill="#95A1AC"/>
</svg>
