<svg width="24" height="24" viewBox="0 0 24 24" fill="none" xmlns="http://www.w3.org/2000/svg">
<path d="M5.44832 4.61113L8.83473 8.09702C9.6034 7.46405 10.537 7.05267 11.5652 6.93358V2C9.22353 2.14124 7.09735 3.1011 5.44832 4.61113Z" fill="#ABB4BD"/>
<path d="M4.60646 5.47772C3.01542 7.31876 2 9.73497 2 12.3872C2 12.7259 2.26628 13 2.59535 13H6.20711C6.53618 13 6.80245 12.7259 6.80245 12.3872C6.80245 11.0874 7.25956 9.90726 7.99287 8.96362L4.60646 5.47772Z" fill="#ABB4BD"/>
<path d="M18.5517 4.61113L15.1653 8.09702C14.3966 7.46405 13.463 7.05267 12.4348 6.93358V2C14.7765 2.14124 16.9027 3.1011 18.5517 4.61113Z" fill="#ABB4BD"/>
<path d="M19.3935 5.47772C20.9846 7.31876 22 9.73497 22 12.3872C22 12.7259 21.7337 13 21.4047 13H17.7929C17.4638 13 17.1975 12.7259 17.1975 12.3872C17.1975 11.0874 16.7404 9.90726 16.0071 8.96362L19.3935 5.47772Z" fill="#ABB4BD"/>
<circle cx="15.5" cy="14.5" r="6.5" fill="white"/>
<path d="M21.8392 14.512L20.3861 14.0787C20.2857 13.7283 20.1475 13.3898 19.9741 13.069L20.6854 11.7387C20.7121 11.6885 20.7219 11.631 20.7133 11.5748C20.7047 11.5186 20.6782 11.4667 20.6377 11.4267L19.601 10.3867C19.561 10.3463 19.509 10.3198 19.4528 10.3112C19.3965 10.3026 19.339 10.3124 19.2887 10.3391L17.9658 11.0454C17.6416 10.8637 17.2983 10.7183 16.9421 10.6121L16.5083 9.17773C16.49 9.12487 16.4553 9.07919 16.4093 9.04727C16.3634 9.01534 16.3084 8.99881 16.2524 9.00007H14.7863C14.73 9.00033 14.6752 9.01854 14.63 9.05205C14.5847 9.08557 14.5514 9.13263 14.5347 9.1864L14.101 10.6164C13.7418 10.7221 13.3956 10.8675 13.0686 11.0497L11.7674 10.3477C11.7171 10.3211 11.6596 10.3113 11.6033 10.3199C11.5471 10.3285 11.4951 10.3549 11.4551 10.3954L10.401 11.4224C10.3606 11.4623 10.334 11.5143 10.3255 11.5705C10.3169 11.6267 10.3266 11.6842 10.3533 11.7344L11.056 13.0344C10.8739 13.3596 10.7284 13.7041 10.6223 14.0614L9.18652 14.4947C9.1327 14.5113 9.08559 14.5446 9.05204 14.5898C9.01849 14.635 9.00026 14.6898 9 14.746V16.2107C9.00026 16.267 9.01849 16.3217 9.05204 16.3669C9.08559 16.4121 9.1327 16.4454 9.18652 16.462L10.6309 16.8954C10.7382 17.2467 10.8837 17.5853 11.0647 17.905L10.3533 19.2657C10.3266 19.3159 10.3169 19.3734 10.3255 19.4296C10.334 19.4858 10.3606 19.5377 10.401 19.5777L11.4377 20.6133C11.4777 20.6538 11.5297 20.6803 11.586 20.6889C11.6422 20.6974 11.6998 20.6877 11.75 20.661L13.0903 19.946C13.4074 20.1169 13.7418 20.2535 14.088 20.3533L14.5217 21.8137C14.5383 21.8674 14.5717 21.9145 14.617 21.948C14.6622 21.9815 14.717 21.9997 14.7733 22H16.2394C16.2957 21.9997 16.3505 21.9815 16.3958 21.948C16.441 21.9145 16.4744 21.8674 16.491 21.8137L16.9247 20.349C17.2679 20.2486 17.5994 20.1121 17.9137 19.9417L19.2627 20.661C19.313 20.6877 19.3705 20.6974 19.4268 20.6889C19.483 20.6803 19.535 20.6538 19.575 20.6133L20.6117 19.5777C20.6522 19.5377 20.6787 19.4858 20.6873 19.4296C20.6959 19.3734 20.6861 19.3159 20.6594 19.2657L19.9394 17.9224C20.1117 17.6072 20.2499 17.2745 20.3514 16.93L21.8132 16.4967C21.867 16.4801 21.9141 16.4468 21.9477 16.4016C21.9812 16.3564 21.9994 16.3016 21.9997 16.2454V14.7677C22.0023 14.7138 21.9883 14.6604 21.9596 14.6147C21.9309 14.569 21.8889 14.5332 21.8392 14.512V14.512ZM15.5194 17.8834C15.0475 17.8834 14.5863 17.7436 14.194 17.4817C13.8016 17.2198 13.4959 16.8476 13.3153 16.4121C13.1347 15.9766 13.0875 15.4974 13.1795 15.0351C13.2716 14.5728 13.4988 14.1481 13.8325 13.8148C14.1661 13.4815 14.5912 13.2545 15.054 13.1625C15.5167 13.0705 15.9964 13.1177 16.4323 13.2981C16.8682 13.4785 17.2408 13.784 17.503 14.1759C17.7651 14.5679 17.905 15.0287 17.905 15.5C17.905 16.1321 17.6537 16.7383 17.2063 17.1853C16.7589 17.6323 16.1521 17.8834 15.5194 17.8834V17.8834Z" fill="#0080FF"/>
</svg>
