<svg width="30" height="30" viewBox="0 0 24 24" fill="none" xmlns="http://www.w3.org/2000/svg">
<path d="M20 10C20 11.3132 19.7413 12.6136 19.2388 13.8268C18.7362 15.0401 17.9997 16.1425 17.0711 17.0711C16.1425 17.9997 15.0401 18.7362 13.8268 19.2388C12.6136 19.7413 11.3132 20 10 20C8.68678 20 7.38642 19.7413 6.17317 19.2388C4.95991 18.7362 3.85752 17.9997 2.92893 17.0711C2.00035 16.1425 1.26375 15.0401 0.761205 13.8268C0.258658 12.6136 -1.95685e-08 11.3132 0 10C3.95203e-08 7.34784 1.05357 4.8043 2.92893 2.92893C4.8043 1.05357 7.34784 0 10 0C12.6522 0 15.1957 1.05357 17.0711 2.92893C18.9464 4.8043 20 7.34784 20 10ZM11.1111 5.55556C11.1111 5.26087 10.994 4.97825 10.7857 4.76988C10.5773 4.56151 10.2947 4.44444 10 4.44444C9.70532 4.44444 9.4227 4.56151 9.21432 4.76988C9.00595 4.97825 8.88889 5.26087 8.88889 5.55556V8.88889H5.55556C5.26087 8.88889 4.97825 9.00595 4.76988 9.21432C4.56151 9.4227 4.44444 9.70532 4.44444 10C4.44444 10.2947 4.56151 10.5773 4.76988 10.7857C4.97825 10.994 5.26087 11.1111 5.55556 11.1111H8.88889V14.4444C8.88889 14.7391 9.00595 15.0217 9.21432 15.2301C9.4227 15.4385 9.70532 15.5556 10 15.5556C10.2947 15.5556 10.5773 15.4385 10.7857 15.2301C10.994 15.0217 11.1111 14.7391 11.1111 14.4444V11.1111H14.4444C14.7391 11.1111 15.0217 10.994 15.2301 10.7857C15.4385 10.5773 15.5556 10.2947 15.5556 10C15.5556 9.70532 15.4385 9.4227 15.2301 9.21432C15.0217 9.00595 14.7391 8.88889 14.4444 8.88889H11.1111V5.55556Z" fill="#0080FF"/>
</svg>
