<svg width="25" height="24" viewBox="0 0 25 24" fill="none" xmlns="http://www.w3.org/2000/svg">
    <path d="M3.1519 6H5.14917H21.1273" stroke="#BFBFBF" stroke-width="2" stroke-linecap="round" stroke-linejoin="round" />
    <path d="M8.14507 6V4C8.14507 3.46957 8.35549 2.96086 8.73005 2.58579C9.10461 2.21071 9.61262 2 10.1423 2H14.1369C14.6666 2 15.1746 2.21071 15.5491 2.58579C15.9237 2.96086 16.1341 3.46957 16.1341 4V6M19.13 6V20C19.13 20.5304 18.9196 21.0391 18.545 21.4142C18.1705 21.7893 17.6625 22 17.1328 22H7.14643C6.61673 22 6.10871 21.7893 5.73415 21.4142C5.3596 21.0391 5.14917 20.5304 5.14917 20V6H19.13Z" stroke="#BFBFBF" stroke-width="2" stroke-linecap="round" stroke-linejoin="round" />
    <path d="M10.1423 11V17" stroke="#BFBFBF" stroke-width="2" stroke-linecap="round" stroke-linejoin="round" />
    <path d="M14.1369 11V17" stroke="#BFBFBF" stroke-width="2" stroke-linecap="round" stroke-linejoin="round" />
</svg>