<svg width="20" height="20" viewBox="0 0 20 20" fill="none" xmlns="http://www.w3.org/2000/svg">
<path d="M19.0006 0H13.0006C12.7354 0 12.481 0.105357 12.2935 0.292893C12.1059 0.48043 12.0006 0.734784 12.0006 1C12.0006 1.26522 12.1059 1.51957 12.2935 1.70711C12.481 1.89464 12.7354 2 13.0006 2H16.5866L8.29357 10.293C8.19806 10.3853 8.12188 10.4956 8.06947 10.6176C8.01706 10.7396 7.98947 10.8708 7.98832 11.0036C7.98717 11.1364 8.01247 11.2681 8.06275 11.391C8.11303 11.5139 8.18728 11.6255 8.28118 11.7194C8.37507 11.8133 8.48672 11.8875 8.60962 11.9378C8.73251 11.9881 8.86419 12.0134 8.99697 12.0123C9.12975 12.0111 9.26097 11.9835 9.38297 11.9311C9.50498 11.8787 9.61532 11.8025 9.70757 11.707L18.0006 3.414V7C18.0006 7.26522 18.1059 7.51957 18.2935 7.70711C18.481 7.89465 18.7354 8 19.0006 8C19.2658 8 19.5201 7.89465 19.7077 7.70711C19.8952 7.51957 20.0006 7.26522 20.0006 7V1C20.0006 0.734784 19.8952 0.48043 19.7077 0.292893C19.5201 0.105357 19.2658 0 19.0006 0Z" fill="white"/>
<path d="M17 8.58801C16.7348 8.58801 16.4804 8.69336 16.2929 8.8809C16.1054 9.06844 16 9.32279 16 9.58801V16.751C15.9997 17.0822 15.8681 17.3997 15.6339 17.6339C15.3997 17.8681 15.0822 17.9997 14.751 18H3.249C2.91783 17.9997 2.60029 17.8681 2.36612 17.6339C2.13194 17.3997 2.00027 17.0822 2 16.751V5.249C2.00027 4.91783 2.13194 4.60029 2.36612 4.36612C2.60029 4.13194 2.91783 4.00027 3.249 4H9.471C9.73622 4 9.99057 3.89464 10.1781 3.70711C10.3656 3.51957 10.471 3.26522 10.471 3C10.471 2.73478 10.3656 2.48043 10.1781 2.29289C9.99057 2.10536 9.73622 2 9.471 2H3.249C2.38764 2.00106 1.56186 2.3437 0.95278 2.95278C0.343703 3.56186 0.00105851 4.38764 0 5.249V16.749C0.000529143 17.6107 0.34294 18.437 0.952074 19.0465C1.56121 19.656 2.38729 19.999 3.249 20H14.749C15.6107 19.9995 16.437 19.6571 17.0465 19.0479C17.656 18.4388 17.9989 17.6127 18 16.751V9.58801C18 9.32279 17.8946 9.06844 17.7071 8.8809C17.5196 8.69336 17.2652 8.58801 17 8.58801Z" fill="white"/>
</svg>
