<svg width="24" height="24" viewBox="0 0 24 24" fill="none" xmlns="http://www.w3.org/2000/svg">
<path d="M12 2C10.0222 2 8.08879 2.58649 6.4443 3.6853C4.79981 4.78412 3.51809 6.3459 2.76121 8.17316C2.00433 10.0004 1.8063 12.0111 2.19215 13.9509C2.578 15.8907 3.53041 17.6725 4.92894 19.0711C6.32746 20.4696 8.10929 21.422 10.0491 21.8078C11.9889 22.1937 13.9996 21.9957 15.8268 21.2388C17.6541 20.4819 19.2159 19.2002 20.3147 17.5557C21.4135 15.9112 22 13.9778 22 12C22 9.34783 20.9464 6.8043 19.0711 4.92893C17.1957 3.05357 14.6522 2 12 2ZM7.45455 9.27273H14.3545L14.0818 9.00909C13.9106 8.8379 13.8145 8.60573 13.8145 8.36364C13.8145 8.24376 13.8381 8.12506 13.8839 8.01432C13.9298 7.90357 13.9971 7.80294 14.0818 7.71818C14.1666 7.63342 14.2672 7.56618 14.378 7.52031C14.4887 7.47444 14.6074 7.45082 14.7273 7.45082C14.9694 7.45082 15.2015 7.547 15.3727 7.71818L17.1909 9.53636C17.3171 9.6642 17.4025 9.82654 17.4365 10.0029C17.4705 10.1792 17.4514 10.3617 17.3818 10.5273C17.3136 10.6933 17.1978 10.8354 17.049 10.9357C16.9001 11.036 16.7249 11.09 16.5455 11.0909H7.45455C7.21344 11.0909 6.98221 10.9951 6.81172 10.8246C6.64124 10.6542 6.54546 10.4229 6.54546 10.1818C6.54546 9.94071 6.64124 9.70948 6.81172 9.53899C6.98221 9.36851 7.21344 9.27273 7.45455 9.27273ZM16.5455 14.7273H9.64546L9.91818 14.9909C10.0034 15.0754 10.071 15.176 10.1172 15.2867C10.1633 15.3975 10.1871 15.5164 10.1871 15.6364C10.1871 15.7564 10.1633 15.8752 10.1172 15.986C10.071 16.0968 10.0034 16.1973 9.91818 16.2818C9.83367 16.367 9.73313 16.4347 9.62234 16.4808C9.51156 16.527 9.39274 16.5507 9.27273 16.5507C9.15272 16.5507 9.0339 16.527 8.92311 16.4808C8.81233 16.4347 8.71179 16.367 8.62727 16.2818L6.80909 14.4636C6.68295 14.3358 6.5975 14.1735 6.56352 13.9971C6.52955 13.8207 6.54857 13.6383 6.61818 13.4727C6.68638 13.3067 6.8022 13.1646 6.95104 13.0643C7.09987 12.964 7.27507 12.91 7.45455 12.9091H16.5455C16.7866 12.9091 17.0178 13.0049 17.1883 13.1754C17.3588 13.3458 17.4545 13.5771 17.4545 13.8182C17.4545 14.0593 17.3588 14.2905 17.1883 14.461C17.0178 14.6315 16.7866 14.7273 16.5455 14.7273Z" fill="#0080FF"/>
</svg>
