<svg width="14" height="14" viewBox="0 0 14 14" fill="none" xmlns="http://www.w3.org/2000/svg">
<path d="M12.9997 0.333984H8.99973C8.82292 0.333984 8.65335 0.404222 8.52832 0.529247C8.4033 0.654271 8.33306 0.82384 8.33306 1.00065C8.33306 1.17746 8.4033 1.34703 8.52832 1.47206C8.65335 1.59708 8.82292 1.66732 8.99973 1.66732H11.3904L5.86173 7.19599C5.79806 7.25749 5.74727 7.33105 5.71233 7.41238C5.67739 7.49372 5.659 7.5812 5.65823 7.66972C5.65746 7.75824 5.67433 7.84603 5.70785 7.92796C5.74137 8.00989 5.79087 8.08432 5.85347 8.14692C5.91606 8.20951 5.9905 8.25902 6.07243 8.29254C6.15436 8.32606 6.24214 8.34292 6.33066 8.34216C6.41918 8.34139 6.50666 8.323 6.588 8.28806C6.66933 8.25312 6.7429 8.20233 6.8044 8.13865L12.3331 2.60999V5.00065C12.3331 5.17746 12.4033 5.34703 12.5283 5.47206C12.6533 5.59708 12.8229 5.66732 12.9997 5.66732C13.1765 5.66732 13.3461 5.59708 13.4711 5.47206C13.5962 5.34703 13.6664 5.17746 13.6664 5.00065V1.00065C13.6664 0.82384 13.5962 0.654271 13.4711 0.529247C13.3461 0.404222 13.1765 0.333984 12.9997 0.333984Z" fill="#95A1AC"/>
<path d="M11.6673 6.05997C11.4905 6.05997 11.3209 6.13021 11.1959 6.25523C11.0709 6.38026 11.0007 6.54983 11.0007 6.72664V11.502C11.0005 11.7228 10.9127 11.9344 10.7566 12.0906C10.6005 12.2467 10.3888 12.3345 10.168 12.3346H2.49998C2.2792 12.3345 2.06751 12.2467 1.9114 12.0906C1.75528 11.9344 1.66749 11.7228 1.66732 11.502V3.83397C1.66749 3.61319 1.75528 3.4015 1.9114 3.24538C2.06751 3.08926 2.2792 3.00148 2.49998 3.0013H6.64799C6.8248 3.0013 6.99437 2.93106 7.11939 2.80604C7.24441 2.68102 7.31465 2.51145 7.31465 2.33464C7.31465 2.15782 7.24441 1.98826 7.11939 1.86323C6.99437 1.73821 6.8248 1.66797 6.64799 1.66797H2.49998C1.92574 1.66867 1.37522 1.8971 0.969171 2.30316C0.56312 2.70921 0.33469 3.25973 0.333984 3.83397V11.5006C0.334337 12.0751 0.562611 12.626 0.9687 13.0323C1.37479 13.4387 1.92551 13.6673 2.49998 13.668H10.1667C10.7411 13.6676 11.292 13.4394 11.6983 13.0333C12.1047 12.6272 12.3333 12.0764 12.334 11.502V6.72664C12.334 6.54983 12.2638 6.38026 12.1387 6.25523C12.0137 6.13021 11.8441 6.05997 11.6673 6.05997Z" fill="#95A1AC"/>
</svg>
