<svg width="32" height="32" viewBox="0 0 24 24" fill="none" xmlns="http://www.w3.org/2000/svg">
<path d="M14.0909 15.125C14.0909 15.3571 13.9999 15.5796 13.838 15.7437C13.676 15.9078 13.4563 16 13.2273 16H2.86364C2.63459 16 2.41492 15.9078 2.25295 15.7437C2.09099 15.5796 2 15.3571 2 15.125C2 13.7326 2.54594 12.3973 3.51772 11.4127C4.4895 10.4281 5.80751 9.875 7.18182 9.875H8.90909C10.2834 9.875 11.6014 10.4281 12.5732 11.4127C13.545 12.3973 14.0909 13.7326 14.0909 15.125ZM8.04545 2C7.36221 2 6.69431 2.20527 6.12621 2.58986C5.55812 2.97444 5.11534 3.52107 4.85387 4.16061C4.5924 4.80015 4.52399 5.50388 4.65729 6.18282C4.79058 6.86175 5.11959 7.48539 5.60272 7.97487C6.08585 8.46436 6.70139 8.7977 7.37151 8.93275C8.04162 9.0678 8.73622 8.99849 9.36745 8.73358C9.99869 8.46867 10.5382 8.02007 10.9178 7.4445C11.2974 6.86892 11.5 6.19223 11.5 5.5C11.5 4.57174 11.136 3.6815 10.4882 3.02513C9.84033 2.36875 8.96166 2 8.04545 2Z" fill="#ABB4BD"/>
<circle cx="14" cy="15" r="6" fill="white"/>
<path d="M16 10C12.6916 10 10 12.6916 10 16C10 19.3084 12.6916 22 16 22C19.3084 22 22 19.3084 22 16C22 12.6916 19.3084 10 16 10ZM16 19V16.6H13V15.4H16V13L19 16L16 19Z" fill="#0080FF"/>
</svg>
