<svg width="24" height="24" viewBox="0 0 24 24" fill="none" xmlns="http://www.w3.org/2000/svg">
<path d="M6.89327 8.08317C8.00375 8.08317 8.96534 7.68489 9.75102 6.89908C10.5367 6.11339 10.935 5.15206 10.935 4.04146C10.935 2.93123 10.5367 1.96977 9.75089 1.18384C8.96508 0.398282 8.00362 0 6.89327 0C5.78267 0 4.82134 0.398282 4.03565 1.18396C3.24997 1.96965 2.85156 2.93111 2.85156 4.04146C2.85156 5.15206 3.24997 6.11352 4.03578 6.8992C4.82159 7.68476 5.78305 8.08317 6.89327 8.08317Z" fill="#DBDBDB"/>
<path fill-rule="evenodd" clip-rule="evenodd" d="M8 16C8 16.2612 8.01462 16.5218 8.04363 16.7804H2.96004C2.08743 16.7804 1.36985 16.5186 0.827546 16.0025C0.278452 15.4795 0 14.7704 0 13.8944C0 13.5579 0.0112661 13.2246 0.0335422 12.9035C0.0562025 12.5758 0.102035 12.219 0.169503 11.8429C0.237612 11.4634 0.325308 11.1048 0.43016 10.7769C0.538724 10.4378 0.686208 10.1033 0.868385 9.78258C1.05735 9.44985 1.27973 9.16013 1.52899 8.92149C1.79003 8.67172 2.10945 8.4711 2.47841 8.32503C2.84623 8.17934 3.25385 8.10547 3.69016 8.10547C3.86145 8.10547 4.02724 8.17575 4.34679 8.38405C4.54664 8.51425 4.77708 8.66276 5.03172 8.82547C5.25128 8.96553 5.54906 9.09676 5.91649 9.21544C6.27573 9.33155 6.63995 9.39044 6.99957 9.39044C7.35919 9.39044 7.72355 9.33155 8.0824 9.21544C8.45021 9.09663 8.74799 8.9654 8.96781 8.82535C9.22488 8.66109 9.4552 8.51258 9.6521 8.38418C9.97203 8.17588 10.1377 8.1056 10.309 8.1056C10.7452 8.1056 11.1529 8.17934 11.5209 8.3249C11.8901 8.47123 12.2094 8.67185 12.4702 8.92136C12.6019 9.04734 12.726 9.18763 12.8417 9.34102C11.7988 9.67907 10.8399 10.2606 10.0503 11.0503C8.7375 12.363 8 14.1435 8 16Z" fill="#DBDBDB"/>
<path d="M16.75 10C13.0281 10 10 13.0281 10 16.75C10 20.472 13.0281 23.5 16.75 23.5C20.472 23.5 23.5 20.472 23.5 16.75C23.5 13.0281 20.472 10 16.75 10ZM16.75 20.125V17.425H13.375V16.075H16.75V13.375L20.125 16.75L16.75 20.125Z" fill="#0080FF"/>
</svg>
