<svg width="22" height="22" viewBox="0 0 22 22" fill="none" xmlns="http://www.w3.org/2000/svg">
<path d="M1.445 2.435C1.83621 2.35061 2.24153 2.35679 2.62999 2.45307C3.01844 2.54934 3.37974 2.73316 3.68626 2.99048C3.99278 3.24779 4.23641 3.57178 4.39852 3.93769C4.56063 4.30359 4.63692 4.70172 4.62158 5.10163C4.60623 5.50154 4.49965 5.89265 4.30998 6.24506C4.12031 6.59746 3.85257 6.90183 3.52723 7.1349C3.2019 7.36797 2.82758 7.52357 2.43289 7.58979C2.0382 7.65602 1.63359 7.63112 1.25 7.517V11C1.25 11.7956 1.56607 12.5587 2.12868 13.1213C2.69129 13.6839 3.45435 14 4.25 14H6.533C6.72013 11.9501 7.66679 10.0442 9.18712 8.65658C10.7074 7.26891 12.6916 6.49971 14.75 6.5V3.5C14.75 2.70435 14.4339 1.94129 13.8713 1.37868C13.3087 0.816071 12.5456 0.5 11.75 0.5H4.25C3.64136 0.499919 3.04709 0.684966 2.54609 1.03057C2.04509 1.37618 1.66107 1.866 1.445 2.435ZM5 5.75C5 5.55109 5.07902 5.36032 5.21967 5.21967C5.36032 5.07902 5.55109 5 5.75 5H10.25C10.4489 5 10.6397 5.07902 10.7803 5.21967C10.921 5.36032 11 5.55109 11 5.75C11 5.94891 10.921 6.13968 10.7803 6.28033C10.6397 6.42098 10.4489 6.5 10.25 6.5H5.75C5.55109 6.5 5.36032 6.42098 5.21967 6.28033C5.07902 6.13968 5 5.94891 5 5.75ZM5.75 9.5C5.55109 9.5 5.36032 9.42098 5.21967 9.28033C5.07902 9.13968 5 8.94891 5 8.75C5 8.55109 5.07902 8.36032 5.21967 8.21967C5.36032 8.07902 5.55109 8 5.75 8H8C8.19891 8 8.38968 8.07902 8.53033 8.21967C8.67098 8.36032 8.75 8.55109 8.75 8.75C8.75 8.94891 8.67098 9.13968 8.53033 9.28033C8.38968 9.42098 8.19891 9.5 8 9.5H5.75Z" fill="#DBDBDB"/>
<path d="M3.125 5C3.125 5.29837 3.00647 5.58452 2.7955 5.7955C2.58452 6.00647 2.29837 6.125 2 6.125C1.70163 6.125 1.41548 6.00647 1.2045 5.7955C0.993526 5.58452 0.875 5.29837 0.875 5C0.875 4.70163 0.993526 4.41548 1.2045 4.2045C1.41548 3.99353 1.70163 3.875 2 3.875C2.29837 3.875 2.58452 3.99353 2.7955 4.2045C3.00647 4.41548 3.125 4.70163 3.125 5Z" fill="#DBDBDB"/>
<path d="M21.5 14.75C21.5 15.6364 21.3254 16.5142 20.9862 17.3331C20.647 18.1521 20.1498 18.8962 19.523 19.523C18.8962 20.1498 18.1521 20.647 17.3331 20.9862C16.5142 21.3254 15.6364 21.5 14.75 21.5C13.8636 21.5 12.9858 21.3254 12.1669 20.9862C11.3479 20.647 10.6038 20.1498 9.97703 19.523C9.35023 18.8962 8.85303 18.1521 8.51381 17.3331C8.17459 16.5142 8 15.6364 8 14.75C8 12.9598 8.71116 11.2429 9.97703 9.97703C11.2429 8.71116 12.9598 8 14.75 8C16.5402 8 18.2571 8.71116 19.523 9.97703C20.7888 11.2429 21.5 12.9598 21.5 14.75ZM15.5 11.75C15.5 11.5511 15.421 11.3603 15.2803 11.2197C15.1397 11.079 14.9489 11 14.75 11C14.5511 11 14.3603 11.079 14.2197 11.2197C14.079 11.3603 14 11.5511 14 11.75V14H11.75C11.5511 14 11.3603 14.079 11.2197 14.2197C11.079 14.3603 11 14.5511 11 14.75C11 14.9489 11.079 15.1397 11.2197 15.2803C11.3603 15.421 11.5511 15.5 11.75 15.5H14V17.75C14 17.9489 14.079 18.1397 14.2197 18.2803C14.3603 18.421 14.5511 18.5 14.75 18.5C14.9489 18.5 15.1397 18.421 15.2803 18.2803C15.421 18.1397 15.5 17.9489 15.5 17.75V15.5H17.75C17.9489 15.5 18.1397 15.421 18.2803 15.2803C18.421 15.1397 18.5 14.9489 18.5 14.75C18.5 14.5511 18.421 14.3603 18.2803 14.2197C18.1397 14.079 17.9489 14 17.75 14H15.5V11.75Z" fill="#0080FF"/>
</svg>
