<svg width="16" height="16" viewBox="0 0 16 16" fill="none" xmlns="http://www.w3.org/2000/svg">
<path d="M10.1952 7.73438L14.9591 2.97053C15.6386 2.29098 15.6386 1.18922 14.9591 0.509666C14.2795 -0.169889 13.1778 -0.169889 12.4982 0.509666L7.73438 5.27351L2.97053 0.509666C2.29098 -0.169889 1.18922 -0.169889 0.509666 0.509666C-0.169889 1.18922 -0.169889 2.29098 0.509666 2.97053L5.27351 7.73438L0.509666 12.4982C-0.169889 13.1778 -0.169889 14.2795 0.509666 14.9591C0.849443 15.2988 1.29476 15.4688 1.74008 15.4688C2.1854 15.4688 2.63075 15.2989 2.9705 14.9591L7.73438 10.1952L12.4982 14.9591C12.838 15.2988 13.2833 15.4688 13.7286 15.4688C14.174 15.4688 14.6193 15.2989 14.959 14.9591C15.6386 14.2795 15.6386 13.1778 14.959 12.4982L10.1952 7.73438Z" fill="#606E7B"/>
</svg>
