<svg width="18" height="18" viewBox="0 0 18 18" fill="none" xmlns="http://www.w3.org/2000/svg">
<path d="M8.99996 17.3333C7.90531 17.3343 6.82118 17.1195 5.80964 16.7011C4.7981 16.2827 3.879 15.669 3.10496 14.8949C2.33092 14.1209 1.71714 13.2018 1.29873 12.1902C0.880334 11.1787 0.665534 10.0946 0.66663 8.99992V8.83325C0.69997 7.19943 1.21271 5.61142 2.14112 4.2666C3.06953 2.92178 4.37268 1.87944 5.8886 1.26913C7.40451 0.658822 9.06636 0.507452 10.6676 0.833835C12.2688 1.16022 13.7389 1.94996 14.895 3.10492C16.0614 4.27037 16.8558 5.75567 17.1778 7.37282C17.4997 8.98997 17.3347 10.6663 16.7036 12.1896C16.0724 13.7129 15.0036 15.0148 13.6323 15.9304C12.261 16.846 10.6489 17.3342 8.99996 17.3333ZM8.99996 10.1749L11.1583 12.3332L12.3333 11.1582L10.175 8.99992L12.3333 6.84158L11.1583 5.66658L8.99996 7.82492L6.84163 5.66658L5.66663 6.84158L7.82496 8.99992L5.66663 11.1582L6.84163 12.3332L8.99996 10.1757V10.1749Z" fill="#606E7B" fill-opacity="0.2"/>
</svg>
