<svg width="20" height="20" viewBox="0 0 20 20" fill="none" xmlns="http://www.w3.org/2000/svg">
<path d="M2.99961 0.599609C2.36309 0.599609 1.75264 0.852466 1.30255 1.30255C0.852466 1.75264 0.599609 2.36309 0.599609 2.99961V14.9996C0.599609 15.6361 0.852466 16.2466 1.30255 16.6967C1.75264 17.1468 2.36309 17.3996 2.99961 17.3996H8.06361L8.31801 16.3856C8.48601 15.7112 8.83401 15.0956 9.32601 14.6036L10.13 13.7996H8.39961C8.24048 13.7996 8.08787 13.7364 7.97535 13.6239C7.86282 13.5114 7.79961 13.3587 7.79961 13.1996C7.79961 13.0405 7.86282 12.8879 7.97535 12.7753C8.08787 12.6628 8.24048 12.5996 8.39961 12.5996H11.3312L15.122 8.80761C15.729 8.20002 16.5416 7.84206 17.3996 7.80441V2.99961C17.3996 2.36309 17.1468 1.75264 16.6967 1.30255C16.2466 0.852466 15.6361 0.599609 14.9996 0.599609H2.99961ZM5.99961 5.69961C5.99961 5.9383 5.90479 6.16722 5.73601 6.33601C5.56722 6.50479 5.3383 6.59961 5.09961 6.59961C4.86091 6.59961 4.632 6.50479 4.46321 6.33601C4.29443 6.16722 4.19961 5.9383 4.19961 5.69961C4.19961 5.46092 4.29443 5.232 4.46321 5.06321C4.632 4.89443 4.86091 4.79961 5.09961 4.79961C5.3383 4.79961 5.56722 4.89443 5.73601 5.06321C5.90479 5.232 5.99961 5.46092 5.99961 5.69961ZM5.09961 10.1996C4.86091 10.1996 4.632 10.1048 4.46321 9.93601C4.29443 9.76722 4.19961 9.53831 4.19961 9.29961C4.19961 9.06091 4.29443 8.832 4.46321 8.66321C4.632 8.49443 4.86091 8.39961 5.09961 8.39961C5.3383 8.39961 5.56722 8.49443 5.73601 8.66321C5.90479 8.832 5.99961 9.06091 5.99961 9.29961C5.99961 9.53831 5.90479 9.76722 5.73601 9.93601C5.56722 10.1048 5.3383 10.1996 5.09961 10.1996ZM5.99961 12.8996C5.99961 13.1383 5.90479 13.3672 5.73601 13.536C5.56722 13.7048 5.3383 13.7996 5.09961 13.7996C4.86091 13.7996 4.632 13.7048 4.46321 13.536C4.29443 13.3672 4.19961 13.1383 4.19961 12.8996C4.19961 12.6609 4.29443 12.432 4.46321 12.2632C4.632 12.0944 4.86091 11.9996 5.09961 11.9996C5.3383 11.9996 5.56722 12.0944 5.73601 12.2632C5.90479 12.432 5.99961 12.6609 5.99961 12.8996ZM8.39961 5.39961H13.1996C13.3587 5.39961 13.5114 5.46282 13.6239 5.57535C13.7364 5.68787 13.7996 5.84048 13.7996 5.99961C13.7996 6.15874 13.7364 6.31135 13.6239 6.42387C13.5114 6.5364 13.3587 6.59961 13.1996 6.59961H8.39961C8.24048 6.59961 8.08787 6.5364 7.97535 6.42387C7.86282 6.31135 7.79961 6.15874 7.79961 5.99961C7.79961 5.84048 7.86282 5.68787 7.97535 5.57535C8.08787 5.46282 8.24048 5.39961 8.39961 5.39961ZM7.79961 9.59961C7.79961 9.44048 7.86282 9.28787 7.97535 9.17535C8.08787 9.06282 8.24048 8.99961 8.39961 8.99961H13.1996C13.3587 8.99961 13.5114 9.06282 13.6239 9.17535C13.7364 9.28787 13.7996 9.44048 13.7996 9.59961C13.7996 9.75874 13.7364 9.91135 13.6239 10.0239C13.5114 10.1364 13.3587 10.1996 13.1996 10.1996H8.39961C8.24048 10.1996 8.08787 10.1364 7.97535 10.0239C7.86282 9.91135 7.79961 9.75874 7.79961 9.59961ZM10.1756 15.452L15.9716 9.65601C16.1801 9.44768 16.4276 9.28246 16.6999 9.16977C16.9723 9.05708 17.2641 8.99914 17.5589 8.99925C17.8536 8.99936 18.1454 9.05753 18.4177 9.17042C18.6899 9.28331 18.9373 9.44872 19.1456 9.65721C19.3539 9.8657 19.5192 10.1132 19.6319 10.3855C19.7445 10.6579 19.8025 10.9497 19.8024 11.2445C19.8023 11.5392 19.7441 11.831 19.6312 12.1033C19.5183 12.3755 19.3529 12.6229 19.1444 12.8312L13.3484 18.626C13.0108 18.9638 12.5877 19.2035 12.1244 19.3196L10.3268 19.7684C10.1481 19.813 9.96084 19.8105 9.78332 19.7613C9.60581 19.7121 9.44403 19.6178 9.31371 19.4876C9.1834 19.3575 9.08897 19.1958 9.03961 19.0183C8.99025 18.8408 8.98763 18.6536 9.03201 18.4748L9.48201 16.6772C9.59721 16.214 9.83721 15.7892 10.1756 15.4532V15.452Z" fill="#DBDBDB"/>
<path fill-rule="evenodd" clip-rule="evenodd" d="M15.9699 9.65718L10.1739 15.4532L10.1751 15.4544C9.83666 15.7904 9.59666 16.2152 9.48146 16.6784L9.03146 18.476C8.98708 18.6548 8.9897 18.842 9.03906 19.0195C9.08842 19.1969 9.18284 19.3586 9.31316 19.4888C9.44348 19.619 9.60525 19.7133 9.78277 19.7625C9.96029 19.8117 10.1475 19.8141 10.3263 19.7696L12.1239 19.3208C12.5872 19.2047 13.0102 18.965 13.3479 18.6272L19.1439 12.8324C19.5649 12.4115 19.8015 11.8406 19.8016 11.2452C19.8018 10.6499 19.5654 10.0788 19.1445 9.65778C18.7236 9.23672 18.1526 9.00011 17.5573 9C16.9619 8.99989 16.3909 9.23628 15.9699 9.65718Z" fill="#0080FF"/>
</svg>
