<svg xmlns="http://www.w3.org/2000/svg" width="15.203" height="15.203" viewBox="0 0 15.203 15.203">
  <g id="information-2" opacity="0.6">
    <g id="Group_54041" data-name="Group 54041">
      <g id="Group_54040" data-name="Group 54040">
        <path id="Path_734" data-name="Path 734" d="M7.6,0a7.6,7.6,0,1,0,7.6,7.6A7.6,7.6,0,0,0,7.6,0Zm0,14.015A6.414,6.414,0,1,1,14.015,7.6,6.41,6.41,0,0,1,7.6,14.015Z" fill="#575757"/>
      </g>
    </g>
    <g id="Group_54043" data-name="Group 54043" transform="translate(7.016 6.407)">
      <g id="Group_54042" data-name="Group 54042">
        <path id="Path_735" data-name="Path 735" d="M236.586,214.33a.586.586,0,0,0-.586.586v3.772a.586.586,0,1,0,1.171,0v-3.772A.586.586,0,0,0,236.586,214.33Z" transform="translate(-236 -214.33)" fill="#575757"/>
      </g>
    </g>
    <g id="Group_54045" data-name="Group 54045" transform="translate(6.811 4.04)">
      <g id="Group_54044" data-name="Group 54044">
        <circle id="Ellipse_125" data-name="Ellipse 125" cx="0.791" cy="0.791" r="0.791" fill="#575757"/>
      </g>
    </g>
  </g>
</svg>
