<svg width="16" height="16" viewBox="0 0 16 16" fill="none" xmlns="http://www.w3.org/2000/svg">
<path d="M9.48661 3.51855H2.35065V4.67522H9.48661V3.51855Z" fill="#0080FF"/>
<path d="M12.9817 12.2152C13.5349 11.2381 13.3745 9.99295 12.5699 9.18918C12.0939 8.71316 11.4609 8.45044 10.7854 8.45044C10.11 8.45044 9.47618 8.71316 9.00016 9.18918C8.52414 9.6652 8.26141 10.2982 8.26141 10.9745C8.26141 11.6482 8.52414 12.282 9.00016 12.7598C9.47618 13.2341 10.1091 13.4968 10.7837 13.4968C11.2233 13.4968 11.649 13.3849 12.0271 13.1716L14.8555 16L15.8101 15.0445L12.9817 12.2152ZM11.8476 12.0358C11.2823 12.6011 10.2904 12.6011 9.72502 12.0358C9.13975 11.4496 9.13975 10.4985 9.72502 9.91232C10.0077 9.62965 10.3857 9.47358 10.7872 9.47358C11.1886 9.47358 11.5649 9.62965 11.8485 9.91232C12.132 10.195 12.2881 10.573 12.2881 10.9745C12.2881 11.3759 12.1311 11.7522 11.8476 12.0358Z" fill="#0080FF"/>
<path d="M11.5597 14.1332H1.61014C1.45233 14.1332 1.32487 14.0049 1.32487 13.8488V1.42026C1.32487 1.26245 1.45233 1.13499 1.61014 1.13499H11.5597C11.7175 1.13499 11.8441 1.26245 11.8441 1.42026V7.76026C12.256 7.85043 12.6401 8.02645 12.98 8.2779V1.42026C12.98 0.637295 12.3436 0 11.5597 0H1.61014C0.827175 0 0.18988 0.637295 0.18988 1.42026V13.8488C0.18988 14.6309 0.827175 15.2682 1.61014 15.2682H11.5597C12.1537 15.2682 12.4346 15.1277 12.6462 14.6092L12.1311 14.0942C11.9412 14.174 11.6412 14.1332 11.5597 14.1332Z" fill="#0080FF"/>
<path d="M9.48661 6.77875H2.35065V7.93542H9.48661V6.77875Z" fill="#0080FF"/>
</svg>
