<svg width="15" height="15" viewBox="0 0 15 15" fill="none" xmlns="http://www.w3.org/2000/svg">
  <path d="M7.49786 11.8229C7.90765 11.8229 8.23986 11.4907 8.23986 11.0809C8.23986 10.6711 7.90765 10.3389 7.49786 10.3389C7.08806 10.3389 6.75586 10.6711 6.75586 11.0809C6.75586 11.4907 7.08806 11.8229 7.49786 11.8229Z" fill="#999999" />
  <path d="M7.5 2.40407e-06C6.01664 2.40407e-06 4.5666 0.43987 3.33323 1.26398C2.09986 2.08809 1.13856 3.25943 0.570907 4.62988C0.00324965 6.00032 -0.145275 7.50832 0.144114 8.96318C0.433503 10.418 1.14781 11.7544 2.1967 12.8033C3.2456 13.8522 4.58197 14.5665 6.03683 14.8559C7.49168 15.1453 8.99968 14.9968 10.3701 14.4291C11.7406 13.8614 12.9119 12.9001 13.736 11.6668C14.5601 10.4334 15 8.98336 15 7.5C15.0008 6.51487 14.8073 5.53924 14.4307 4.62894C14.0541 3.71865 13.5017 2.89154 12.8051 2.19494C12.1085 1.49835 11.2814 0.94593 10.3711 0.569299C9.46076 0.192668 8.48514 -0.000786652 7.5 2.40407e-06ZM7.5 13.825C6.24847 13.8254 5.02493 13.4546 3.98416 12.7595C2.94338 12.0645 2.13212 11.0764 1.653 9.92017C1.17388 8.76398 1.04841 7.49166 1.29248 6.26416C1.53654 5.03665 2.13917 3.90911 3.02414 3.02414C3.90911 2.13917 5.03665 1.53654 6.26416 1.29248C7.49166 1.04841 8.76398 1.17388 9.92017 1.653C11.0764 2.13212 12.0645 2.94338 12.7595 3.98416C13.4546 5.02493 13.8254 6.24847 13.825 7.5C13.8253 8.33069 13.6618 9.15328 13.3441 9.92079C13.0263 10.6883 12.5604 11.3857 11.973 11.973C11.3857 12.5604 10.6883 13.0263 9.92079 13.3441C9.15329 13.6618 8.33069 13.8253 7.5 13.825Z" fill="#999999" />
  <path d="M7.49902 3.72803C6.86938 3.72882 6.26575 3.9793 5.82053 4.42453C5.3753 4.86976 5.12482 5.47338 5.12402 6.10303C5.12402 6.26057 5.18661 6.41166 5.298 6.52306C5.4094 6.63445 5.56048 6.69702 5.71802 6.69702C5.87556 6.69702 6.02665 6.63445 6.13805 6.52306C6.24944 6.41166 6.31203 6.26057 6.31203 6.10303C6.31203 5.86806 6.3817 5.63837 6.51224 5.44301C6.64278 5.24764 6.82832 5.09538 7.04539 5.00546C7.26247 4.91555 7.50135 4.89201 7.7318 4.93785C7.96225 4.98369 8.17393 5.09684 8.34007 5.26299C8.50622 5.42913 8.61935 5.64081 8.66519 5.87126C8.71103 6.10171 8.68751 6.34057 8.5976 6.55765C8.50768 6.77473 8.3554 6.96028 8.16003 7.09082C7.96467 7.22136 7.73499 7.29103 7.50003 7.29103C7.34249 7.29103 7.1914 7.35362 7.08 7.46501C6.96861 7.57641 6.90602 7.72749 6.90602 7.88503V9.36903C6.90602 9.44704 6.92138 9.52428 6.95123 9.59634C6.98108 9.66841 7.02484 9.73389 7.08 9.78905C7.13516 9.84421 7.20064 9.88797 7.27271 9.91782C7.34477 9.94767 7.42203 9.96303 7.50003 9.96303C7.57804 9.96303 7.65527 9.94767 7.72734 9.91782C7.79941 9.88797 7.86489 9.84421 7.92004 9.78905C7.9752 9.73389 8.01896 9.66841 8.04881 9.59634C8.07866 9.52428 8.09402 9.44704 8.09402 9.36903V8.40303C8.65412 8.25883 9.14236 7.91521 9.46712 7.43663C9.79188 6.95806 9.93086 6.37742 9.85796 5.80367C9.78506 5.22991 9.50529 4.70248 9.07117 4.32033C8.63704 3.93818 8.07839 3.72757 7.50003 3.72803H7.49902Z" fill="#999999" />
</svg>
