<svg width="17" height="14" viewBox="0 0 17 14" fill="none" xmlns="http://www.w3.org/2000/svg">
<path d="M14.1997 0.426531C14.4902 0.149927 14.8769 -0.00299088 15.278 4.43342e-05C15.6792 0.00307955 16.0634 0.161831 16.3498 0.4428C16.6361 0.723768 16.802 1.10498 16.8127 1.50599C16.8233 1.907 16.6777 2.29645 16.4066 2.59216L8.17721 12.884C8.0357 13.0364 7.86492 13.1588 7.67506 13.2437C7.4852 13.3286 7.28017 13.3743 7.07223 13.3782C6.86429 13.382 6.65771 13.3439 6.46483 13.2661C6.27196 13.1883 6.09676 13.0724 5.94971 12.9253L0.492336 7.46791C0.340357 7.32629 0.218459 7.15552 0.133913 6.96577C0.049367 6.77602 0.00390535 6.57118 0.000240735 6.36348C-0.00342388 6.15579 0.0347837 5.94947 0.112583 5.75686C0.190383 5.56425 0.306181 5.38928 0.45307 5.24239C0.599958 5.0955 0.774928 4.9797 0.967541 4.9019C1.16015 4.8241 1.36646 4.7859 1.57416 4.78956C1.78186 4.79323 1.9867 4.83869 2.17645 4.92323C2.36619 5.00778 2.53697 5.12968 2.67859 5.28166L6.99746 9.59847L14.1605 0.471907C14.1734 0.456027 14.1872 0.440878 14.2018 0.426531H14.1997Z" fill="white"/>
</svg>
