<svg width="19" height="19" viewBox="0 0 19 19" fill="none" xmlns="http://www.w3.org/2000/svg">
<path d="M4.50532 2.56748L4.5051 2.56764C0.647885 5.38265 -0.209913 10.6726 2.61932 14.5121C5.44795 18.3507 10.7631 19.2042 14.6209 16.3888C17.1272 14.5597 18.3321 11.6759 17.9942 8.92163C17.976 8.77306 17.8484 8.66487 17.7005 8.66487H16.4992C16.3159 8.66487 16.178 8.82681 16.1955 9.00614C16.4164 11.2726 15.4034 13.5806 13.4539 15.0358C10.408 17.2248 6.17803 16.551 3.97845 13.5201C1.77881 10.4891 2.45557 6.2796 5.50126 4.09052L5.50127 4.09053L5.50199 4.08999C8.13797 2.12253 11.7389 2.46975 14.1146 4.59186C14.197 4.66541 14.199 4.79396 14.1191 4.87347L12.5138 6.47106C12.3241 6.65984 12.4578 6.98371 12.7254 6.98371H16.9835C17.1492 6.98371 17.2835 6.84939 17.2835 6.68371V2.44618C17.2835 2.17925 16.9611 2.04525 16.7719 2.23353L15.7552 3.24526C15.6775 3.3226 15.5507 3.32309 15.4691 3.24673C12.5396 0.503664 7.86463 0.143711 4.50532 2.56748Z" fill="#454545" stroke="#454545" stroke-width="0.1"/>
</svg>
