<svg width="32" height="32" viewBox="0 0 24 24" fill="none" xmlns="http://www.w3.org/2000/svg">
<path d="M21.8392 13.512L20.3861 13.0787C20.2857 12.7283 20.1475 12.3898 19.9741 12.069L20.6854 10.7387C20.7121 10.6885 20.7219 10.631 20.7133 10.5748C20.7047 10.5186 20.6782 10.4667 20.6377 10.4267L19.601 9.38673C19.561 9.34628 19.509 9.3198 19.4528 9.31122C19.3965 9.30263 19.339 9.31239 19.2887 9.33906L17.9658 10.0454C17.6416 9.86368 17.2983 9.71835 16.9421 9.61206L16.5083 8.17773C16.49 8.12487 16.4553 8.07919 16.4093 8.04727C16.3634 8.01534 16.3084 7.99881 16.2524 8.00007H14.7863C14.73 8.00033 14.6752 8.01854 14.63 8.05205C14.5847 8.08557 14.5514 8.13263 14.5347 8.1864L14.101 9.61639C13.7418 9.72211 13.3956 9.86745 13.0686 10.0497L11.7674 9.34773C11.7171 9.32106 11.6596 9.3113 11.6033 9.31988C11.5471 9.32847 11.4951 9.35495 11.4551 9.39539L10.401 10.4224C10.3606 10.4623 10.334 10.5143 10.3255 10.5705C10.3169 10.6267 10.3266 10.6842 10.3533 10.7344L11.056 12.0344C10.8739 12.3596 10.7284 12.7041 10.6223 13.0614L9.18652 13.4947C9.1327 13.5113 9.08559 13.5446 9.05204 13.5898C9.01849 13.635 9.00026 13.6898 9 13.746V15.2107C9.00026 15.267 9.01849 15.3217 9.05204 15.3669C9.08559 15.4121 9.1327 15.4454 9.18652 15.462L10.6309 15.8954C10.7382 16.2467 10.8837 16.5853 11.0647 16.905L10.3533 18.2657C10.3266 18.3159 10.3169 18.3734 10.3255 18.4296C10.334 18.4858 10.3606 18.5377 10.401 18.5777L11.4377 19.6133C11.4777 19.6538 11.5297 19.6803 11.586 19.6889C11.6422 19.6974 11.6998 19.6877 11.75 19.661L13.0903 18.946C13.4074 19.1169 13.7418 19.2535 14.088 19.3533L14.5217 20.8137C14.5383 20.8674 14.5717 20.9145 14.617 20.948C14.6622 20.9815 14.717 20.9997 14.7733 21H16.2394C16.2957 20.9997 16.3505 20.9815 16.3958 20.948C16.441 20.9145 16.4744 20.8674 16.491 20.8137L16.9247 19.349C17.2679 19.2486 17.5994 19.1121 17.9137 18.9417L19.2627 19.661C19.313 19.6877 19.3705 19.6974 19.4268 19.6889C19.483 19.6803 19.535 19.6538 19.575 19.6133L20.6117 18.5777C20.6522 18.5377 20.6787 18.4858 20.6873 18.4296C20.6959 18.3734 20.6861 18.3159 20.6594 18.2657L19.9394 16.9224C20.1117 16.6072 20.2499 16.2745 20.3514 15.93L21.8132 15.4967C21.867 15.4801 21.9141 15.4468 21.9477 15.4016C21.9812 15.3564 21.9994 15.3016 21.9997 15.2454V13.7677C22.0023 13.7138 21.9883 13.6604 21.9596 13.6147C21.9309 13.569 21.8889 13.5332 21.8392 13.512ZM15.5194 16.8834C15.0475 16.8834 14.5863 16.7436 14.194 16.4817C13.8016 16.2198 13.4959 15.8476 13.3153 15.4121C13.1347 14.9766 13.0875 14.4974 13.1795 14.0351C13.2716 13.5728 13.4988 13.1481 13.8325 12.8148C14.1661 12.4815 14.5912 12.2545 15.054 12.1625C15.5167 12.0705 15.9964 12.1177 16.4323 12.2981C16.8682 12.4785 17.2408 12.784 17.503 13.1759C17.7651 13.5679 17.905 14.0287 17.905 14.5C17.905 15.1321 17.6537 15.7383 17.2063 16.1853C16.7589 16.6323 16.1521 16.8834 15.5194 16.8834Z" fill="#0080FF"/>
<path fill-rule="evenodd" clip-rule="evenodd" d="M4 3C2.89543 3 2 3.89543 2 5V12C2 13.1046 2.89543 14 4 14H7C7 9.58172 10.5817 6 15 6C15.3387 6 15.6724 6.02104 16 6.06189V5C16 3.89543 15.1046 3 14 3H4Z" fill="#ABB4BD"/>
</svg>
