<svg width="32" height="32" viewBox="0 0 32 32" fill="none" xmlns="http://www.w3.org/2000/svg">
<g filter="url(#filter0_d)">
<path d="M28 15C28 8.37258 22.6274 3 16 3C9.37258 3 4 8.37258 4 15C4 21.6274 9.37258 27 16 27C22.6274 27 28 21.6274 28 15Z" fill="white"/>
</g>
<path d="M20.125 12.375H11.125C10.711 12.375 10.375 12.711 10.375 13.125V19.125C10.375 19.539 10.711 19.875 11.125 19.875H20.875C21.289 19.875 21.625 19.539 21.625 19.125V16.875" stroke="#3E596F" stroke-width="1.5" stroke-miterlimit="10" stroke-linecap="round" stroke-linejoin="round"/>
<path d="M17.125 15.375L20.125 12.375L17.125 9.375" stroke="#3E596F" stroke-width="1.5" stroke-miterlimit="10" stroke-linecap="round" stroke-linejoin="round"/>
<defs>
<filter id="filter0_d" x="0" y="0" width="32" height="32" filterUnits="userSpaceOnUse" color-interpolation-filters="sRGB">
<feFlood flood-opacity="0" result="BackgroundImageFix"/>
<feColorMatrix in="SourceAlpha" type="matrix" values="0 0 0 0 0 0 0 0 0 0 0 0 0 0 0 0 0 0 127 0"/>
<feOffset dy="1"/>
<feGaussianBlur stdDeviation="2"/>
<feColorMatrix type="matrix" values="0 0 0 0 0 0 0 0 0 0 0 0 0 0 0 0 0 0 0.08 0"/>
<feBlend mode="normal" in2="BackgroundImageFix" result="effect1_dropShadow"/>
<feBlend mode="normal" in="SourceGraphic" in2="effect1_dropShadow" result="shape"/>
</filter>
</defs>
</svg>
