<svg width="32" height="32" viewBox="0 0 32 32" fill="none" xmlns="http://www.w3.org/2000/svg">
<g filter="url(#filter0_d_44_2268)">
<path d="M28 15C28 8.37258 22.6274 3 16 3C9.37258 3 4 8.37258 4 15C4 21.6274 9.37258 27 16 27C22.6274 27 28 21.6274 28 15Z" fill="white"/>
</g>
<path fill-rule="evenodd" clip-rule="evenodd" d="M20.0742 15.3039L16.9375 14.258V14.0913C16.2911 14.5455 15.7866 15.1746 15.4838 15.9057C15.2421 16.4892 15.1372 17.1176 15.1737 17.7432H17.25V16.8058H21V16.5881C21 16.0053 20.6271 15.488 20.0742 15.3039ZM14.3392 17.7432C14.3035 17.0086 14.4301 16.2719 14.7139 15.5868C15.0923 14.6732 15.7332 13.8923 16.5554 13.3429C16.6796 13.2599 16.8071 13.1828 16.9375 13.1116V11.7492L17.9833 11.4002C18.1675 11.3389 18.2916 11.1664 18.2916 10.9723V9.61816H12.875V10.9723C12.875 11.1664 12.9991 11.3389 13.1833 11.4002L14.2291 11.7492V14.2584L11.0924 15.3039C10.5395 15.488 10.1666 16.0053 10.1666 16.5881V17.7432H14.3392ZM14.4664 18.6461C14.5396 18.9573 14.6423 19.2595 14.7722 19.5489H11.0694V18.6461H14.4664ZM15.705 19.5489C15.5445 19.2646 15.4175 18.9617 15.3273 18.6461H20.0972V19.5489H15.705Z" fill="#7A7A7A"/>
<path d="M19.3333 13.3335C18.5092 13.3335 17.7036 13.5779 17.0184 14.0357C16.3332 14.4935 15.7992 15.1443 15.4838 15.9056C15.1684 16.667 15.0859 17.5048 15.2467 18.313C15.4075 19.1213 15.8043 19.8637 16.387 20.4464C16.9697 21.0292 17.7122 21.426 18.5204 21.5868C19.3287 21.7475 20.1664 21.665 20.9278 21.3497C21.6892 21.0343 22.3399 20.5002 22.7978 19.815C23.2556 19.1298 23.5 18.3243 23.5 17.5002C23.5 16.3951 23.061 15.3353 22.2796 14.5539C21.4982 13.7725 20.4384 13.3335 19.3333 13.3335ZM21.4166 18.1946H17.25V16.8057H21.4166V18.1946Z" fill="#EA2134"/>
<defs>
<filter id="filter0_d_44_2268" x="0" y="0" width="32" height="32" filterUnits="userSpaceOnUse" color-interpolation-filters="sRGB">
<feFlood flood-opacity="0" result="BackgroundImageFix"/>
<feColorMatrix in="SourceAlpha" type="matrix" values="0 0 0 0 0 0 0 0 0 0 0 0 0 0 0 0 0 0 127 0" result="hardAlpha"/>
<feOffset dy="1"/>
<feGaussianBlur stdDeviation="2"/>
<feColorMatrix type="matrix" values="0 0 0 0 0 0 0 0 0 0 0 0 0 0 0 0 0 0 0.08 0"/>
<feBlend mode="normal" in2="BackgroundImageFix" result="effect1_dropShadow_44_2268"/>
<feBlend mode="normal" in="SourceGraphic" in2="effect1_dropShadow_44_2268" result="shape"/>
</filter>
</defs>
</svg>
