<svg width="24" height="24" viewBox="0 0 24 24" fill="none" xmlns="http://www.w3.org/2000/svg">
<path d="M12.9066 21.159H18.3459C19.378 21.159 20.2427 20.7964 20.9121 20.099C21.5816 19.4296 22 18.537 22 17.5328V6.62622C22 5.62204 21.5816 4.72943 20.9121 4.05997C20.2427 3.39052 19.3501 3 18.3459 3H12.9066V5.28731H18.3459C19.1269 5.28731 19.7127 5.87308 19.7127 6.62622V17.5328C19.7127 18.2859 19.1269 18.8996 18.3459 18.8996H12.9066V21.159ZM2 9.91771V14.2692C2 14.7713 2.41841 15.1897 2.9205 15.1897H7.99721V18.6206C7.99721 18.9275 8.13668 19.1785 8.41562 19.318C8.5272 19.3459 8.66667 19.3459 8.72246 19.3459C8.91771 19.3459 9.08508 19.2901 9.22455 19.1506L15.7796 12.5955C16.0307 12.3445 16.0028 11.8424 15.7796 11.5635L9.22455 5.03626C9.00139 4.81311 8.72246 4.78522 8.41562 4.8689C8.13668 5.00837 7.99721 5.23152 7.99721 5.53835V8.99721H2.9205C2.41841 8.99721 2 9.41562 2 9.91771Z" fill="#95A1AC"/>
</svg>
