<svg xmlns="http://www.w3.org/2000/svg" width="23.828" height="28.416" viewBox="0 0 23.828 28.416">
  <g id="d-education-test-note-of-qualification" transform="translate(-2.697)">
    <g id="Group_53299" data-name="Group 53299" transform="translate(2.697)">
      <path id="Path_488" data-name="Path 488" d="M19.821,14.9v1.1h-1.1v.959h1.1v1.1h.958v-1.1h1.1v-.959h-1.1V14.9Z" transform="translate(-10.217 -10.599)" fill="#9e9e9e"/>
      <path id="Path_490" data-name="Path 490" d="M12.4,18.056a1.741,1.741,0,0,0,1.116-1.136A2.906,2.906,0,0,0,13.649,16a3.142,3.142,0,0,0-.1-.811,1.96,1.96,0,0,0-.339-.7A1.729,1.729,0,0,0,12.592,14a2.07,2.07,0,0,0-.927-.188H9.438v4.4H11.4A2.966,2.966,0,0,0,12.4,18.056Zm-1.6-.974V14.937h.432a1.165,1.165,0,0,1,.583.123.9.9,0,0,1,.321.3.913.913,0,0,1,.136.348,1.915,1.915,0,0,1,.028.28,1.994,1.994,0,0,1-.034.345,1.026,1.026,0,0,1-.136.358.85.85,0,0,1-.293.28.97.97,0,0,1-.506.114h-.531Z" transform="translate(-5.706 -10.066)" fill="#9e9e9e"/>
      <path id="Path_491" data-name="Path 491" d="M21.341,0l-.207.019L21.115,0H2.7V28.416H26.525V5.186Zm3.42,26.787H4.323V1.672H20.256v4.68h4.5V26.787Z" transform="translate(-2.697)" fill="#9e9e9e"/>
      <path id="Path_503" data-name="Path 503" d="M272,224.916a.916.916,0,0,0,.916.916h5.5a.916.916,0,1,0,0-1.833h-5.5A.916.916,0,0,0,272,224.916Z" transform="translate(-259.169 -212.525)" fill="#9e9e9e"/>
      <path id="Path_504" data-name="Path 504" d="M164.582,225.833a.916.916,0,1,0,0-1.833h-3.666a.916.916,0,1,0,0,1.833Z" transform="translate(-153.584 -212.525)" fill="#9e9e9e"/>
      <path id="Path_505" data-name="Path 505" d="M346.291,288h-1.375a.916.916,0,0,0,0,1.833h1.375a.916.916,0,0,0,0-1.833Z" transform="translate(-327.045 -272.859)" fill="#9e9e9e"/>
      <path id="Path_506" data-name="Path 506" d="M112,288.916a.917.917,0,0,0,.916.917h10.54a.916.916,0,1,0,0-1.833h-10.54A.916.916,0,0,0,112,288.916Z" transform="translate(-108.334 -272.859)" fill="#9e9e9e"/>
      <path id="Path_507" data-name="Path 507" d="M210.54,352h-9.623a.916.916,0,1,0,0,1.833h9.623a.916.916,0,1,0,0-1.833Z" transform="translate(-196.293 -329.193)" fill="#9e9e9e"/>
      <path id="Path_510" data-name="Path 510" d="M127.5,416H112.916a.916.916,0,0,0,0,1.833H127.5a.916.916,0,1,0,0-1.833Z" transform="translate(-108.334 -397.001)" fill="#9e9e9e"/>
    </g>
  </g>
</svg>
