<svg width="24" height="24" viewBox="0 0 24 24" fill="none" xmlns="http://www.w3.org/2000/svg">
<path d="M15.3332 7.33333C15.3332 8.21739 14.982 9.06523 14.3569 9.69036C13.7317 10.3155 12.8839 10.6667 11.9998 10.6667C11.1158 10.6667 10.2679 10.3155 9.64281 9.69036C9.01769 9.06523 8.6665 8.21739 8.6665 7.33333C8.6665 6.44928 9.01769 5.60143 9.64281 4.97631C10.2679 4.35119 11.1158 4 11.9998 4C12.8839 4 13.7317 4.35119 14.3569 4.97631C14.982 5.60143 15.3332 6.44928 15.3332 7.33333Z" fill="#95A1AC"/>
<path d="M20.8888 9.55547C20.8888 10.1448 20.6547 10.7101 20.2379 11.1268C19.8212 11.5436 19.2559 11.7777 18.6666 11.7777C18.0772 11.7777 17.512 11.5436 17.0952 11.1268C16.6785 10.7101 16.4443 10.1448 16.4443 9.55547C16.4443 8.9661 16.6785 8.40087 17.0952 7.98413C17.512 7.56738 18.0772 7.33325 18.6666 7.33325C19.2559 7.33325 19.8212 7.56738 20.2379 7.98413C20.6547 8.40087 20.8888 8.9661 20.8888 9.55547Z" fill="#95A1AC"/>
<path d="M16.4446 17.3336C16.4446 16.1549 15.9763 15.0244 15.1428 14.1909C14.3093 13.3574 13.1788 12.8892 12.0001 12.8892C10.8214 12.8892 9.69091 13.3574 8.85741 14.1909C8.02392 15.0244 7.55566 16.1549 7.55566 17.3336V20.6669H16.4446V17.3336Z" fill="#95A1AC"/>
<path d="M7.55528 9.55547C7.55528 10.1448 7.32116 10.7101 6.90441 11.1268C6.48766 11.5436 5.92243 11.7777 5.33306 11.7777C4.74369 11.7777 4.17846 11.5436 3.76171 11.1268C3.34497 10.7101 3.11084 10.1448 3.11084 9.55547C3.11084 8.9661 3.34497 8.40087 3.76171 7.98413C4.17846 7.56738 4.74369 7.33325 5.33306 7.33325C5.92243 7.33325 6.48766 7.56738 6.90441 7.98413C7.32116 8.40087 7.55528 8.9661 7.55528 9.55547Z" fill="#95A1AC"/>
<path d="M18.6668 20.6667V17.3334C18.6684 16.2037 18.3816 15.0923 17.8335 14.1045C18.3261 13.9784 18.841 13.9665 19.3389 14.0697C19.8368 14.1729 20.3046 14.3885 20.7065 14.6999C21.1084 15.0114 21.4339 15.4106 21.6581 15.8669C21.8823 16.3233 21.9993 16.8249 22.0002 17.3334V20.6667H18.6668Z" fill="#95A1AC"/>
<path d="M6.16667 14.1044C5.61861 15.0922 5.33178 16.2036 5.33333 17.3333V20.6666H2V17.3333C1.99979 16.8244 2.11607 16.3223 2.33994 15.8653C2.56381 15.4084 2.88933 15.0088 3.29154 14.6971C3.69375 14.3854 4.16198 14.1699 4.66034 14.0672C5.15871 13.9644 5.67398 13.9772 6.16667 14.1044Z" fill="#95A1AC"/>
</svg>
