<svg width="24" height="24" viewBox="0 0 24 24" fill="none" xmlns="http://www.w3.org/2000/svg">
<path d="M20.1792 5.8671C20.1043 5.78157 20.0126 5.71242 19.9098 5.66398C19.8069 5.61554 19.6952 5.58884 19.5816 5.58556C17.8162 5.5394 15.5823 3.65171 14.1054 2.91094C13.1931 2.45479 12.5908 2.15402 12.1385 2.07479C12.0466 2.06141 11.9533 2.06167 11.8616 2.07556C11.4092 2.15479 10.8069 2.45556 9.8954 2.91171C8.41848 3.65171 6.18463 5.5394 4.41924 5.58556C4.30553 5.58901 4.19373 5.61578 4.09079 5.66421C3.98784 5.71264 3.89594 5.78169 3.82078 5.8671C3.66499 6.04335 3.58461 6.27372 3.59694 6.50864C3.97617 14.2186 6.74155 18.9902 11.5939 21.7633C11.72 21.8348 11.86 21.8717 11.9992 21.8717C12.1385 21.8717 12.2785 21.8348 12.4054 21.7633C17.2577 18.9902 20.0223 14.2186 20.4023 6.50864C20.4154 6.27376 20.3352 6.04322 20.1792 5.8671ZM16.3208 8.8994L12.2262 14.9417C12.0792 15.1586 11.8485 15.3025 11.62 15.3025C11.3908 15.3025 11.1362 15.1771 10.9754 15.0163L8.08924 12.1294C7.99502 12.0348 7.94211 11.9068 7.94211 11.7733C7.94211 11.6397 7.99502 11.5117 8.08924 11.4171L8.80232 10.7025C8.8971 10.6086 9.02509 10.556 9.15847 10.556C9.29186 10.556 9.41985 10.6086 9.51463 10.7025L11.3916 12.5794L14.6523 7.76633C14.7278 7.65619 14.8437 7.58037 14.9749 7.55544C15.106 7.53051 15.2417 7.55848 15.3523 7.63325L16.1869 8.1994C16.2972 8.27473 16.3732 8.39063 16.3983 8.5218C16.4233 8.65296 16.3955 8.78871 16.3208 8.8994Z" fill="#95A1AC"/>
</svg>
