<svg width="32" height="32" viewBox="0 0 32 32" fill="none" xmlns="http://www.w3.org/2000/svg">
    <g clip-path="url(#clip0_2559_23464)">
        <path d="M2.64648 6.29883V14.189C2.64648 14.4595 2.87192 14.6699 3.12741 14.6699H13.858C14.1286 14.6699 14.339 14.4445 14.339 14.189V6.29883H2.64648V6.29883ZM10.9274 9.31964C10.9274 9.59016 10.702 9.80056 10.4465 9.80056H6.53897C6.26845 9.80056 6.05804 9.57513 6.05804 9.31964V8.34276C6.05804 8.07224 6.28348 7.86183 6.53897 7.86183H10.4465C10.717 7.86183 10.9274 8.08727 10.9274 8.34276V9.31964Z" fill="#DBDDE0" />
        <path d="M14.504 2.33105H2.48093C2.2104 2.33105 2 2.55649 2 2.81198V5.65244H15V2.82701C14.985 2.55649 14.7746 2.33105 14.504 2.33105Z" fill="#DBDDE0" />
    </g>
    <circle cx="14.5" cy="14.5" r="6.5" fill="white" />
    <path d="M22 16C22 16.7879 21.8448 17.5681 21.5433 18.2961C21.2417 19.0241 20.7998 19.6855 20.2426 20.2426C19.6855 20.7998 19.0241 21.2417 18.2961 21.5433C17.5681 21.8448 16.7879 22 16 22C15.2121 22 14.4319 21.8448 13.7039 21.5433C12.9759 21.2417 12.3145 20.7998 11.7574 20.2426C11.2002 19.6855 10.7583 19.0241 10.4567 18.2961C10.1552 17.5681 10 16.7879 10 16C10 14.4087 10.6321 12.8826 11.7574 11.7574C12.8826 10.6321 14.4087 10 16 10C17.5913 10 19.1174 10.6321 20.2426 11.7574C21.3679 12.8826 22 14.4087 22 16V16ZM16.6667 13.3333C16.6667 13.1565 16.5964 12.987 16.4714 12.8619C16.3464 12.7369 16.1768 12.6667 16 12.6667C15.8232 12.6667 15.6536 12.7369 15.5286 12.8619C15.4036 12.987 15.3333 13.1565 15.3333 13.3333V15.3333H13.3333C13.1565 15.3333 12.987 15.4036 12.8619 15.5286C12.7369 15.6536 12.6667 15.8232 12.6667 16C12.6667 16.1768 12.7369 16.3464 12.8619 16.4714C12.987 16.5964 13.1565 16.6667 13.3333 16.6667H15.3333V18.6667C15.3333 18.8435 15.4036 19.013 15.5286 19.1381C15.6536 19.2631 15.8232 19.3333 16 19.3333C16.1768 19.3333 16.3464 19.2631 16.4714 19.1381C16.5964 19.013 16.6667 18.8435 16.6667 18.6667V16.6667H18.6667C18.8435 16.6667 19.013 16.5964 19.1381 16.4714C19.2631 16.3464 19.3333 16.1768 19.3333 16C19.3333 15.8232 19.2631 15.6536 19.1381 15.5286C19.013 15.4036 18.8435 15.3333 18.6667 15.3333H16.6667V13.3333Z" fill="#0080FF" />
    <rect x="15" y="11" width="2" height="4.34" fill="#0080FF" />
    <rect x="17" y="20.3398" width="2" height="3.67" transform="rotate(-180 17 20.3398)" fill="#0080FF" />
    <defs>
        <clipPath id="clip0_2559_23464">
            <rect width="13" height="13" fill="white" transform="translate(2 2)" />
        </clipPath>
    </defs>
</svg>