<svg width="36" height="37" viewBox="0 0 36 37" fill="none" xmlns="http://www.w3.org/2000/svg">
<path d="M22.4998 9.85889C21.6853 9.85889 20.9428 10.1397 20.3398 10.5951C21.1273 11.6463 21.5998 12.9468 21.5998 14.3589V15.2589C21.5998 16.1166 21.4261 16.9347 21.1138 17.6808C21.5413 17.859 22.0084 17.9589 22.4998 17.9589C24.4879 17.9589 26.0998 16.347 26.0998 14.3589V13.4589C26.0998 11.4708 24.4879 9.85889 22.4998 9.85889Z" fill="#E2E2E2"/>
<path d="M15.2998 19.7589C12.8149 19.7589 10.7998 17.7438 10.7998 15.2589V14.3589C10.7998 11.874 12.8149 9.85889 15.2998 9.85889C17.7847 9.85889 19.7998 11.874 19.7998 14.3589V15.2589C19.7998 17.7438 17.7847 19.7589 15.2998 19.7589Z" fill="#E2E2E2"/>
<path d="M27.7551 21.0233C26.5995 20.4923 24.6186 19.7588 22.5 19.7588C21.4245 19.7588 20.385 19.9487 19.4697 20.2043C19.8081 20.2745 20.1474 20.3456 20.4867 20.432C23.1066 21.0998 24.9597 23.3795 25.1595 26.0588H27.9C28.3968 26.0588 28.8 25.6556 28.8 25.1588V22.6577C28.8 21.9539 28.395 21.3167 27.7551 21.0233Z" fill="#E2E2E2"/>
<path d="M22.5002 27.8588H8.1002C7.6034 27.8588 7.2002 27.4556 7.2002 26.9588V26.5313C7.2002 24.4838 8.5745 22.682 10.5581 22.1762C11.8847 21.8378 13.5191 21.5588 15.3002 21.5588C17.0813 21.5588 18.7157 21.8378 20.0423 22.1762C22.0259 22.682 23.4002 24.4838 23.4002 26.5313V26.9588C23.4002 27.4556 22.997 27.8588 22.5002 27.8588Z" fill="#E2E2E2"/>
</svg>
