<svg width="22" height="24" viewBox="0 0 22 24" fill="none" xmlns="http://www.w3.org/2000/svg">
    <path fill-rule="evenodd" clip-rule="evenodd" d="M6.00156 0.0999756H5.10156V0.999976V1.09998H1.00156H0.101562V1.99998V23V23.9H1.00156H21.0016H21.9016V23V1.99998V1.09998H21.0016H16.9016V0.999976V0.0999756H16.0016H6.00156ZM15.1016 2.89998V1.89998H6.90156V2.89998V6.09998H8.24384C8.62237 4.93874 9.7137 4.09998 11.0016 4.09998C12.2894 4.09998 13.3808 4.93874 13.7593 6.09998H15.1016V2.89998ZM5.10156 2.89998V6.99998V7.89998H6.00156H9.00156H9.90156V6.99998C9.90156 6.39203 10.3936 5.89998 11.0016 5.89998C11.6095 5.89998 12.1016 6.39203 12.1016 6.99998V7.89998H13.0016H16.0016H16.9016V6.99998V2.89998H20.1016V22.1H1.90156V2.89998H5.10156ZM15.2744 13L14.638 13.6364L10.638 17.6364L10.0016 18.2728L9.36517 17.6364L7.36517 15.6364L6.72877 15L8.00156 13.7272L8.63796 14.3636L10.0016 15.7272L13.3652 12.3636L14.0016 11.7272L15.2744 13Z" fill="#9e9e9e" />
</svg>
