<svg width="76" height="76" viewBox="0 0 76 76" fill="none" xmlns="http://www.w3.org/2000/svg">
<path d="M39.002 70.5H4.55469C3.75904 70.5 2.99598 70.1839 2.43337 69.6213C1.87076 69.0587 1.55469 68.2956 1.55469 67.5V4.5C1.55469 3.70435 1.87076 2.94129 2.43337 2.37868C2.99598 1.81607 3.75904 1.5 4.55469 1.5H44.4337C45.2293 1.50017 45.9922 1.81635 46.5547 2.379L57.6757 13.5C58.2383 14.0625 58.5545 14.8254 58.5547 15.621V30.5" fill="#F3F5F8"/>
<path d="M10.5547 46.5H23.5547" stroke="#B5C7DA" stroke-width="3" stroke-linecap="round" stroke-linejoin="round"/>
<path d="M11 33H28" stroke="#B5C7DA" stroke-width="3" stroke-linecap="round" stroke-linejoin="round"/>
<path d="M11.4453 19.5H41.4453" stroke="#B5C7DA" stroke-width="3" stroke-linecap="round" stroke-linejoin="round"/>
<path d="M52.4258 73C63.7476 73 72.9258 63.8218 72.9258 52.5C72.9258 41.1782 63.7476 32 52.4258 32C41.1039 32 31.9258 41.1782 31.9258 52.5C31.9258 63.8218 41.1039 73 52.4258 73Z" fill="#D02F44" stroke="white" stroke-width="5" stroke-linecap="round" stroke-linejoin="round"/>
<path fill-rule="evenodd" clip-rule="evenodd" d="M58.7701 48.261C59.3559 47.6753 59.3561 46.7256 58.7704 46.1397C58.1847 45.5538 57.2349 45.5537 56.6491 46.1394L52.4056 50.3817L48.1621 46.1394C47.5762 45.5537 46.6265 45.5538 46.0408 46.1397C45.455 46.7256 45.4552 47.6753 46.0411 48.261L50.2839 52.5027L46.0411 56.7444C45.4552 57.3301 45.455 58.2798 46.0408 58.8657C46.6265 59.4516 47.5762 59.4517 48.1621 58.866L52.4056 54.6237L56.6491 58.866C57.2349 59.4517 58.1847 59.4516 58.7704 58.8657C59.3561 58.2798 59.3559 57.3301 58.7701 56.7444L54.5272 52.5027L58.7701 48.261Z" fill="white"/>
</svg>
