<svg width="76" height="76" viewBox="0 0 76 76" fill="none" xmlns="http://www.w3.org/2000/svg">
<path d="M39.002 70.5H4.55469C3.75904 70.5 2.99598 70.1839 2.43337 69.6213C1.87076 69.0587 1.55469 68.2956 1.55469 67.5V4.5C1.55469 3.70435 1.87076 2.94129 2.43337 2.37868C2.99598 1.81607 3.75904 1.5 4.55469 1.5H44.4337C45.2293 1.50017 45.9922 1.81635 46.5547 2.379L57.6757 13.5C58.2383 14.0625 58.5545 14.8254 58.5547 15.621V30.5" fill="#D7EBFF"/>
<path d="M10.5547 46.5H23.5547" stroke="#64ADF7" stroke-width="3" stroke-linecap="round" stroke-linejoin="round"/>
<path d="M11 33H28" stroke="#64ADF7" stroke-width="3" stroke-linecap="round" stroke-linejoin="round"/>
<path d="M11.4453 19.5H41.4453" stroke="#64ADF7" stroke-width="3" stroke-linecap="round" stroke-linejoin="round"/>
<path d="M52.4258 73C63.7476 73 72.9258 63.8218 72.9258 52.5C72.9258 41.1782 63.7476 32 52.4258 32C41.1039 32 31.9258 41.1782 31.9258 52.5C31.9258 63.8218 41.1039 73 52.4258 73Z" fill="#27AE60" stroke="white" stroke-width="5" stroke-linecap="round" stroke-linejoin="round"/>
<path d="M60.4494 47.2646L51.7494 58.8866C51.5559 59.1443 51.3093 59.3574 51.0263 59.5115C50.7433 59.6656 50.4305 59.7571 50.1091 59.7799C49.7877 59.8027 49.4651 59.7561 49.1633 59.6434C48.8614 59.5307 48.5872 59.3545 48.3594 59.1266L43.8594 54.6266" stroke="white" stroke-width="3" stroke-linecap="round" stroke-linejoin="round"/>
</svg>
