<svg width="40" height="20" viewBox="0 0 40 20" fill="none" xmlns="http://www.w3.org/2000/svg">
<rect width="40" height="20" rx="20" fill="#ECEEF0"/>
<path d="M14.4389 13.168C13.8949 13.168 13.4309 12.984 13.0469 12.616C12.6629 12.232 12.4709 11.752 12.4709 11.176C12.4709 10.584 12.6549 10.104 13.0229 9.736C13.4069 9.368 13.8789 9.184 14.4389 9.184C14.9989 9.184 15.4629 9.368 15.8309 9.736C16.2149 10.104 16.4069 10.584 16.4069 11.176C16.4069 11.752 16.2149 12.232 15.8309 12.616C15.4469 12.984 14.9829 13.168 14.4389 13.168ZM20.4983 13.168C19.9543 13.168 19.4903 12.984 19.1063 12.616C18.7223 12.232 18.5303 11.752 18.5303 11.176C18.5303 10.584 18.7143 10.104 19.0823 9.736C19.4663 9.368 19.9383 9.184 20.4983 9.184C21.0583 9.184 21.5223 9.368 21.8903 9.736C22.2743 10.104 22.4663 10.584 22.4663 11.176C22.4663 11.752 22.2743 12.232 21.8903 12.616C21.5063 12.984 21.0423 13.168 20.4983 13.168ZM26.5577 13.168C26.0137 13.168 25.5497 12.984 25.1657 12.616C24.7817 12.232 24.5897 11.752 24.5897 11.176C24.5897 10.584 24.7737 10.104 25.1417 9.736C25.5257 9.368 25.9977 9.184 26.5577 9.184C27.1177 9.184 27.5817 9.368 27.9497 9.736C28.3337 10.104 28.5257 10.584 28.5257 11.176C28.5257 11.752 28.3337 12.232 27.9497 12.616C27.5657 12.984 27.1017 13.168 26.5577 13.168Z" fill="#ABB4BD"/>
</svg>
