<svg width="36" height="36" viewBox="0 0 36 36" fill="none" xmlns="http://www.w3.org/2000/svg">
<rect x="6" y="6" width="24" height="24" rx="3" stroke="#9E9E9E" fill="none" stroke-width="2" />
<path d="M24 25.1179V23.4709C24 22.5972 23.6839 21.7594 23.1213 21.1416C22.5587 20.5238 21.7956 20.1768 21 20.1768H15C14.2044 20.1768 13.4413 20.5238 12.8787 21.1416C12.3161 21.7594 12 22.5972 12 23.4709V25.1179" stroke="#9E9E9E" stroke-width="1.41176" stroke-linecap="round" stroke-linejoin="round"/>
<path d="M18 17.3529C19.7543 17.3529 21.1764 15.9308 21.1764 14.1765C21.1764 12.4222 19.7543 11 18 11C16.2456 11 14.8235 12.4222 14.8235 14.1765C14.8235 15.9308 16.2456 17.3529 18 17.3529Z" stroke="#9E9E9E" stroke-width="1.41176" stroke-linecap="round" stroke-linejoin="round"/>
</svg>
