<svg width="24" height="24" viewBox="0 0 24 24" fill="none" xmlns="http://www.w3.org/2000/svg">
<path d="M11.8943 11.0832C13.0047 11.0832 13.9663 10.6849 14.752 9.89908C15.5377 9.11339 15.936 8.15206 15.936 7.04146C15.936 5.93123 15.5377 4.96977 14.7519 4.18384C13.9661 3.39828 13.0046 3 11.8943 3C10.7836 3 9.82231 3.39828 9.03663 4.18396C8.25095 4.96965 7.85254 5.93111 7.85254 7.04146C7.85254 8.15206 8.25095 9.11352 9.03676 9.8992C9.82257 10.6848 10.784 11.0832 11.8943 11.0832Z" fill="#909295"/>
<path d="M18.966 15.9032C18.9433 15.5762 18.8975 15.2195 18.83 14.8429C18.7619 14.4634 18.6742 14.1047 18.5692 13.7768C18.4608 13.4379 18.3133 13.1033 18.131 12.7826C17.9418 12.4497 17.7195 12.1599 17.4702 11.9214C17.2094 11.6718 16.8901 11.4712 16.5209 11.3249C16.1529 11.1793 15.7452 11.1056 15.309 11.1056C15.1377 11.1056 14.972 11.1759 14.6521 11.3842C14.4552 11.5126 14.2249 11.6611 13.9678 11.8253C13.748 11.9654 13.4502 12.0966 13.0824 12.2154C12.7235 12.3316 12.3592 12.3904 11.9996 12.3904C11.64 12.3904 11.2757 12.3316 10.9165 12.2154C10.5491 12.0968 10.2513 11.9655 10.0317 11.8255C9.77708 11.6628 9.54664 11.5142 9.34679 11.384C9.02724 11.1758 8.86145 11.1055 8.69016 11.1055C8.25385 11.1055 7.84623 11.1793 7.47841 11.325C7.10945 11.4711 6.79003 11.6717 6.52899 11.9215C6.27973 12.1601 6.05735 12.4498 5.86839 12.7826C5.68621 13.1033 5.53872 13.4378 5.43016 13.7769C5.32531 14.1048 5.23761 14.4634 5.1695 14.8429C5.10203 15.219 5.0562 15.5758 5.03354 15.9035C5.01127 16.2246 5 16.5579 5 16.8944C5 17.7704 5.27845 18.4795 5.82755 19.0025C6.36985 19.5186 7.08743 19.7804 7.96004 19.7804H16.0399C16.9125 19.7804 17.6298 19.5187 18.1722 19.0025C18.7215 18.4799 18.9999 17.7706 18.9999 16.8943C18.9998 16.5562 18.9884 16.2227 18.966 15.9032Z" fill="#909295"/>
<path d="M5.83333 0H3.5C1.57033 0 0 1.57033 0 3.5V5.83333C0 6.4785 0.522667 7 1.16667 7C1.81067 7 2.33333 6.4785 2.33333 5.83333V3.5C2.33333 2.856 2.85717 2.33333 3.5 2.33333H5.83333C6.47733 2.33333 7 1.81183 7 1.16667C7 0.5215 6.47733 0 5.83333 0Z" fill="#909295"/>
<path d="M5.83333 21.6667H3.5C2.85717 21.6667 2.33333 21.144 2.33333 20.5V18.1667C2.33333 17.5215 1.81067 17 1.16667 17C0.522667 17 0 17.5215 0 18.1667V20.5C0 22.4297 1.57033 24 3.5 24H5.83333C6.47733 24 7 23.4785 7 22.8333C7 22.1882 6.47733 21.6667 5.83333 21.6667Z" fill="#909295"/>
<path d="M20.5 0H18.1667C17.5227 0 17 0.5215 17 1.16667C17 1.81183 17.5227 2.33333 18.1667 2.33333H20.5C21.1428 2.33333 21.6667 2.856 21.6667 3.5V5.83333C21.6667 6.4785 22.1893 7 22.8333 7C23.4773 7 24 6.4785 24 5.83333V3.5C24 1.57033 22.4297 0 20.5 0Z" fill="#909295"/>
<path d="M20.5 24H18.1667C17.5227 24 17 23.4785 17 22.8333C17 22.1882 17.5227 21.6667 18.1667 21.6667H20.5C21.1428 21.6667 21.6667 21.144 21.6667 20.5V18.1667C21.6667 17.5215 22.1893 17 22.8333 17C23.4773 17 24 17.5215 24 18.1667V20.5C24 22.4297 22.4297 24 20.5 24Z" fill="#909295"/>
</svg>
