<svg xmlns="http://www.w3.org/2000/svg" width="25.29" height="23.119" viewBox="0 0 25.29 23.119">
  <g id="Group_53868" data-name="Group 53868" transform="translate(-1507 -407.332)">
    <g id="warning_1_" data-name="warning (1)" transform="translate(1507 407.332)">
      <g id="Group_53867" data-name="Group 53867" transform="translate(0 0)">
        <path id="Path_531" data-name="Path 531" d="M168.177,254.938a1.3,1.3,0,1,0,0,2.6,1.3,1.3,0,0,0,0-2.6Z" transform="translate(-155.532 -238.692)" fill="#ea2134"/>
        <path id="Path_532" data-name="Path 532" d="M24.674,36.821a4.438,4.438,0,0,0,.01-4.492l-8.141-14.1a4.486,4.486,0,0,0-7.788-.005L.6,32.339a4.5,4.5,0,0,0,3.9,6.748H20.765A4.477,4.477,0,0,0,24.674,36.821ZM22.907,35.8a2.457,2.457,0,0,1-2.147,1.243H4.5a2.423,2.423,0,0,1-2.121-1.217,2.46,2.46,0,0,1-.005-2.48l8.152-14.109a2.448,2.448,0,0,1,4.253.005l8.146,14.109A2.427,2.427,0,0,1,22.907,35.8Z" transform="translate(0 -15.969)" fill="#ea2134"/>
        <rect id="Rectangle_931" data-name="Rectangle 931" width="1.917" height="8.627" rx="0.959" transform="translate(11.502 7.141)" fill="#ea2134"/>
      </g>
    </g>
  </g>
</svg>
