<svg width="16" height="16" viewBox="0 0 16 16" fill="none" xmlns="http://www.w3.org/2000/svg">
<path d="M7.9977 12.6103C8.43482 12.6103 8.78917 12.2559 8.78917 11.8188C8.78917 11.3817 8.43482 11.0273 7.9977 11.0273C7.56059 11.0273 7.20624 11.3817 7.20624 11.8188C7.20624 12.2559 7.56059 12.6103 7.9977 12.6103Z" fill="#DBDDE0"/>
<path d="M8 2.56434e-06C6.41775 2.56434e-06 4.87104 0.469194 3.55544 1.34825C2.23985 2.2273 1.21447 3.47673 0.608967 4.93854C0.00346629 6.40034 -0.15496 8.00888 0.153721 9.56073C0.462403 11.1126 1.22433 12.538 2.34315 13.6569C3.46197 14.7757 4.88743 15.5376 6.43928 15.8463C7.99113 16.155 9.59966 15.9965 11.0615 15.391C12.5233 14.7855 13.7727 13.7602 14.6518 12.4446C15.5308 11.129 16 9.58225 16 8C16.0008 6.94919 15.7945 5.90852 15.3928 4.93754C14.991 3.96656 14.4018 3.08431 13.6587 2.34127C12.9157 1.59824 12.0335 1.00899 11.0625 0.607252C10.0915 0.205513 9.05082 -0.000839095 8 2.56434e-06ZM8 14.7467C6.66504 14.7471 5.35993 14.3516 4.24977 13.6102C3.13961 12.8688 2.27427 11.8148 1.7632 10.5815C1.25214 9.34824 1.11831 7.99111 1.37864 6.68177C1.63898 5.37243 2.28178 4.16971 3.22575 3.22575C4.16971 2.28178 5.37243 1.63898 6.68177 1.37864C7.99111 1.11831 9.34824 1.25213 10.5815 1.7632C11.8148 2.27426 12.8688 3.13961 13.6102 4.24977C14.3516 5.35993 14.7471 6.66503 14.7467 8C14.747 8.88607 14.5726 9.7635 14.2337 10.5822C13.8947 11.4008 13.3978 12.1447 12.7712 12.7712C12.1447 13.3978 11.4008 13.8947 10.5822 14.2337C9.7635 14.5726 8.88607 14.747 8 14.7467Z" fill="#DBDDE0"/>
<path d="M7.99897 3.97461C7.32735 3.97546 6.68348 4.24264 6.20857 4.71755C5.73366 5.19246 5.46648 5.83632 5.46564 6.50794C5.46564 6.67598 5.53239 6.83715 5.65122 6.95597C5.77004 7.0748 5.93119 7.14154 6.09923 7.14154C6.26727 7.14154 6.42844 7.0748 6.54726 6.95597C6.66608 6.83715 6.73284 6.67598 6.73284 6.50794C6.73284 6.25731 6.80716 6.01231 6.9464 5.80392C7.08564 5.59553 7.28355 5.43312 7.5151 5.33721C7.74665 5.2413 8.00145 5.21619 8.24726 5.26509C8.49307 5.31398 8.71887 5.43468 8.89609 5.6119C9.07331 5.78912 9.19399 6.01491 9.24288 6.26073C9.29178 6.50654 9.26669 6.76132 9.17078 6.99287C9.07487 7.22442 8.91244 7.42235 8.70405 7.56159C8.49566 7.70083 8.25067 7.77515 8.00005 7.77515C7.832 7.77515 7.67084 7.8419 7.55201 7.96073C7.43319 8.07955 7.36644 8.2407 7.36644 8.40874V9.99168C7.36644 10.0749 7.38282 10.1573 7.41466 10.2341C7.4465 10.311 7.49318 10.3809 7.55201 10.4397C7.61085 10.4985 7.68069 10.5452 7.75756 10.5771C7.83444 10.6089 7.91684 10.6253 8.00005 10.6253C8.08325 10.6253 8.16564 10.6089 8.24251 10.5771C8.31938 10.5452 8.38922 10.4985 8.44806 10.4397C8.50689 10.3809 8.55357 10.311 8.58541 10.2341C8.61725 10.1573 8.63364 10.0749 8.63364 9.99168V8.96128C9.23108 8.80747 9.75186 8.44093 10.0983 7.93045C10.4447 7.41997 10.5929 6.80062 10.5152 6.18862C10.4374 5.57662 10.139 5.01403 9.67592 4.6064C9.21286 4.19877 8.61697 3.97413 8.00005 3.97461H7.99897Z" fill="#DBDDE0"/>
</svg>
