<svg width="40" height="40" viewBox="0 0 40 40" fill="none" xmlns="http://www.w3.org/2000/svg">
<path d="M0 8C0 3.58172 3.58172 0 8 0H32C36.4183 0 40 3.58172 40 8V32C40 36.4183 36.4183 40 32 40H8C3.58172 40 0 36.4183 0 32V8Z" fill="white"/>
<path d="M31 12V18H25" stroke="#646F79" stroke-width="2" stroke-linecap="round" stroke-linejoin="round"/>
<path d="M9 28V22H15" stroke="#646F79" stroke-width="2" stroke-linecap="round" stroke-linejoin="round"/>
<path d="M11.51 17C12.0172 15.5667 12.8791 14.2854 14.0155 13.2754C15.1518 12.2654 16.5255 11.5597 18.0083 11.2242C19.4911 10.8887 21.0348 10.9343 22.4952 11.3567C23.9556 11.7792 25.2853 12.5647 26.36 13.64L31 18M9 22L13.64 26.36C14.7147 27.4352 16.0444 28.2207 17.5048 28.6432C18.9652 29.0656 20.5089 29.1112 21.9917 28.7757C23.4745 28.4402 24.8482 27.7345 25.9845 26.7245C27.1209 25.7145 27.9828 24.4332 28.49 23" stroke="#646F79" stroke-width="2" stroke-linecap="round" stroke-linejoin="round"/>
<path d="M8 1H32V-1H8V1ZM39 8V32H41V8H39ZM32 39H8V41H32V39ZM1 32V8H-1V32H1ZM8 39C4.13401 39 1 35.866 1 32H-1C-1 36.9706 3.02944 41 8 41V39ZM39 32C39 35.866 35.866 39 32 39V41C36.9706 41 41 36.9706 41 32H39ZM32 1C35.866 1 39 4.13401 39 8H41C41 3.02944 36.9706 -1 32 -1V1ZM8 -1C3.02944 -1 -1 3.02944 -1 8H1C1 4.13401 4.13401 1 8 1V-1Z" fill="#DBDDE0"/>
</svg>
