<svg width="80" height="80" viewBox="0 0 80 80" fill="none" xmlns="http://www.w3.org/2000/svg">
<g clip-path="url(#clip0_104_9065)">
<path d="M40 16.4266C17.8922 16.4266 0 34.3167 0 56.4266C0 57.3873 0.778676 58.1658 1.73915 58.1658C2.51064 58.1658 32.4836 58.1658 33.0682 58.1658C33.8471 61.2687 36.659 63.5734 40 63.5734C43.341 63.5734 46.1529 61.2687 46.9318 58.1658C47.5117 58.1658 77.4671 58.1658 78.2608 58.1658C79.2213 58.1658 80 57.3873 80 56.4266C80 34.319 62.1099 16.4266 40 16.4266ZM41.7389 19.9453C50.2642 20.3423 58.2574 23.6532 64.5663 29.4007C61.476 32.4911 61.5193 32.4477 58.4533 35.5135C53.8086 31.4017 47.9641 28.9736 41.7389 28.5905V19.9453ZM38.2606 19.9453V28.5905H38.2608C32.1337 28.968 26.2825 31.3258 21.5465 35.5135C18.4849 32.4521 18.5264 32.4934 15.4335 29.4007C21.7424 23.6532 29.7355 20.3423 38.2606 19.9453ZM3.51865 54.6875C3.91564 46.1622 7.22629 38.169 12.9738 31.8603L19.0868 37.9731C15.0947 42.4854 12.5562 48.28 12.1636 54.6875H3.51865ZM40 60.0951C37.9773 60.0951 36.3316 58.4494 36.3316 56.4266C36.3316 54.4037 37.9773 52.7582 40 52.7582C41.9933 52.7582 43.6684 54.4085 43.6684 56.4266C43.6684 58.4496 42.0227 60.0951 40 60.0951ZM45.6859 52.1026C45.2761 51.5647 44.8439 51.1433 44.3238 50.741L48.7876 47.6391L45.6859 52.1026ZM48.1253 54.6875L57.1575 41.6898C58.2595 40.1044 56.32 38.1683 54.7371 39.2691L40.3209 49.2871C36.8603 49.1343 33.8782 51.4661 33.0671 54.6875H15.6505C16.5484 41.9268 27.1519 32.0159 40 32.0159C52.895 32.0157 63.4563 41.994 64.3495 54.6875H48.1253ZM67.8362 54.6875C67.457 48.4771 65.0373 42.638 60.9129 37.9731L67.0259 31.8603C72.7735 38.169 76.0844 46.1622 76.4811 54.6875H67.8362Z" fill="#DBDDE0"/>
</g>
<defs>
<clipPath id="clip0_104_9065">
<rect width="80" height="80" fill="white"/>
</clipPath>
</defs>
</svg>
