<svg width="24" height="24" viewBox="0 0 24 24" fill="none" xmlns="http://www.w3.org/2000/svg">
<path d="M13.8762 22H10.1245C9.88939 22 9.66137 21.9221 9.47821 21.7792C9.29506 21.6362 9.16777 21.4368 9.11747 21.214L8.69798 19.33C8.13837 19.0921 7.60775 18.7946 7.11586 18.443L5.22248 19.028C4.99837 19.0973 4.75656 19.0902 4.5372 19.0078C4.31783 18.9254 4.13412 18.7727 4.01657 18.575L2.13659 15.424C2.02027 15.2261 1.97661 14.9958 2.01274 14.7708C2.04888 14.5457 2.16267 14.3392 2.33551 14.185L3.80425 12.885C3.73746 12.2961 3.73746 11.7019 3.80425 11.113L2.33551 9.816C2.16243 9.66177 2.04848 9.45507 2.01234 9.22978C1.9762 9.00449 2.02001 8.77397 2.13659 8.576L4.01245 5.423C4.13 5.22532 4.31371 5.07259 4.53307 4.99019C4.75243 4.90778 4.99425 4.90066 5.21836 4.97L7.11174 5.555C7.36323 5.375 7.62503 5.207 7.89507 5.055C8.15583 4.913 8.42381 4.784 8.69798 4.669L9.1185 2.787C9.16856 2.5642 9.29561 2.36469 9.47857 2.22155C9.66153 2.07841 9.88942 2.00024 10.1245 2H13.8762C14.1112 2.00024 14.3391 2.07841 14.5221 2.22155C14.705 2.36469 14.8321 2.5642 14.8821 2.787L15.3068 4.67C15.5954 4.794 15.8778 4.933 16.1509 5.088C16.4055 5.231 16.6518 5.388 16.8889 5.557L18.7833 4.972C19.0073 4.90292 19.2489 4.91017 19.468 4.99256C19.6871 5.07495 19.8707 5.22753 19.9882 5.425L21.864 8.578C22.1032 8.985 22.0207 9.5 21.6651 9.817L20.1964 11.117C20.2632 11.7059 20.2632 12.3001 20.1964 12.889L21.6651 14.189C22.0207 14.507 22.1032 15.021 21.864 15.428L19.9882 18.581C19.8706 18.7787 19.6869 18.9314 19.4676 19.0138C19.2482 19.0962 19.0064 19.1033 18.7823 19.034L16.8889 18.449C16.3974 18.8003 15.8671 19.0975 15.3078 19.335L14.8821 21.214C14.8319 21.4366 14.7047 21.6359 14.5218 21.7788C14.3388 21.9218 14.1111 21.9998 13.8762 22ZM11.9962 8C10.9028 8 9.85412 8.42143 9.08095 9.17157C8.30779 9.92172 7.87342 10.9391 7.87342 12C7.87342 13.0609 8.30779 14.0783 9.08095 14.8284C9.85412 15.5786 10.9028 16 11.9962 16C13.0896 16 14.1383 15.5786 14.9114 14.8284C15.6846 14.0783 16.119 13.0609 16.119 12C16.119 10.9391 15.6846 9.92172 14.9114 9.17157C14.1383 8.42143 13.0896 8 11.9962 8Z" fill="#95A1AC"/>
</svg>
