<svg width="248" height="248" viewBox="0 0 248 248" fill="none" xmlns="http://www.w3.org/2000/svg">
<path d="M225.851 105.595L203.614 87.4152V53.6918C203.614 46.8771 198.071 41.3333 191.254 41.3333H158.714C156.484 41.3333 154.677 43.1403 154.677 45.3698C154.677 47.5993 156.484 49.4062 158.714 49.4062H191.254C193.618 49.4062 195.542 51.3299 195.542 53.6918V125.336L142.568 165.612L89.5939 125.336V89.3467C89.5939 89.3467 89.5939 89.3451 89.5939 89.3435V53.6918C89.5939 51.3299 91.5175 49.4062 93.8811 49.4062H126.422C128.651 49.4062 130.458 47.5993 130.458 45.3698C130.458 43.1403 128.651 41.3333 126.422 41.3333H93.8811C87.0648 41.3333 81.521 46.8771 81.521 53.6918V87.4152L59.2842 105.595C58.3461 106.361 57.8021 107.509 57.8021 108.72V153.533H39.638C37.4085 153.533 35.6016 155.34 35.6016 157.569C35.6016 159.797 37.4085 161.606 39.638 161.606H57.8021V203.35C57.8021 210.164 63.3459 215.708 70.1606 215.708H214.975C221.79 215.708 227.333 210.164 227.333 203.35V108.72C227.333 107.509 226.789 106.361 225.851 105.595ZM219.26 201.514L171.501 153.755L219.26 117.444V201.514ZM203.614 97.8422L217.149 108.908L203.614 119.198V97.8422ZM142.568 174.719C143.429 174.719 144.29 174.445 145.012 173.896L165.016 158.687L213.964 207.635H71.1713L120.12 158.687L140.125 173.896C140.846 174.445 141.707 174.719 142.568 174.719ZM65.875 117.444L113.635 153.755L65.875 201.514V117.444ZM81.521 119.198L67.9863 108.908L81.521 97.8422V119.198Z" fill="#43A4FF"/>
<path d="M46.5001 179.366H24.7032C22.4737 179.366 20.6667 181.173 20.6667 183.402C20.6667 185.63 22.4737 187.439 24.7032 187.439H46.5001C48.7296 187.439 50.5365 185.63 50.5365 183.402C50.5365 181.173 48.7296 179.366 46.5001 179.366Z" fill="#43A4FF"/>
<path d="M142.568 49.4062C143.629 49.4062 144.671 48.9742 145.422 48.2237C146.172 47.4731 146.604 46.4309 146.604 45.3698C146.604 44.3086 146.172 43.2664 145.422 42.5159C144.671 41.7653 143.629 41.3333 142.568 41.3333C141.507 41.3333 140.464 41.7653 139.714 42.5159C138.963 43.2664 138.531 44.3086 138.531 45.3698C138.531 46.4309 138.963 47.4731 139.714 48.2237C140.464 48.9742 141.507 49.4062 142.568 49.4062Z" fill="#43A4FF"/>
<path d="M109.819 99.8588C109.819 117.917 124.509 132.609 142.568 132.609C160.626 132.609 175.317 117.917 175.317 99.8588C175.317 81.8004 160.626 67.1099 142.568 67.1099C124.509 67.1099 109.819 81.8004 109.819 99.8588ZM167.244 99.8588C167.244 113.466 156.175 124.536 142.568 124.536C128.96 124.536 117.892 113.466 117.892 99.8588C117.892 86.2515 128.96 75.1828 142.568 75.1828C156.175 75.1828 167.244 86.2531 167.244 99.8588Z" fill="#43A4FF"/>
<path d="M136.28 96.1314C134.703 94.5546 132.148 94.5546 130.572 96.1314C128.995 97.7065 128.995 100.262 130.572 101.839L137.697 108.964C138.485 109.753 139.518 110.147 140.551 110.147C141.584 110.147 142.616 109.753 143.405 108.964L155.908 96.4609C157.484 94.8858 157.484 92.3299 155.908 90.7531C154.332 89.1764 151.776 89.1764 150.199 90.7531L140.551 100.401L136.28 96.1314Z" fill="#43A4FF"/>
</svg>
