<svg width="72" height="72" viewBox="0 0 72 72" fill="none" xmlns="http://www.w3.org/2000/svg">
<path d="M40.125 49.9998C33.8541 49.9998 28.6436 48.6419 25.25 46.3618C25.25 47.9471 25.25 48.9926 25.25 49.9998C25.25 53.5209 31.9097 56.3748 40.125 56.3748C48.3403 56.3748 55 53.5209 55 49.9998C55 48.9926 55 47.9471 55 46.3618C51.6064 48.6419 46.3959 49.9998 40.125 49.9998ZM40.125 60.6248C33.8541 60.6248 28.6436 59.2669 25.25 56.9868C25.25 58.5721 25.25 59.6176 25.25 60.6248C25.25 64.1459 31.9097 66.9998 40.125 66.9998C48.3403 66.9998 55 64.1459 55 60.6248C55 59.6176 55 58.5721 55 56.9868C51.6064 59.2669 46.3959 60.6248 40.125 60.6248Z" fill="#D8DDE4"/>
<path d="M40.125 45.75C48.3402 45.75 55 42.8958 55 39.375C55 35.8542 48.3402 33 40.125 33C31.9098 33 25.25 35.8542 25.25 39.375C25.25 42.8958 31.9098 45.75 40.125 45.75Z" fill="#D8DDE4"/>
<path d="M18.875 28.75C27.0902 28.75 33.75 25.8958 33.75 22.375C33.75 18.8542 27.0902 16 18.875 16C10.6598 16 4 18.8542 4 22.375C4 25.8958 10.6598 28.75 18.875 28.75Z" fill="#D8DDE4"/>
<path d="M21 54.1924C20.3051 54.2264 19.5996 54.2498 18.875 54.2498C12.6041 54.2498 7.39363 52.8919 4 50.6118C4 52.1971 4 53.2426 4 54.2498C4 57.7709 10.6597 60.6248 18.875 60.6248C19.5975 60.6248 20.3051 60.5951 21 60.5526V54.1924ZM21 43.5674C20.3051 43.6014 19.5996 43.6248 18.875 43.6248C12.6041 43.6248 7.39363 42.2669 4 39.9868C4 41.5721 4 42.6176 4 43.6248C4 47.1459 10.6597 49.9998 18.875 49.9998C19.5975 49.9998 20.3051 49.9701 21 49.9276V43.5674ZM25.08 32.5026C23.1632 32.8213 21.0893 32.9998 18.875 32.9998C12.6041 32.9998 7.39363 31.6419 4 29.3618C4 30.9471 4 31.9926 4 32.9998C4 36.5209 10.6597 39.3748 18.875 39.3748C19.5996 39.3748 20.3073 39.3451 21.0064 39.3026C21.0319 36.6187 22.5088 34.2876 25.08 32.5026Z" fill="#D8DDE4"/>
<path d="M48 49.5C59.3218 49.5 68.5 40.3218 68.5 29C68.5 17.6782 59.3218 8.5 48 8.5C36.6782 8.5 27.5 17.6782 27.5 29C27.5 40.3218 36.6782 49.5 48 49.5Z" fill="#D02F44" stroke="white" stroke-width="5" stroke-linecap="round" stroke-linejoin="round"/>
<path fill-rule="evenodd" clip-rule="evenodd" d="M54.3414 24.761C54.9272 24.1753 54.9274 23.2256 54.3417 22.6397C53.756 22.0538 52.8062 22.0537 52.2203 22.6394L47.9769 26.8817L43.7334 22.6394C43.1475 22.0537 42.1977 22.0538 41.612 22.6397C41.0263 23.2256 41.0265 24.1753 41.6123 24.761L45.8552 29.0027L41.6123 33.2444C41.0265 33.8301 41.0263 34.7798 41.612 35.3657C42.1977 35.9516 43.1475 35.9517 43.7334 35.366L47.9769 31.1237L52.2203 35.366C52.8062 35.9517 53.756 35.9516 54.3417 35.3657C54.9274 34.7798 54.9272 33.8301 54.3414 33.2444L50.0985 29.0027L54.3414 24.761Z" fill="white"/>
</svg>
