<svg width="16" height="16" viewBox="0 0 16 16" fill="none" xmlns="http://www.w3.org/2000/svg">
<path fill-rule="evenodd" clip-rule="evenodd" d="M3.00065 5.44379C3.30748 5.44379 3.55621 5.69252 3.55621 5.99935V12.666H12.4451V5.99935C12.4451 5.69252 12.6938 5.44379 13.0007 5.44379C13.3075 5.44379 13.5562 5.69252 13.5562 5.99935V13.2216C13.5562 13.5284 13.3075 13.7771 13.0007 13.7771H3.00065C2.69383 13.7771 2.4451 13.5284 2.4451 13.2216V5.99935C2.4451 5.69252 2.69383 5.44379 3.00065 5.44379Z" fill="#95A1AC"/>
<path fill-rule="evenodd" clip-rule="evenodd" d="M1.33398 3.22157C1.33398 2.91475 1.58272 2.66602 1.88954 2.66602H14.1118C14.4186 2.66602 14.6673 2.91475 14.6673 3.22157V5.99935C14.6673 6.30617 14.4186 6.5549 14.1118 6.5549H1.88954C1.58272 6.5549 1.33398 6.30617 1.33398 5.99935V3.22157ZM2.4451 3.77713V5.44379H13.5562V3.77713H2.4451Z" fill="#95A1AC"/>
<path fill-rule="evenodd" clip-rule="evenodd" d="M6.33398 8.22157C6.33398 7.91475 6.58272 7.66601 6.88954 7.66601H9.11176C9.41859 7.66601 9.66732 7.91475 9.66732 8.22157C9.66732 8.5284 9.41859 8.77713 9.11176 8.77713H6.88954C6.58272 8.77713 6.33398 8.5284 6.33398 8.22157Z" fill="#95A1AC"/>
</svg>
