<svg width="24" height="24" viewBox="0 0 24 24" fill="none" xmlns="http://www.w3.org/2000/svg">
<path d="M11.5789 7.71429V2H5.89474C5.39222 2 4.91029 2.20068 4.55496 2.55789C4.19962 2.9151 4 3.39959 4 3.90476V19.1429C4 19.648 4.19962 20.1325 4.55496 20.4897C4.91029 20.8469 5.39222 21.0476 5.89474 21.0476H12.3463C11.585 20.2516 11.0498 19.265 10.7964 18.1905H10.3947C10.2063 18.1905 10.0256 18.1152 9.89232 17.9813C9.75907 17.8473 9.68421 17.6656 9.68421 17.4762C9.68421 17.2867 9.75907 17.1051 9.89232 16.9711C10.0256 16.8372 10.2063 16.7619 10.3947 16.7619H10.6316C10.6316 16.2705 10.6884 15.7924 10.7964 15.3333H10.3947C10.2063 15.3333 10.0256 15.2581 9.89232 15.1241C9.75907 14.9902 9.68421 14.8085 9.68421 14.619C9.68421 14.4296 9.75907 14.2479 9.89232 14.114C10.0256 13.98 10.2063 13.9048 10.3947 13.9048H11.3251C11.5963 13.3822 11.9402 12.9012 12.3463 12.4762H10.3947C10.2063 12.4762 10.0256 12.4009 9.89232 12.267C9.75907 12.133 9.68421 11.9513 9.68421 11.7619C9.68421 11.5725 9.75907 11.3908 9.89232 11.2568C10.0256 11.1229 10.2063 11.0476 10.3947 11.0476H14.4173C15.1688 10.7323 15.9751 10.5704 16.7895 10.5714C17.6288 10.5714 18.4284 10.74 19.1579 11.0457V9.61905H13.4737C12.9712 9.61905 12.4892 9.41837 12.1339 9.06116C11.7786 8.70394 11.5789 8.21946 11.5789 7.71429ZM6.84211 11.7619C6.84211 11.5725 6.91696 11.3908 7.05021 11.2568C7.18346 11.1229 7.36419 11.0476 7.55263 11.0476C7.74108 11.0476 7.9218 11.1229 8.05505 11.2568C8.1883 11.3908 8.26316 11.5725 8.26316 11.7619C8.26316 11.9513 8.1883 12.133 8.05505 12.267C7.9218 12.4009 7.74108 12.4762 7.55263 12.4762C7.36419 12.4762 7.18346 12.4009 7.05021 12.267C6.91696 12.133 6.84211 11.9513 6.84211 11.7619ZM6.84211 14.619C6.84211 14.4296 6.91696 14.2479 7.05021 14.114C7.18346 13.98 7.36419 13.9048 7.55263 13.9048C7.74108 13.9048 7.9218 13.98 8.05505 14.114C8.1883 14.2479 8.26316 14.4296 8.26316 14.619C8.26316 14.8085 8.1883 14.9902 8.05505 15.1241C7.9218 15.2581 7.74108 15.3333 7.55263 15.3333C7.36419 15.3333 7.18346 15.2581 7.05021 15.1241C6.91696 14.9902 6.84211 14.8085 6.84211 14.619ZM6.84211 17.4762C6.84211 17.2867 6.91696 17.1051 7.05021 16.9711C7.18346 16.8372 7.36419 16.7619 7.55263 16.7619C7.74108 16.7619 7.9218 16.8372 8.05505 16.9711C8.1883 17.1051 8.26316 17.2867 8.26316 17.4762C8.26316 17.6656 8.1883 17.8473 8.05505 17.9813C7.9218 18.1152 7.74108 18.1905 7.55263 18.1905C7.36419 18.1905 7.18346 18.1152 7.05021 17.9813C6.91696 17.8473 6.84211 17.6656 6.84211 17.4762ZM13 7.71429V2.47619L18.6842 8.19048H13.4737C13.3481 8.19048 13.2276 8.14031 13.1387 8.051C13.0499 7.9617 13 7.84058 13 7.71429ZM22 16.7619C22 15.3727 21.451 14.0403 20.4739 13.058C19.4967 12.0757 18.1714 11.5238 16.7895 11.5238C15.4076 11.5238 14.0822 12.0757 13.1051 13.058C12.1279 14.0403 11.5789 15.3727 11.5789 16.7619C11.5789 18.1511 12.1279 19.4835 13.1051 20.4658C14.0822 21.4481 15.4076 22 16.7895 22C18.1714 22 19.4967 21.4481 20.4739 20.4658C21.451 19.4835 22 18.1511 22 16.7619ZM16.5242 17.16C16.4492 17.1102 16.3899 17.0399 16.3532 16.9574C16.3164 16.875 16.3038 16.7837 16.3167 16.6943L16.3158 12.9524C16.3158 12.8261 16.3657 12.705 16.4545 12.6157C16.5434 12.5264 16.6638 12.4762 16.7895 12.4762C16.9151 12.4762 17.0356 12.5264 17.1244 12.6157C17.2133 12.705 17.2632 12.8261 17.2632 12.9524L17.2641 16.2857H19.6287C19.7544 16.2857 19.8748 16.3359 19.9637 16.4252C20.0525 16.5145 20.1024 16.6356 20.1024 16.7619C20.1024 16.8882 20.0525 17.0093 19.9637 17.0986C19.8748 17.1879 19.7544 17.2381 19.6287 17.2381H16.8463C16.7331 17.2513 16.619 17.2236 16.5242 17.16Z" fill="#95A1AC"/>
</svg>
