<svg width="16" height="16" viewBox="0 0 16 16" fill="none" xmlns="http://www.w3.org/2000/svg">
<path fill-rule="evenodd" clip-rule="evenodd" d="M7.39435 6.78829C7.05964 6.78829 6.78829 7.05964 6.78829 7.39435V12.8489C6.78829 13.1836 7.05964 13.455 7.39435 13.455H12.8489C13.1836 13.455 13.455 13.1836 13.455 12.8489V7.39435C13.455 7.05964 13.1836 6.78829 12.8489 6.78829H7.39435ZM5.57617 7.39435C5.57617 6.3902 6.3902 5.57617 7.39435 5.57617H12.8489C13.8531 5.57617 14.6671 6.3902 14.6671 7.39435V12.8489C14.6671 13.8531 13.8531 14.6671 12.8489 14.6671H7.39435C6.3902 14.6671 5.57617 13.8531 5.57617 12.8489V7.39435Z" fill="#95A1AC"/>
<path fill-rule="evenodd" clip-rule="evenodd" d="M3.15217 2.54611C2.99143 2.54611 2.83728 2.60996 2.72362 2.72362C2.60996 2.83728 2.54611 2.99143 2.54611 3.15217V8.60671C2.54611 8.76745 2.60996 8.9216 2.72362 9.03526C2.83728 9.14892 2.99143 9.21277 3.15217 9.21277H3.75823C4.09295 9.21277 4.36429 9.48412 4.36429 9.81883C4.36429 10.1536 4.09295 10.4249 3.75823 10.4249H3.15217C2.66995 10.4249 2.20749 10.2333 1.86652 9.89236C1.52554 9.55139 1.33398 9.08892 1.33398 8.60671V3.15217C1.33398 2.66995 1.52554 2.20749 1.86652 1.86652C2.20749 1.52554 2.66995 1.33398 3.15217 1.33398H8.60671C9.08892 1.33398 9.55139 1.52554 9.89236 1.86652C10.2333 2.20749 10.4249 2.66995 10.4249 3.15217V3.75823C10.4249 4.09295 10.1536 4.36429 9.81883 4.36429C9.48412 4.36429 9.21277 4.09295 9.21277 3.75823V3.15217C9.21277 2.99143 9.14892 2.83728 9.03526 2.72362C8.9216 2.60996 8.76745 2.54611 8.60671 2.54611H3.15217Z" fill="#95A1AC"/>
</svg>
