<svg width="72" height="72" viewBox="0 0 72 72" fill="none" xmlns="http://www.w3.org/2000/svg">
    <g clip-path="url(#clip0)">
        <path d="M39 70.5H4.55273C3.75708 70.5 2.99402 70.1839 2.43141 69.6213C1.8688 69.0587 1.55273 68.2956 1.55273 67.5V4.5C1.55273 3.70435 1.8688 2.94129 2.43141 2.37868C2.99402 1.81607 3.75708 1.5 4.55273 1.5H44.4317C45.2273 1.50017 45.9903 1.81635 46.5527 2.379L57.6737 13.5C58.2364 14.0625 58.5526 14.8254 58.5527 15.621V30.5" fill="#F7F6F6" />
        <path d="M10.5527 46.5H23.5527" stroke="#C2C2C2" stroke-width="3" stroke-linecap="round" stroke-linejoin="round" />
        <path d="M11 33H28" stroke="#C2C2C2" stroke-width="3" stroke-linecap="round" stroke-linejoin="round" />
        <path d="M11.4473 19.5H41.4473" stroke="#C2C2C2" stroke-width="3" stroke-linecap="round" stroke-linejoin="round" />
        <path d="M52.4258 73C63.7476 73 72.9258 63.8218 72.9258 52.5C72.9258 41.1782 63.7476 32 52.4258 32C41.1039 32 31.9258 41.1782 31.9258 52.5C31.9258 63.8218 41.1039 73 52.4258 73Z" fill="#FF9800" stroke="white" stroke-width="5" stroke-linecap="round" stroke-linejoin="round" />
        <g clip-path="url(#clip1)">
            <path d="M52.4277 42.4167V46.0833" stroke="white" stroke-width="1.8" stroke-miterlimit="10" stroke-linecap="round" />
            <path opacity="0.9" d="M59.5596 45.3702L56.9668 47.963" stroke="white" stroke-width="1.8" stroke-miterlimit="10" stroke-linecap="round" />
            <path opacity="0.8" d="M62.5124 52.5H58.8457" stroke="white" stroke-width="1.8" stroke-miterlimit="10" stroke-linecap="round" />
            <path opacity="0.7" d="M59.5596 59.6298L56.9668 57.037" stroke="white" stroke-width="1.8" stroke-miterlimit="10" stroke-linecap="round" />
            <path opacity="0.6" d="M52.4277 62.5833V58.9167" stroke="white" stroke-width="1.8" stroke-miterlimit="10" stroke-linecap="round" />
            <path opacity="0.5" d="M45.2988 59.6298L47.8916 57.037" stroke="white" stroke-width="1.8" stroke-miterlimit="10" stroke-linecap="round" />
            <path opacity="0.4" d="M42.3457 52.5H46.0124" stroke="white" stroke-width="1.8" stroke-miterlimit="10" stroke-linecap="round" />
            <path opacity="0.3" d="M45.2988 45.3702L47.8916 47.963" stroke="white" stroke-width="1.8" stroke-miterlimit="10" stroke-linecap="round" />
        </g>
    </g>
    <defs>
        <clipPath id="clip0">
            <rect width="72" height="72" fill="white" />
        </clipPath>
        <clipPath id="clip1">
            <rect width="22" height="22" fill="white" transform="translate(41.4297 41.5)" />
        </clipPath>
    </defs>
</svg>