<svg width="20" height="23" viewBox="0 0 20 23" fill="none" xmlns="http://www.w3.org/2000/svg">
<path fill-rule="evenodd" clip-rule="evenodd" d="M7.77778 2.22222C7.48309 2.22222 7.20048 2.33929 6.9921 2.54766C6.78373 2.75603 6.66667 3.03865 6.66667 3.33333C6.66667 3.62802 6.78373 3.91063 6.9921 4.11901C7.20048 4.32738 7.48309 4.44444 7.77778 4.44444H12.2222C12.5169 4.44444 12.7995 4.32738 13.0079 4.11901C13.2163 3.91063 13.3333 3.62802 13.3333 3.33333C13.3333 3.03865 13.2163 2.75603 13.0079 2.54766C12.7995 2.33929 12.5169 2.22222 12.2222 2.22222H7.77778ZM7.77778 1.38851e-07C7.0882 -0.000198809 6.41553 0.213399 5.85239 0.611378C5.28925 1.00936 4.86335 1.57214 4.63333 2.22222H3.33333C2.44928 2.22222 1.60143 2.57341 0.976311 3.19853C0.35119 3.82365 0 4.6715 0 5.55556V18.8889C0 19.7729 0.35119 20.6208 0.976311 21.2459C1.60143 21.871 2.44928 22.2222 3.33333 22.2222H16.6667C17.5507 22.2222 18.3986 21.871 19.0237 21.2459C19.6488 20.6208 20 19.7729 20 18.8889V5.55556C20 4.6715 19.6488 3.82365 19.0237 3.19853C18.3986 2.57341 17.5507 2.22222 16.6667 2.22222H15.3667C15.1367 1.57214 14.7108 1.00936 14.1476 0.611378C13.5845 0.213399 12.9118 -0.000198809 12.2222 1.38851e-07H7.77778ZM5.55556 8.88889C5.26087 8.88889 4.97826 9.00595 4.76988 9.21433C4.56151 9.4227 4.44444 9.70532 4.44444 10C4.44444 10.2947 4.56151 10.5773 4.76988 10.7857C4.97826 10.994 5.26087 11.1111 5.55556 11.1111H14.4444C14.7391 11.1111 15.0217 10.994 15.2301 10.7857C15.4385 10.5773 15.5556 10.2947 15.5556 10C15.5556 9.70532 15.4385 9.4227 15.2301 9.21433C15.0217 9.00595 14.7391 8.88889 14.4444 8.88889H5.55556ZM5.55556 13.3333C5.26087 13.3333 4.97826 13.4504 4.76988 13.6588C4.56151 13.8671 4.44444 14.1498 4.44444 14.4444C4.44444 14.7391 4.56151 15.0217 4.76988 15.2301C4.97826 15.4385 5.26087 15.5556 5.55556 15.5556H10C10.2947 15.5556 10.5773 15.4385 10.7857 15.2301C10.994 15.0217 11.1111 14.7391 11.1111 14.4444C11.1111 14.1498 10.994 13.8671 10.7857 13.6588C10.5773 13.4504 10.2947 13.3333 10 13.3333H5.55556Z" fill="#F1F1F1"/>
</svg>
