<svg width="24" height="24" viewBox="0 0 24 24" fill="none" xmlns="http://www.w3.org/2000/svg">
<path d="M20.5864 6.86033C19.2195 4.57423 17.0435 2.95692 14.4592 2.30623C11.8749 1.65555 9.19181 2.04938 6.90398 3.41532C5.76474 4.09549 4.77664 4.99333 3.99463 6.05083L3.54312 4.31296L2.40674 4.60774L3.37914 8.35085L7.12513 7.37919L6.83013 6.24363L4.9524 6.73069C5.64028 5.80532 6.50706 5.01886 7.50616 4.42238C9.52477 3.21725 11.8923 2.86971 14.1724 3.44383C16.4525 4.01794 18.3725 5.44496 19.5786 7.46201C20.3994 8.83479 20.8308 10.4008 20.8261 11.9908L22.0002 11.9942C22.0055 10.1913 21.5166 8.41597 20.5864 6.86033Z" fill="#95A1AC"/>
<path d="M21.588 19.3992L20.6184 15.6554L16.8717 16.6243L17.1658 17.7601L19.0439 17.2744C18.3553 18.1992 17.488 18.985 16.4885 19.5808C14.469 20.7844 12.1014 21.1303 9.82157 20.5545C7.54184 19.9787 5.6229 18.5503 4.41834 16.5323C3.59852 15.1589 3.16831 13.5926 3.17414 12.0026L2.00007 11.9983C1.99345 13.8013 2.481 15.577 3.41001 17.1333C4.77526 19.4204 6.95006 21.0393 9.53388 21.6919C10.35 21.898 11.1759 21.9999 11.9963 21.9999C13.7733 21.9999 15.5241 21.5217 17.0899 20.5883C18.2297 19.909 19.2184 19.0118 20.0012 17.9549L20.4514 19.6931L21.588 19.3992Z" fill="#95A1AC"/>
<path d="M11.5859 12.4487V13.794H12.6869C13.058 13.794 13.36 13.4923 13.36 13.1214C13.36 12.7505 13.058 12.4487 12.6869 12.4487H11.5859Z" fill="#95A1AC"/>
<path d="M12.0024 6.0957C8.73953 6.0957 6.08496 8.74827 6.08496 12.0087C6.08496 15.2691 8.73953 17.9217 12.0024 17.9217C15.2653 17.9217 17.9199 15.2691 17.9199 12.0087C17.9199 8.74827 15.2653 6.0957 12.0024 6.0957ZM12.6869 14.9673H12.5897V15.7133H11.4157V14.9673H9.70752V13.7941H10.4119V10.1697H9.70752V8.99651H11.4157V8.25049H12.5897V9.00899C13.4463 9.11035 14.1129 9.83995 14.1129 10.7227C14.1129 11.0728 14.0077 11.3988 13.8276 11.6712C14.2574 12.0095 14.5341 12.5336 14.5341 13.1214C14.5341 14.1392 13.7054 14.9673 12.6869 14.9673Z" fill="#95A1AC"/>
<path d="M12.9388 10.7226C12.9388 10.4177 12.6906 10.1697 12.3854 10.1697H11.5859V11.2756H12.3854C12.6906 11.2756 12.9388 11.0275 12.9388 10.7226Z" fill="#95A1AC"/>
</svg>
