<svg width="162" height="36" viewBox="0 0 162 36" fill="none" xmlns="http://www.w3.org/2000/svg">
<path d="M141.734 15.2664V19.2197H121.052V16.486C121.052 16.0655 121.094 15.6449 121.136 15.2244H141.734V15.2664Z" fill="#00E27B"/>
<path d="M126.084 9.46248C129.299 9.46248 131.16 11.3971 131.16 14.8036V26.2428H136.024V14.0466C136.024 8.5793 132.852 5.21482 127.734 5.21482H127.522C127.48 5.21482 124.265 5.13071 121.432 6.98117L121.009 7.23351V5.50921H116.145V26.2428H121.009V14.8036C121.051 11.5653 123.039 9.46248 126.084 9.46248Z" fill="white"/>
<path d="M121.642 15.2662H92.5001V19.2195H121.642V15.2662Z" fill="#00E27B"/>
<path d="M28.55 13.6679L28.6346 13.3315C29.2267 10.724 31.1723 9.12588 33.837 9.04177C36.8823 8.95765 38.8279 10.5978 39.1663 13.3315L39.2086 13.6259L39.3354 15.7287L28.2539 15.5605L28.55 13.6679ZM44.2841 15.4343C44.2841 15.3502 44.2841 15.3081 44.2841 15.224C44.2841 14.5932 44.2418 14.0044 44.1149 13.4577C43.3113 8.41093 39.4623 5.17261 33.9639 5.17261C28.5077 5.17261 24.6165 8.41093 23.686 13.4577C23.5591 14.0044 23.5168 14.5932 23.4745 15.224C23.4745 15.4343 23.4745 15.6446 23.4745 15.8969C23.4745 16.4016 23.5168 16.9483 23.5591 17.4109C23.6437 18.0418 23.7283 18.6306 23.8974 19.1773C24.7434 22.3315 26.9005 24.6866 30.0726 25.8642C33.7947 27.2941 39.5892 26.6633 42.3385 24.5605V20.2287C39.7161 22.1633 37.1361 22.9203 33.9639 22.6259C31.8068 22.4577 29.6074 21.238 28.7615 19.2193C28.55 18.7147 28.4231 18.1259 28.4231 17.5371V17.453V17.2848H44.1149C44.2418 16.738 44.2841 16.1072 44.2841 15.4343Z" fill="white"/>
<path d="M64.2485 17.5373V17.8317C64.2485 18.2943 64.2062 18.7569 64.1216 19.2195H23.9405C23.7714 18.6728 23.6868 18.084 23.6022 17.4532C23.5599 16.9485 23.5176 16.4438 23.5176 15.9391C23.5176 15.7289 23.5176 15.4765 23.5176 15.2662H63.8678C64.1216 15.9391 64.2485 16.7382 64.2485 17.5373Z" fill="#00E27B"/>
<path d="M110.349 26.2431V5.50942H105.443V7.90661L104.977 7.48605C104.343 6.89727 102.313 5.25708 98.929 5.25708C98.3369 5.25708 97.6601 5.29914 96.9834 5.4253C92.0348 6.30848 88.5665 10.5982 88.5665 15.8973C88.5665 21.1963 92.0348 25.4861 96.9834 26.3692C101.509 27.1683 104.216 24.9814 104.935 24.3085L105.4 23.8879V26.2851H110.349V26.2431ZM99.3943 22.416C96.0529 22.416 93.3883 19.472 93.3883 15.8552C93.3883 12.2384 96.0952 9.29446 99.3943 9.29446C102.651 9.29446 105.358 12.1543 105.4 15.687V15.9814C105.358 19.5561 102.651 22.416 99.3943 22.416Z" fill="white"/>
<path d="M69.1954 25.9065V5.50929H64.2891V7.90648L63.8238 7.48592C63.1048 6.81302 60.3556 4.62611 55.8722 5.42517C50.9236 6.30835 47.4553 10.5981 47.4553 15.8971C47.4553 21.1962 50.9236 25.4859 55.8722 26.3691C60.3979 27.1682 63.1048 24.9812 63.8238 24.3083L64.2891 23.8878V25.9485C64.2891 26.0326 64.4583 28.3878 62.8933 30.1541C61.9205 31.2476 60.4825 31.8364 58.6214 31.8784C56.2106 31.9626 54.561 31.3317 53.4613 30.7009V35.2009C54.9417 35.7897 56.5489 36.0841 58.3254 36.0841C68.0957 35.9999 69.1954 28.9345 69.1954 25.9065ZM64.2468 16.0233C64.1622 19.556 61.4976 22.4158 58.2408 22.4158C54.8994 22.4158 52.2348 19.4719 52.2348 15.8551C52.2348 12.2383 54.9417 9.29433 58.2408 9.29433C61.4976 9.29433 64.2045 12.1541 64.2468 15.6869V16.0233Z" fill="white"/>
<path d="M161.485 26.2849L151.673 15.6027L160.978 5.50921H154.929L146.597 14.5513V0.252197H141.691V26.2428H146.597V16.6541L155.437 26.2849H161.485Z" fill="white"/>
<path d="M21.9939 26.243L14.1691 15.8972L14.5921 15.8131C15.9878 15.5187 17.2144 15.014 18.1449 14.2991C19.1177 13.5421 19.8368 12.6168 20.3443 11.5234C20.8096 10.472 21.0634 9.33645 21.0634 8.20094C21.0211 3.65888 17.3413 0 12.8157 0H0V26.243H4.86403V4.24766H11.9697C14.1268 4.24766 15.9033 6.01402 15.9033 8.15888C15.9033 10.3037 14.1268 12.0701 11.9697 12.0701H5.79454L16.2839 26.285H21.9939V26.243Z" fill="white"/>
<path d="M94.404 15.2662H62.6398V19.2195H94.404V15.2662Z" fill="#00E27B"/>
<path d="M81.4611 26.2429H85.5638V22.2475H82.9837C81.7572 22.2475 80.7421 21.2382 80.7421 20.0186V9.88304H85.9868V5.17276H80.7421V0.252197H75.8357V20.6494C75.7934 23.7615 78.3312 26.2429 81.4611 26.2429Z" fill="white"/>
</svg>
