<svg width="160" height="37" viewBox="0 0 160 37" fill="none" xmlns="http://www.w3.org/2000/svg">
<g clip-path="url(#clip0_202_998)">
<path d="M140.43 15.7664V19.7197H119.938V16.986C119.938 16.5655 119.98 16.1449 120.022 15.7244H140.43V15.7664Z" fill="#4CAF50"/>
<path d="M124.924 9.96236C128.109 9.96236 129.953 11.8969 129.953 15.3035V26.7427H134.772V14.5465C134.772 9.07918 131.629 5.7147 126.559 5.7147H126.349C126.307 5.7147 123.122 5.63058 120.315 7.48105L119.895 7.73339V6.00909H115.076V26.7427H119.895V15.3035C119.937 12.0652 121.907 9.96236 124.924 9.96236Z" fill="white"/>
<path d="M120.523 15.7661H91.6489V19.7194H120.523V15.7661Z" fill="#4CAF50"/>
<path d="M28.2871 14.1679L28.3709 13.8315C28.9576 11.224 30.8853 9.62588 33.5255 9.54177C36.5427 9.45765 38.4705 11.0978 38.8057 13.8315L38.8476 14.1259L38.9733 16.2287L27.9938 16.0605L28.2871 14.1679ZM43.8764 15.9343C43.8764 15.8502 43.8764 15.8081 43.8764 15.724C43.8764 15.0932 43.8345 14.5044 43.7088 13.9577C42.9126 8.91093 39.0991 5.67261 33.6512 5.67261C28.2452 5.67261 24.3898 8.91093 23.4678 13.9577C23.3421 14.5044 23.3002 15.0932 23.2583 15.724C23.2583 15.9343 23.2583 16.1446 23.2583 16.3969C23.2583 16.9016 23.3002 17.4483 23.3421 17.9109C23.4259 18.5418 23.5097 19.1306 23.6774 19.6773C24.5155 22.8315 26.6527 25.1866 29.7958 26.3642C33.4835 27.7941 39.2248 27.1633 41.9487 25.0605V20.7287C39.3505 22.6633 36.7942 23.4203 33.6512 23.1259C31.5139 22.9577 29.3348 21.738 28.4966 19.7193C28.2871 19.2147 28.1614 18.6259 28.1614 18.0371V17.953V17.7848H43.7088C43.8345 17.238 43.8764 16.6072 43.8764 15.9343Z" fill="white"/>
<path d="M63.6575 18.0371V18.3315C63.6575 18.7942 63.6156 19.2568 63.5317 19.7194H23.7203C23.5527 19.1727 23.4689 18.5839 23.3851 17.953C23.3432 17.4484 23.3013 16.9437 23.3013 16.439C23.3013 16.2287 23.3013 15.9764 23.3013 15.7661H63.2803C63.5317 16.439 63.6575 17.2381 63.6575 18.0371Z" fill="#4CAF50"/>
<path d="M109.334 26.7431V6.00942H104.473V8.40661L104.012 7.98605C103.383 7.39727 101.372 5.75708 98.0191 5.75708C97.4324 5.75708 96.7619 5.79914 96.0914 5.9253C91.1883 6.80848 87.752 11.0982 87.752 16.3973C87.752 21.6963 91.1883 25.9861 96.0914 26.8692C100.575 27.6683 103.257 25.4814 103.97 24.8085L104.431 24.3879V26.7851H109.334V26.7431ZM98.4801 22.916C95.1694 22.916 92.5293 19.972 92.5293 16.3552C92.5293 12.7384 95.2114 9.79446 98.4801 9.79446C101.707 9.79446 104.389 12.6543 104.431 16.187V16.4814C104.389 20.0561 101.707 22.916 98.4801 22.916Z" fill="white"/>
<path d="M68.5586 26.4065V6.00929H63.6975V8.40648L63.2365 7.98592C62.5241 7.31302 59.8001 5.12611 55.358 5.92517C50.4549 6.80835 47.0186 11.0981 47.0186 16.3971C47.0186 21.6962 50.4549 25.9859 55.358 26.8691C59.842 27.6682 62.5241 25.4812 63.2365 24.8083L63.6975 24.3878V26.4485C63.6975 26.5326 63.8651 28.8878 62.3145 30.6541C61.3507 31.7476 59.9258 32.3364 58.0819 32.3784C55.6933 32.4626 54.0589 31.8317 52.9693 31.2009V35.7009C54.4361 36.2897 56.0285 36.5841 57.7886 36.5841C67.4691 36.4999 68.5586 29.4345 68.5586 26.4065ZM63.6555 16.5233C63.5717 20.056 60.9316 22.9158 57.7048 22.9158C54.3941 22.9158 51.754 19.9719 51.754 16.3551C51.754 12.7383 54.4361 9.79433 57.7048 9.79433C60.9316 9.79433 63.6136 12.6541 63.6555 16.1869V16.5233Z" fill="white"/>
<path d="M160 26.7849L150.277 16.1027L159.497 6.00921H153.504L145.248 15.0513V0.752197H140.387V26.7428H145.248V17.1541L154.007 26.7849H160Z" fill="white"/>
<path d="M21.7915 26.743L14.0388 16.3972L14.4578 16.3131C15.8408 16.0187 17.0561 15.514 17.978 14.7991C18.9419 14.0421 19.6543 13.1168 20.1572 12.0234C20.6181 10.972 20.8696 9.83645 20.8696 8.70094C20.8277 4.15888 17.1818 0.5 12.6977 0.5H0V26.743H4.81928V4.74766H11.8596C13.9969 4.74766 15.7569 6.51402 15.7569 8.65888C15.7569 10.8037 13.9969 12.5701 11.8596 12.5701H5.74123L16.1341 26.785H21.7915V26.743Z" fill="white"/>
<path d="M93.5354 15.7661H62.0635V19.7194H93.5354V15.7661Z" fill="#4CAF50"/>
<path d="M80.7118 26.7429H84.7768V22.7475H82.2205C81.0052 22.7475 79.9994 21.7382 79.9994 20.5186V10.383H85.1959V5.67276H79.9994V0.752197H75.1382V21.1494C75.0963 24.2615 77.6107 26.7429 80.7118 26.7429Z" fill="white"/>
</g>
<defs>
<clipPath id="clip0_202_998">
<rect width="160" height="36" fill="white" transform="translate(0 0.5)"/>
</clipPath>
</defs>
</svg>
