<svg width="24" height="24" viewBox="0 0 24 24" fill="none" xmlns="http://www.w3.org/2000/svg">
<path d="M11.9115 11.236C12.8369 11.236 13.6383 10.9041 14.293 10.2492C14.9477 9.59449 15.2796 8.79339 15.2796 7.86788C15.2796 6.94269 14.9477 6.14148 14.2929 5.48653C13.6381 4.8319 12.8368 4.5 11.9115 4.5C10.986 4.5 10.1849 4.8319 9.5302 5.48664C8.87547 6.14137 8.54346 6.94259 8.54346 7.86788C8.54346 8.79339 8.87547 9.5946 9.53031 10.2493C10.1851 10.904 10.9864 11.236 11.9115 11.236Z" fill="#95A1AC"/>
<path d="M17.8048 15.2527C17.7859 14.9802 17.7478 14.683 17.6915 14.3691C17.6348 14.0529 17.5617 13.754 17.4742 13.4808C17.3838 13.1984 17.2609 12.9195 17.109 12.6522C16.9513 12.3748 16.7661 12.1333 16.5583 11.9346C16.341 11.7266 16.0749 11.5594 15.7672 11.4375C15.4606 11.3162 15.1208 11.2547 14.7573 11.2547C14.6146 11.2547 14.4765 11.3133 14.2099 11.4869C14.0458 11.5939 13.8539 11.7177 13.6397 11.8545C13.4565 11.9713 13.2083 12.0806 12.9018 12.1796C12.6028 12.2764 12.2992 12.3255 11.9995 12.3255C11.6998 12.3255 11.3963 12.2764 11.0969 12.1796C10.7907 12.0807 10.5426 11.9714 10.3596 11.8546C10.1474 11.719 9.95537 11.5953 9.78883 11.4868C9.52254 11.3132 9.38438 11.2546 9.24164 11.2546C8.87805 11.2546 8.53836 11.3162 8.23185 11.4376C7.92438 11.5593 7.65819 11.7265 7.44066 11.9347C7.23294 12.1335 7.04763 12.375 6.89016 12.6522C6.73834 12.9195 6.61544 13.1983 6.52497 13.4809C6.43759 13.7541 6.36451 14.0529 6.30776 14.3691C6.25153 14.6826 6.21334 14.9799 6.19446 15.253C6.17589 15.5206 6.1665 15.7983 6.1665 16.0788C6.1665 16.8087 6.39855 17.3997 6.85613 17.8355C7.30805 18.2655 7.90603 18.4837 8.6332 18.4837H15.3664C16.0936 18.4837 16.6913 18.2656 17.1434 17.8355C17.6011 17.4 17.8331 16.809 17.8331 16.0787C17.833 15.7969 17.8235 15.519 17.8048 15.2527Z" fill="#95A1AC"/>
<path d="M6.86111 2H4.91667C3.30861 2 2 3.30861 2 4.91667V6.86111C2 7.39875 2.43556 7.83333 2.97222 7.83333C3.50889 7.83333 3.94444 7.39875 3.94444 6.86111V4.91667C3.94444 4.38 4.38097 3.94444 4.91667 3.94444H6.86111C7.39778 3.94444 7.83333 3.50986 7.83333 2.97222C7.83333 2.43458 7.39778 2 6.86111 2Z" fill="#95A1AC"/>
<path d="M6.86111 20.0556H4.91667C4.38097 20.0556 3.94444 19.6201 3.94444 19.0834V17.139C3.94444 16.6013 3.50889 16.1667 2.97222 16.1667C2.43556 16.1667 2 16.6013 2 17.139V19.0834C2 20.6915 3.30861 22.0001 4.91667 22.0001H6.86111C7.39778 22.0001 7.83333 21.5655 7.83333 21.0279C7.83333 20.4902 7.39778 20.0556 6.86111 20.0556Z" fill="#95A1AC"/>
<path d="M19.0832 2H17.1387C16.6021 2 16.1665 2.43458 16.1665 2.97222C16.1665 3.50986 16.6021 3.94444 17.1387 3.94444H19.0832C19.6189 3.94444 20.0554 4.38 20.0554 4.91667V6.86111C20.0554 7.39875 20.4909 7.83333 21.0276 7.83333C21.5643 7.83333 21.9998 7.39875 21.9998 6.86111V4.91667C21.9998 3.30861 20.6912 2 19.0832 2Z" fill="#95A1AC"/>
<path d="M19.0832 22H17.1387C16.6021 22 16.1665 21.5654 16.1665 21.0278C16.1665 20.4901 16.6021 20.0556 17.1387 20.0556H19.0832C19.6189 20.0556 20.0554 19.62 20.0554 19.0833V17.1389C20.0554 16.6012 20.4909 16.1667 21.0276 16.1667C21.5643 16.1667 21.9998 16.6012 21.9998 17.1389V19.0833C21.9998 20.6914 20.6912 22 19.0832 22Z" fill="#95A1AC"/>
</svg>
