<svg width="12" height="12" viewBox="0 0 12 12" fill="none" xmlns="http://www.w3.org/2000/svg">
    <path d="M10.667 2.66669H7.33366C6.93366 2.66669 6.66699 2.93335 6.66699 3.33335C6.66699 3.73335 6.93366 4.00002 7.33366 4.00002H10.667C11.067 4.00002 11.3337 3.73335 11.3337 3.33335C11.3337 2.93335 11.067 2.66669 10.667 2.66669Z" fill="#7A7A7A" />
    <path d="M1.33366 4.00002H2.00033V5.33335C2.00033 5.73335 2.26699 6.00002 2.66699 6.00002H4.66699C5.06699 6.00002 5.33366 5.73335 5.33366 5.33335V1.33335C5.33366 0.933354 5.06699 0.666687 4.66699 0.666687H2.66699C2.26699 0.666687 2.00033 0.933354 2.00033 1.33335V2.66669H1.33366C0.933659 2.66669 0.666992 2.93335 0.666992 3.33335C0.666992 3.73335 0.933659 4.00002 1.33366 4.00002Z" fill="#7A7A7A" />
    <path d="M1.33366 9.33333H4.66699C5.06699 9.33333 5.33366 9.06667 5.33366 8.66667C5.33366 8.26667 5.06699 8 4.66699 8H1.33366C0.933659 8 0.666992 8.26667 0.666992 8.66667C0.666992 9.06667 0.933659 9.33333 1.33366 9.33333Z" fill="#7A7A7A" />
    <path d="M10.667 8H10.0003V6.66667C10.0003 6.26667 9.73366 6 9.33366 6H7.33366C6.93366 6 6.66699 6.26667 6.66699 6.66667V10.6667C6.66699 11.0667 6.93366 11.3333 7.33366 11.3333H9.33366C9.73366 11.3333 10.0003 11.0667 10.0003 10.6667V9.33333H10.667C11.067 9.33333 11.3337 9.06667 11.3337 8.66667C11.3337 8.26667 11.067 8 10.667 8Z" fill="#7A7A7A" />
</svg>