<svg width="17" height="17" viewBox="0 0 17 17" fill="none" xmlns="http://www.w3.org/2000/svg">
<path fill-rule="evenodd" clip-rule="evenodd" d="M5.86724 2.55004V2.1249C5.86724 1.5615 6.09869 1.02081 6.51021 0.621971C6.92049 0.223527 7.47796 0 8.05967 0H8.93657C9.51787 0 10.0757 0.223527 10.4873 0.622369C10.8988 1.02121 11.1294 1.5615 11.1294 2.1253V2.55004H15.5143C15.9986 2.55004 16.3912 2.93095 16.3912 3.39992C16.3912 3.86889 15.9982 4.2498 15.5143 4.2498H14.6374V13.6001C14.6374 15.4779 13.0674 17 11.1294 17C9.52281 17 7.47467 17 5.86724 17C3.92969 17 2.35925 15.4775 2.35925 13.6001V4.2502H1.48236C0.998077 4.2502 0.605469 3.86929 0.605469 3.40032C0.605469 2.93135 0.997666 2.55004 1.48195 2.55004H5.86724ZM12.8832 4.2502H4.11304V13.6005C4.11304 14.5396 4.89867 15.3006 5.86724 15.3006H11.1294C12.0984 15.3006 12.8836 14.54 12.8836 13.6005V4.2502H12.8832ZM9.37522 6.80024V12.7502C9.37522 13.2196 9.76824 13.6001 10.2521 13.6001C10.736 13.6001 11.129 13.2192 11.129 12.7502V6.80024C11.129 6.33087 10.736 5.95036 10.2521 5.95036C9.76824 5.95036 9.37522 6.33087 9.37522 6.80024ZM5.86724 6.80024V12.7502C5.86724 13.2196 6.26026 13.6001 6.74413 13.6001C7.22842 13.6001 7.62102 13.2192 7.62102 12.7502V6.80024C7.62102 6.33087 7.228 5.95036 6.74413 5.95036C6.25985 5.94996 5.86724 6.33087 5.86724 6.80024ZM9.37522 2.55004V2.1249C9.37522 2.01174 9.32959 1.90376 9.24736 1.82408C9.16473 1.74518 9.05373 1.70016 8.93698 1.70016C8.65002 1.70016 8.34663 1.70016 8.06008 1.70016C7.94415 1.70016 7.83274 1.74518 7.75052 1.82408C7.66789 1.90416 7.62143 2.01174 7.62143 2.1249V2.55004H9.37522Z" fill="#BBBBBB"/>
</svg>
