<svg width="24" height="24" viewBox="0 0 24 24" fill="none" xmlns="http://www.w3.org/2000/svg">
<path d="M3.30458 6.91888C3.30458 5.86101 4.16608 5 5.22445 5C6.28282 5 7.14383 5.86101 7.14383 6.91888C7.14383 7.97725 6.28282 8.83826 5.22445 8.83826C4.16608 8.83826 3.30458 7.97725 3.30458 6.91888ZM12.0015 12.3918C13.7309 12.3918 15.1401 10.9831 15.1401 9.25223C15.1401 7.52134 13.7319 6.11363 12.0015 6.11413C10.2711 6.11413 8.86288 7.52183 8.86288 9.25223C8.86288 10.9826 10.2716 12.3918 12.0015 12.3918ZM18.7785 8.83875C19.8374 8.83875 20.6989 7.97775 20.6989 6.91938C20.6989 5.8615 19.8374 5 18.7785 5C17.7196 5 16.8591 5.8615 16.8591 6.91938C16.8601 7.97725 17.7206 8.83875 18.7785 8.83875ZM8.42276 11.1001L8.44841 11.069L8.44249 11.029C8.27819 9.95436 7.71668 9.09187 6.86209 8.59846L6.80091 8.56343L6.75255 8.61425C6.34943 9.0371 5.80619 9.27049 5.22445 9.27049C4.64272 9.27049 4.09997 9.0371 3.69635 8.61425L3.64751 8.56293L3.58632 8.59797C2.73222 9.09138 2.17072 9.95387 2.00592 11.0285L2 11.0685L2.02566 11.0996C2.87877 12.1224 4.01461 12.6854 5.22347 12.6854C6.43233 12.6859 7.56965 12.1224 8.42276 11.1001ZM21.9965 11.0295C21.8327 9.95485 21.2707 9.09237 20.4166 8.59895L20.3555 8.56392L20.3071 8.61474C19.9035 9.0376 19.3607 9.27098 18.778 9.27098C18.1963 9.27098 17.654 9.03809 17.2499 8.61474L17.2006 8.56392L17.1399 8.59895C16.2858 9.09237 15.7243 9.95485 15.5595 11.0295L15.5536 11.0695L15.5787 11.1006C16.4318 12.1234 17.5677 12.6869 18.7765 12.6869C19.9859 12.6869 21.1212 12.1224 21.9743 11.1006L22 11.0695L21.9965 11.0295ZM14.6792 11.9981L14.5801 11.9408L14.5006 12.0237C13.8414 12.716 12.9533 13.0969 12.002 13.0969C11.0507 13.0969 10.1625 12.7165 9.50333 12.0237L9.42389 11.9408L9.32422 11.9981C7.92688 12.8053 7.00913 14.2155 6.74022 15.973L6.73035 16.0386L6.77229 16.0895C8.16717 17.7636 10.0244 18.6848 12.002 18.6848C13.9796 18.6848 15.8368 17.7636 17.2317 16.0895L17.2736 16.0386L17.2637 15.973C16.9953 14.216 16.0766 12.8053 14.6792 11.9981Z" fill="#95A1AC"/>
</svg>
