<svg xmlns="http://www.w3.org/2000/svg" width="94" height="94" viewBox="0 0 94 94">
  <g id="_24px" data-name="24px" transform="translate(-0.331 -0.702)">
    <g id="Group_497" data-name="Group 497" transform="translate(0.331 0.702)">
      <rect id="Rectangle_390" data-name="Rectangle 390" width="94" height="94" fill="none"/>
    </g>
    <g id="Group_498" data-name="Group 498" transform="translate(8.018 16.002)">
      <path id="Path_308" data-name="Path 308" d="M65.092,71.966a3.915,3.915,0,0,1-5.543,0l-8.334-8.334a3.915,3.915,0,0,1,0-5.543h0a3.915,3.915,0,0,1,5.543,0L62.3,63.633,76.217,49.717a3.915,3.915,0,0,1,5.543,0h0a3.915,3.915,0,0,1,0,5.543ZM41.624,66.9H9.862A7.885,7.885,0,0,1,2,59.033V11.862A7.885,7.885,0,0,1,9.862,4h62.9a7.885,7.885,0,0,1,7.862,7.862V38.121A27.486,27.486,0,0,0,41.31,62.964,26.079,26.079,0,0,0,41.624,66.9Zm-2.4-28.814a3.976,3.976,0,0,0,4.167,0L71.185,20.707a3.338,3.338,0,1,0-3.538-5.661L41.31,31.517,14.972,15.046a3.338,3.338,0,1,0-3.538,5.661Z" transform="translate(-2 -4)" fill="#3f51b5"/>
    </g>
  </g>
</svg>
