<svg width="24" height="24" viewBox="0 0 24 24" fill="none" xmlns="http://www.w3.org/2000/svg">
<path d="M19.8835 10.3749H19.7319V9.46427C19.7319 5.35161 16.401 2 12.2668 2C8.15137 2 4.80254 5.34842 4.80254 9.46427V10.3749H4.65834C3.74169 10.3749 3 11.1249 3 12.0333V15.7833C3 16.7 3.74169 17.4416 4.65834 17.4416H7.15008C7.61675 17.4416 7.98342 17.0666 7.98342 16.6083V11.2083C7.98342 10.7499 7.61675 10.3749 7.15008 10.3749H6.46922V9.46427C6.46922 6.26762 9.07016 3.66668 12.2668 3.66668C15.4682 3.66668 18.0652 6.26117 18.0652 9.46427V10.3749H17.3835C16.9252 10.3749 16.5501 10.7499 16.5501 11.2083V16.6083C16.5501 17.0666 16.9252 17.4416 17.3835 17.4416H17.4242C17.0872 18.3053 16.2515 18.9212 15.2698 18.9212H14.3435C14.011 18.0943 13.2057 17.5083 12.2668 17.5083C11.0334 17.5083 10.0251 18.5166 10.0251 19.7583C10.0251 20.9917 11.0334 22 12.2668 22C13.2069 22 14.0127 21.4126 14.3445 20.5878H15.2698C17.1787 20.5878 18.7752 19.2368 19.1613 17.4416H19.8835C20.7919 17.4416 21.5335 16.7 21.5335 15.7833V12.0333C21.5335 11.1249 20.7919 10.3749 19.8835 10.3749Z" fill="#95A1AC"/>
</svg>
