<svg width="88" height="108" viewBox="0 0 88 108" fill="none" xmlns="http://www.w3.org/2000/svg">
<path d="M51.4473 86.3541C50.8504 85.9219 50.0146 86.0541 49.5807 86.6487L43.6915 94.723L39.3852 89.2977C38.9272 88.7209 38.0866 88.6228 37.5079 89.079C36.9287 89.5351 36.8302 90.3724 37.2882 90.9488L42.6878 97.7518C42.9417 98.0717 43.328 98.2577 43.7365 98.2577H43.7637C44.182 98.2492 44.5718 98.046 44.8178 97.7092L51.7432 88.2146C52.1771 87.6187 52.0448 86.7863 51.4473 86.3541Z" fill="#21A453"/>
<path d="M44.1135 77.0239C35.7358 77.0239 28.9199 83.8225 28.9199 92.179C28.9199 100.535 35.7358 107.334 44.1135 107.334C52.4913 107.334 59.3072 100.535 59.3072 92.179C59.3072 83.8225 52.4913 77.0239 44.1135 77.0239ZM44.1135 104.671C37.2095 104.671 31.593 99.0672 31.593 92.179C31.593 85.2908 37.2095 79.6862 44.1135 79.6862C51.0176 79.6862 56.6341 85.2903 56.6341 92.179C56.6341 99.0676 51.0171 104.671 44.1135 104.671Z" fill="#21A453"/>
<path d="M3.00655 25.5565V9.61247C3.00655 6.14795 5.82037 3.32903 9.2793 3.32903H25.2125C26.9798 3.32903 26.982 0.666748 25.2125 0.666748H9.2793C4.34663 0.666748 0.333496 4.6797 0.333496 9.61247V25.5565C0.333496 27.3171 3.00655 27.3189 3.00655 25.5565Z" fill="#95A1AC"/>
<path d="M25.2125 85.3533H9.2793C5.82037 85.3533 3.00655 82.5343 3.00655 79.0698V63.1245C3.00655 61.3651 0.333496 61.3616 0.333496 63.1245V79.0698C0.333496 84.0026 4.34663 88.0155 9.2793 88.0155H25.2125C26.9798 88.0155 26.982 85.3533 25.2125 85.3533Z" fill="#95A1AC"/>
<path d="M62.9208 85.3533H78.854C82.3129 85.3533 85.1268 82.5344 85.1268 79.0699V63.1245C85.1268 61.3652 87.7998 61.3617 87.7998 63.1245V79.0699C87.7998 84.0026 83.7867 88.0156 78.854 88.0156H62.9208C61.1535 88.0156 61.1513 85.3533 62.9208 85.3533Z" fill="#95A1AC"/>
<path d="M62.7532 3.32948H78.6877C82.1467 3.32948 84.9609 6.1484 84.9609 9.61292V25.5569C84.9609 27.3171 87.634 27.3193 87.634 25.5569V9.61247C87.634 4.6797 83.6208 0.666748 78.6877 0.666748H62.7532C60.9864 0.667192 60.9841 3.32948 62.7532 3.32948Z" fill="#95A1AC"/>
<path d="M58.3273 61.5593C55.2256 61.5593 53.3313 59.8328 52.6858 56.4317C54.5239 54.7438 56.0721 52.7001 57.2166 50.4194C60.7107 43.4708 59.5711 43.2418 60.5183 42.7227L60.5151 42.7169C63.2082 41.4728 62.3056 38.3685 62.4709 37.6675C62.4709 36.0803 62.1773 35.511 61.3701 35.0473C62.5961 31.5478 62.3417 27.3813 60.6136 23.3985C55.6996 12.0713 40.171 6.34699 34.5861 17.0339C32.1135 16.8479 28.4461 17.7775 27.1889 22.421C25.9223 27.0986 26.5358 32.8114 26.8539 35.0282C26.1018 35.6321 25.4991 36.6114 25.4991 37.6812C25.6679 38.3965 24.7684 41.4772 27.4544 42.7178L27.4513 42.724C28.4038 43.2441 29.2516 50.8897 35.2847 56.433C34.6391 59.8337 32.7448 61.5597 29.6436 61.5597C18.0996 61.5597 12.5771 68.0783 13.2008 76.0647C13.2828 77.8569 16.0115 77.6754 15.8649 75.8504C15.8026 75.0704 15.6342 71.0255 18.4511 67.9874C20.1262 66.1805 22.5632 65.0216 25.7142 64.5162C27.3813 66.3753 33.0914 71.6773 43.9854 71.6773C54.8795 71.6773 60.59 66.3753 62.2566 64.5162C65.4077 65.0216 67.8442 66.1805 69.5198 67.9874C72.3367 71.0255 72.1679 75.0704 72.1059 75.8504C71.9598 77.6754 74.6881 77.8569 74.7701 76.0647C75.3675 68.4173 70.27 61.5593 58.3273 61.5593ZM29.7697 23.1141C30.548 20.2397 32.85 19.2777 35.065 19.792C35.7418 19.9579 36.4332 19.5777 36.6528 18.9187C39.4261 10.6 53.387 13.4509 58.1602 24.4545C59.3996 27.3116 59.7582 30.2472 59.225 32.8234C58.3072 31.5473 57.0731 29.8448 55.7985 28.1329C52.8533 24.1768 47.5704 22.7564 43.2379 24.7554C42.4115 25.1365 41.5102 25.125 40.7649 24.7239C38.0094 23.2414 35.4107 23.1802 33.2496 24.5459C31.4399 25.692 29.694 28.6201 29.7844 31.7643C29.8 32.3132 29.6503 32.8075 29.33 33.2538C29.0622 30.7335 28.8431 26.5356 29.7697 23.1141ZM33.1435 49.2271C29.5474 42.0758 31.0902 41.6751 28.7366 40.3896C28.4621 40.2401 28.1717 40.0103 28.1717 39.7045C28.1717 36.8333 28.0327 37.498 29.044 36.8395C29.085 36.7933 32.5586 35.2781 32.4557 31.6889C32.3746 28.8597 34.4881 24.3738 39.4938 27.0667C40.9881 27.8707 42.7621 27.9088 44.361 27.1714C47.55 25.7005 51.4571 26.7716 53.6516 29.7188C60.1908 38.5021 57.9994 36.2547 59.7956 37.2251C59.8001 37.4265 59.7983 37.9071 59.7983 39.7045C59.7983 40.4881 57.8871 40.5303 57.4055 42.8478C57.132 44.187 56.1924 46.512 54.8264 49.228C53.5287 51.8131 51.6482 54.0512 49.3877 55.7C47.9874 56.7219 47.6832 56.7188 45.3135 56.6939C40.371 56.6425 40.3737 57.0072 38.5828 55.6996C36.3223 54.0512 34.4418 51.8131 33.1435 49.2271ZM43.985 69.0145C36.3806 69.0145 31.6524 66.2085 29.2609 64.2273C33.7321 64.1741 36.3922 62.1245 37.5804 58.2456C39.3147 59.378 40.375 59.3802 42.6837 59.3558C47.1526 59.3087 48.2302 59.6619 50.3892 58.246C51.5604 62.0686 54.368 64.2211 58.3268 64.2211C58.4484 64.2211 58.566 64.2251 58.6859 64.2269C56.2761 66.2063 51.5283 69.0145 43.985 69.0145Z" fill="#95A1AC"/>
</svg>
