<svg width="20" height="20" viewBox="0 0 20 20" fill="none" xmlns="http://www.w3.org/2000/svg">
<path fill-rule="evenodd" clip-rule="evenodd" d="M4.41083 4.41058C4.73626 4.08514 5.2639 4.08514 5.58934 4.41058L10.0001 8.82133L14.4108 4.41058C14.7363 4.08514 15.2639 4.08514 15.5893 4.41058C15.9148 4.73602 15.9148 5.26366 15.5893 5.58909L11.1786 9.99984L15.5893 14.4106C15.9148 14.736 15.9148 15.2637 15.5893 15.5891C15.2639 15.9145 14.7363 15.9145 14.4108 15.5891L10.0001 11.1783L5.58934 15.5891C5.2639 15.9145 4.73626 15.9145 4.41083 15.5891C4.08539 15.2637 4.08539 14.736 4.41083 14.4106L8.82157 9.99984L4.41083 5.58909C4.08539 5.26366 4.08539 4.73602 4.41083 4.41058Z" fill="#EA2134"/>
</svg>
