<svg width="88" height="108" viewBox="0 0 88 108" fill="none" xmlns="http://www.w3.org/2000/svg">
<path d="M47.7915 86.9418L44.3929 90.3404L40.995 86.9424C39.7503 85.6978 37.8662 87.5787 39.1125 88.825L42.5104 92.2229L39.1118 95.6215C37.8672 96.8662 39.7481 98.7503 40.9943 97.5041L44.3929 94.1055L47.7909 97.5034C49.0359 98.7484 50.9193 96.8668 49.6734 95.6209L46.2755 92.2229L49.674 88.8243C50.9181 87.5803 49.0381 85.6953 47.7915 86.9418Z" fill="#FF604F"/>
<path d="M44.1135 77.0238C35.7358 77.0238 28.9199 83.8224 28.9199 92.1789C28.9199 100.535 35.7358 107.333 44.1135 107.333C52.4913 107.333 59.3072 100.535 59.3072 92.1789C59.3072 83.8224 52.4913 77.0238 44.1135 77.0238ZM44.1135 104.671C37.2095 104.671 31.593 99.0671 31.593 92.1789C31.593 85.2906 37.2095 79.6861 44.1135 79.6861C51.0176 79.6861 56.6341 85.2902 56.6341 92.1789C56.6341 99.0675 51.0171 104.671 44.1135 104.671Z" fill="#FF604F"/>
<path d="M3.00606 25.5564V9.61241C3.00606 6.14789 5.81989 3.32897 9.27881 3.32897H25.212C26.9793 3.32897 26.9815 0.666687 25.212 0.666687H9.27881C4.34614 0.666687 0.333008 4.67964 0.333008 9.61241V25.5564C0.333008 27.3171 3.00606 27.3188 3.00606 25.5564Z" fill="#95A1AC"/>
<path d="M25.212 85.3532H9.27881C5.81989 85.3532 3.00606 82.5343 3.00606 79.0697V63.1244C3.00606 61.3651 0.333008 61.3615 0.333008 63.1244V79.0697C0.333008 84.0025 4.34614 88.0155 9.27881 88.0155H25.212C26.9793 88.0155 26.9815 85.3532 25.212 85.3532Z" fill="#95A1AC"/>
<path d="M62.9208 85.3531H78.854C82.3129 85.3531 85.1268 82.5342 85.1268 79.0697V63.1244C85.1268 61.365 87.7998 61.3615 87.7998 63.1244V79.0697C87.7998 84.0025 83.7867 88.0154 78.854 88.0154H62.9208C61.1535 88.0154 61.1513 85.3531 62.9208 85.3531Z" fill="#95A1AC"/>
<path d="M62.7528 3.32942H78.6872C82.1462 3.32942 84.9604 6.14833 84.9604 9.61286V25.5568C84.9604 27.3171 87.6335 27.3193 87.6335 25.5568V9.61241C87.6335 4.67964 83.6204 0.666687 78.6872 0.666687H62.7528C60.9859 0.667131 60.9836 3.32942 62.7528 3.32942Z" fill="#95A1AC"/>
<path d="M58.3273 61.5592C55.2256 61.5592 53.3313 59.8327 52.6858 56.4316C54.5239 54.7437 56.0721 52.7 57.2166 50.4193C60.7107 43.4707 59.5711 43.2418 60.5183 42.7226L60.5151 42.7169C63.2082 41.4727 62.3056 38.3685 62.4709 37.6674C62.4709 36.0802 62.1773 35.5109 61.3701 35.0473C62.5961 31.5477 62.3417 27.3812 60.6136 23.3984C55.6996 12.0713 40.171 6.34693 34.5861 17.0338C32.1135 16.8479 28.4461 17.7775 27.1889 22.4209C25.9223 27.0986 26.5358 32.8114 26.8539 35.0282C26.1018 35.6321 25.4991 36.6114 25.4991 37.6812C25.6679 38.3964 24.7684 41.4771 27.4544 42.7178L27.4513 42.724C28.4038 43.244 29.2516 50.8896 35.2847 56.433C34.6391 59.8336 32.7448 61.5596 29.6436 61.5596C18.0996 61.5596 12.5771 68.0783 13.2008 76.0647C13.2828 77.8568 16.0115 77.6754 15.8649 75.8504C15.8026 75.0703 15.6342 71.0254 18.4511 67.9873C20.1262 66.1805 22.5632 65.0215 25.7142 64.5161C27.3813 66.3753 33.0914 71.6772 43.9854 71.6772C54.8795 71.6772 60.59 66.3753 62.2566 64.5161C65.4077 65.0215 67.8442 66.1805 69.5198 67.9873C72.3367 71.0254 72.1679 75.0703 72.1059 75.8504C71.9598 77.6754 74.6881 77.8568 74.7701 76.0647C75.3675 68.4173 70.27 61.5592 58.3273 61.5592ZM29.7697 23.114C30.548 20.2396 32.85 19.2777 35.065 19.7919C35.7418 19.9579 36.4332 19.5776 36.6528 18.9187C39.4261 10.5999 53.387 13.4508 58.1602 24.4545C59.3996 27.3115 59.7582 30.2472 59.225 32.8234C58.3072 31.5472 57.0731 29.8447 55.7985 28.1329C52.8533 24.1767 47.5704 22.7564 43.2379 24.7553C42.4115 25.1365 41.5102 25.1249 40.7649 24.7238C38.0094 23.2414 35.4107 23.1801 33.2496 24.5459C31.4399 25.692 29.694 28.6201 29.7844 31.7642C29.8 32.3131 29.6503 32.8074 29.33 33.2538C29.0622 30.7335 28.8431 26.5355 29.7697 23.114ZM33.1435 49.227C29.5474 42.0757 31.0902 41.675 28.7366 40.3896C28.4621 40.2401 28.1717 40.0102 28.1717 39.7045C28.1717 36.8332 28.0327 37.4979 29.044 36.8394C29.085 36.7933 32.5586 35.278 32.4557 31.6888C32.3746 28.8597 34.4881 24.3737 39.4938 27.0666C40.9881 27.8706 42.7621 27.9088 44.361 27.1713C47.55 25.7004 51.4571 26.7715 53.6516 29.7187C60.1908 38.502 57.9994 36.2546 59.7956 37.225C59.8001 37.4265 59.7983 37.907 59.7983 39.7045C59.7983 40.4881 57.8871 40.5302 57.4055 42.8478C57.132 44.1869 56.1924 46.512 54.8264 49.2279C53.5287 51.813 51.6482 54.0511 49.3877 55.7C47.9874 56.7218 47.6832 56.7187 45.3135 56.6939C40.371 56.6424 40.3737 57.0071 38.5828 55.6995C36.3223 54.0511 34.4418 51.813 33.1435 49.227ZM43.985 69.0145C36.3806 69.0145 31.6524 66.2084 29.2609 64.2273C33.7321 64.174 36.3922 62.1245 37.5804 58.2455C39.3147 59.3779 40.375 59.3801 42.6837 59.3557C47.1526 59.3087 48.2302 59.6619 50.3892 58.246C51.5604 62.0686 54.368 64.221 58.3268 64.221C58.4484 64.221 58.566 64.225 58.6859 64.2268C56.2761 66.2062 51.5283 69.0145 43.985 69.0145Z" fill="#95A1AC"/>
</svg>
