<svg width="15" height="16" viewBox="0 0 15 16" fill="none" xmlns="http://www.w3.org/2000/svg">
<path d="M7.50009 4.89838C5.77423 4.89838 4.37009 6.29307 4.37009 8.00737C4.37009 9.72161 5.77423 11.1163 7.50009 11.1163C9.22606 11.1163 10.6302 9.72161 10.6302 8.00737C10.6302 6.29302 9.22611 4.89838 7.50009 4.89838ZM7.50009 10.1724C6.29815 10.1724 5.32037 9.20122 5.32037 8.00737C5.32037 6.81351 6.29815 5.84226 7.50009 5.84226C8.70208 5.84226 9.67997 6.81351 9.67997 8.00737C9.67997 9.20122 8.70208 10.1724 7.50009 10.1724ZM14.4752 4.00012C13.9969 3.17711 13.2101 2.34922 12.5519 2.69253L11.3076 3.2448C10.8313 2.86798 10.3069 2.56704 9.74253 2.34675L9.60152 0.996949C9.56768 0.261823 8.45406 0 7.50009 0C6.54321 0 5.42796 0.262819 5.39845 1.00067L5.2577 2.3467C4.6935 2.56704 4.16911 2.86793 3.69265 3.24475L2.44647 2.69153C1.78808 2.35095 1.00236 3.17884 0.524847 4.00001C0.046488 4.82318 -0.281885 5.914 0.346617 6.30822L1.44593 7.0993C1.40079 7.39904 1.37798 7.70302 1.37798 8.00658C1.37798 8.3059 1.40021 8.60595 1.44424 8.90196L0.34667 9.69183C-0.281622 10.086 0.0465934 11.1768 0.524899 12.0001C1.0021 12.8208 1.7875 13.6483 2.44567 13.3089L3.68204 12.7602C4.16156 13.1412 4.69002 13.4451 5.25923 13.6671L5.3985 14.9994C5.42801 15.7372 6.54327 16 7.50014 16C8.45406 16 9.56773 15.7382 9.60157 15.0031L9.74111 13.667C10.3104 13.445 10.8389 13.141 11.3184 12.76L12.5536 13.3082C12.7485 13.4078 13.1298 13.4826 13.6571 13.0285C13.9417 12.7834 14.2323 12.4181 14.4753 12C14.9522 11.1796 15.2807 10.0912 14.6573 9.69419L13.5562 8.90185C13.6001 8.60605 13.6224 8.30616 13.6224 8.00658C13.6224 7.70276 13.5995 7.39877 13.5544 7.09941L14.6578 6.30544C15.2805 5.90823 14.952 4.82014 14.4752 4.00012ZM12.7563 6.50806C12.6056 6.61656 12.5324 6.80255 12.5693 6.98383C12.6374 7.31839 12.672 7.66243 12.672 8.00658C12.672 8.34669 12.6381 8.68728 12.5715 9.01889C12.535 9.19986 12.6081 9.38528 12.7586 9.49356L14.0505 10.4232C14.0511 10.5737 13.9723 10.9777 13.6523 11.5281C13.3325 12.0783 13.02 12.3481 12.8882 12.423L11.4342 11.7776C11.264 11.702 11.0651 11.7324 10.9255 11.855C10.4031 12.3142 9.80499 12.6581 9.14782 12.8774C8.97128 12.9363 8.84568 13.0922 8.82647 13.2761L8.66254 14.8462C8.53151 14.922 8.13994 15.0561 7.50009 15.0561C6.86061 15.0561 6.46909 14.9221 6.3378 14.8463L6.17377 13.2761C6.15455 13.0921 6.0289 12.9363 5.85242 12.8774C5.19535 12.6582 4.59726 12.3143 4.07476 11.8552C3.93513 11.7325 3.73636 11.7022 3.56605 11.7778L2.11218 12.4231C1.98046 12.3482 1.66782 12.0785 1.34784 11.5283C1.02818 10.978 0.949145 10.5743 0.949673 10.4235L2.24168 9.49377C2.39214 9.38554 2.46521 9.20012 2.42888 9.01921C2.3621 8.68701 2.32826 8.34638 2.32826 8.00663C2.32826 7.66296 2.36279 7.31881 2.43089 6.98357C2.46769 6.8024 2.39457 6.6165 2.2439 6.50806L0.949673 5.57671C0.949092 5.4259 1.02807 5.02218 1.34779 4.47206C1.66777 3.92172 1.98035 3.65193 2.11213 3.5771L3.57603 4.22691C3.74581 4.30232 3.94421 4.27227 4.08379 4.1503C4.60407 3.6954 5.19868 3.35424 5.85115 3.13631C6.02753 3.07742 6.15307 2.92158 6.17229 2.73773L6.33785 1.15384C6.46909 1.07797 6.86061 0.943987 7.50014 0.943987C8.13999 0.943987 8.53156 1.07807 8.6626 1.15395L8.82805 2.73778C8.84726 2.92173 8.97281 3.07753 9.14929 3.13647C9.80187 3.35429 10.3964 3.6954 10.9164 4.1503C11.056 4.27243 11.2544 4.30237 11.4243 4.22702L12.8882 3.57721C13.02 3.65214 13.3326 3.92193 13.6524 4.47211C13.9724 5.0226 14.0512 5.42653 14.0505 5.57703L12.7563 6.50806Z" fill="#5084B9"/>
</svg>
