<svg width="15" height="13" viewBox="0 0 15 13" fill="none" xmlns="http://www.w3.org/2000/svg">
<path d="M14.8067 10.8556L8.65399 0.651709C8.41158 0.249727 7.96941 0 7.49998 0C7.03056 0 6.58838 0.249727 6.34595 0.651738L0.193226 10.8556C-0.0572918 11.2711 -0.0647039 11.7916 0.173861 12.2141C0.412484 12.6365 0.862073 12.899 1.34723 12.899H13.6527C14.1379 12.899 14.5875 12.6365 14.8261 12.214C15.0647 11.7916 15.0573 11.271 14.8067 10.8556ZM13.9758 11.7338C13.9101 11.8501 13.7863 11.9224 13.6527 11.9224H1.34723C1.21367 11.9224 1.08989 11.8501 1.02423 11.7339C0.958548 11.6176 0.960599 11.4742 1.02953 11.3599L7.18232 1.15603C7.24906 1.04537 7.37078 0.976611 7.50001 0.976611C7.62921 0.976611 7.75094 1.04537 7.81768 1.15603L13.9704 11.3599C14.0394 11.4743 14.0414 11.6176 13.9758 11.7338Z" fill="#787878"/>
<path d="M7.50442 4.01807C7.13294 4.01807 6.84302 4.2174 6.84302 4.57078C6.84302 5.64896 6.96984 7.1983 6.96984 8.27651C6.96987 8.55738 7.21453 8.67516 7.50445 8.67516C7.72189 8.67516 8.02995 8.55738 8.02995 8.27651C8.02995 7.19833 8.15678 5.64899 8.15678 4.57078C8.15678 4.21743 7.8578 4.01807 7.50442 4.01807Z" fill="#787878"/>
<path d="M7.51384 9.30029C7.1152 9.30029 6.81616 9.6174 6.81616 9.99797C6.81616 10.3695 7.11517 10.6956 7.51384 10.6956C7.88532 10.6956 8.20246 10.3695 8.20246 9.99797C8.20246 9.6174 7.88529 9.30029 7.51384 9.30029Z" fill="#787878"/>
</svg>
